<svg width="142" height="136" viewBox="0 0 142 136" fill="none" xmlns="http://www.w3.org/2000/svg">
<path d="M90.295 54.4229H78.3711V65.8751H90.295V54.4229Z" fill="#72BC44"/>
<path d="M59.9816 54.4818H55.1406C53.4993 54.4818 52.1688 55.8124 52.1688 57.4537V62.2947C52.1688 63.936 53.4993 65.2666 55.1406 65.2666H59.9816C61.6229 65.2666 62.9535 63.936 62.9535 62.2947V57.4537C62.9535 55.8124 61.6229 54.4818 59.9816 54.4818Z" fill="#72BC44"/>
<path d="M124.94 58.0762C124.94 28.0609 100.607 3.7284 70.5922 3.72783C40.591 3.76192 16.2798 28.0718 16.2428 58.0715V58.0762C16.2429 88.0901 40.5756 112.425 70.5912 112.425C100.607 112.425 124.94 88.0918 124.94 58.0762ZM128.667 58.0762C128.667 90.1506 102.666 116.152 70.5912 116.152C38.5167 116.152 12.515 90.1489 12.515 58.0762V58.0669L12.5167 57.6915C12.7575 25.809 38.6573 0.0356861 70.5892 0H70.5912C102.666 1.71677e-05 128.667 26.0018 128.667 58.0762Z" fill="#010101"/>
<path d="M43.3364 83.4844C43.5063 83.7271 43.7352 83.9213 44.0005 84.0496L64.8313 93.9899C65.0688 94.1009 65.3271 94.1581 65.589 94.1581H75.5917C75.85 94.1599 76.1049 94.1026 76.3372 93.9899L97.1802 84.0496C97.442 83.9196 97.6674 83.7271 97.839 83.4913L107.45 69.9411C107.741 69.5302 107.842 69.0135 107.724 68.5245L101.735 44.408L104.015 34.8284C104.102 34.4538 104.065 34.062 103.909 33.71L100.859 26.9999C100.577 26.3827 99.9613 25.9839 99.2816 25.9804H90.0054C89.5962 25.9821 89.2009 26.1278 88.887 26.3896L84.2767 30.2856H56.8728L52.2624 26.3896C51.9503 26.1278 51.5584 25.9821 51.151 25.9804H41.8938C41.2089 25.9752 40.5865 26.3757 40.3038 26.9999L37.254 33.71C37.0927 34.0603 37.0546 34.4538 37.143 34.8284L39.43 44.415L33.4724 68.5193C33.3493 69.01 33.4464 69.5302 33.7394 69.9428L43.3381 83.4861L43.3364 83.4844ZM41.3667 50.1662L48.1687 70.0954L38.8058 68.1014L37.0043 67.7217L41.365 50.1645L41.3667 50.1662ZM99.8157 50.1662V50.2096L103.791 66.2254L104.157 67.7165L103.361 67.8847L92.9929 70.0902L99.8139 50.1662H99.8157ZM65.9323 90.921L65.0931 90.5239L64.2539 90.1199H76.9216L75.2449 90.921H65.9323ZM56.2711 59.6419C56.2711 59.5361 56.2711 59.4806 56.3821 59.4303C56.3075 59.1755 55.9902 58.9518 56.2711 58.6345C56.2711 58.5166 56.2035 58.3987 56.1775 58.2738C56.1515 58.149 56.1775 58.0502 56.2884 57.9877C56.3283 57.9513 56.3491 57.8993 56.3439 57.8456C56.3439 57.7207 56.3006 57.6028 56.2763 57.4728L56.5191 57.3618V56.8209H56.7306C56.7306 56.6908 56.7306 56.5608 56.7739 56.4169C56.8173 56.2729 56.9733 56.292 56.9664 56.2313C56.9664 56.0146 57.1588 55.8967 57.2143 55.7164C57.2698 55.536 57.3565 55.3505 57.4311 55.1702H57.4675C57.5039 55.1702 57.5178 55.3124 57.5299 55.3869C57.542 55.4615 57.5299 55.5551 57.5611 55.6418C57.575 55.725 57.5975 55.8065 57.6287 55.8846C57.6651 55.9591 57.7345 56.0146 57.7657 56.0891C57.7917 56.1689 57.809 56.2487 57.8212 56.3319C57.9044 56.344 57.9859 56.3735 58.057 56.4186C58.0986 56.4741 58.1211 56.5417 58.1246 56.611V56.8226C58.1211 56.8781 58.1211 56.9353 58.1246 56.9908H58.3795C58.4176 57.1746 58.4176 57.3653 58.3795 57.5491C58.4298 57.6479 58.6222 57.6427 58.6032 57.8092C58.5841 57.9756 58.6032 58.0328 58.5529 58.1507C58.832 58.3553 58.6951 58.6171 58.6205 58.8582C58.6829 58.9327 58.7696 58.9951 58.7696 59.0575C58.7609 59.1928 58.7349 59.3263 58.6951 59.4546C58.9118 59.7026 58.6951 59.9522 58.6396 60.2002L58.7644 60.4169C58.78 60.3094 58.8026 60.2036 58.832 60.0996C58.832 59.9938 58.8945 59.8829 59.0314 59.8517C59.0783 59.8222 59.1112 59.7754 59.1251 59.7216C59.1615 59.5222 59.2118 59.3367 59.4476 59.2864C59.51 59.1754 59.5724 59.0627 59.647 58.9379L59.8897 58.8824L60.07 58.5721L60.2937 58.6154L60.5364 58.2929L60.741 58.3605C60.8659 58.1247 61.1814 58.1993 61.3618 58.012C61.5924 58.012 61.7415 57.8317 61.9461 57.7883L62.0016 57.8508C61.8767 58.0692 61.79 58.3068 61.7415 58.553C61.6166 58.664 61.7415 58.7576 61.7415 58.8824L61.5057 59.2673L61.6427 59.4841L61.3756 59.758C61.3323 59.8014 61.3392 59.8135 61.3756 60.0129L61.2075 60.1811C61.171 60.2175 61.0965 60.2678 61.1017 60.299C61.1572 60.5972 60.8659 60.6527 60.741 60.814V60.9874C60.6301 61.1053 60.4307 61.1486 60.4237 61.3532C60.2989 61.4468 60.1758 61.5457 60.0631 61.6445C60.0475 61.6809 60.0475 61.7208 60.0631 61.7555C60.0631 61.7555 60.0995 61.7988 60.1186 61.8057C60.148 61.8092 60.1758 61.8092 60.2053 61.8057H60.7826C61.2213 61.8612 61.6548 61.9514 62.0813 62.0728C61.7796 62.2392 61.5039 62.449 61.2612 62.6935C61.0375 62.8513 60.793 62.9744 60.5347 63.0593C60.129 63.1842 59.7128 63.2691 59.2915 63.3142L59.9816 63.8552C59.3539 63.9419 58.7159 63.824 58.161 63.5205H58.0865V63.6142C58.0865 63.8066 58.1489 64.006 58.1732 64.1985C58.1818 64.2887 58.1818 64.3806 58.1732 64.4724C58.005 64.3355 58.0431 64.1621 57.9998 64.0251C57.9564 63.8881 57.9998 63.7147 57.8819 63.5535C57.3686 63.9609 56.7618 64.2366 56.1168 64.3545C56.1827 64.1967 56.3006 64.0667 56.4514 63.9887C56.526 63.8829 56.6127 63.7893 56.6942 63.6905L56.8988 63.5726C56.7618 63.5726 56.6872 63.5726 56.6248 63.6159C56.2728 63.6385 55.9209 63.6385 55.5689 63.6159C55.1233 63.576 54.695 63.4217 54.3257 63.1686C54.154 63.0732 53.9754 62.99 53.7917 62.9206C54.2615 62.6675 54.7609 62.4716 55.2759 62.3363C55.3747 62.2427 55.4874 62.3363 55.5932 62.3363C55.6989 62.3363 55.7041 62.2739 55.7111 62.1681C55.6452 62.1265 55.5758 62.0901 55.5065 62.0571C55.3816 61.9947 55.2325 61.9826 55.177 61.8213C55.177 61.7659 55.0661 61.7346 55.0036 61.7104C54.9412 61.6861 54.8302 61.6428 54.8112 61.5179C54.7921 61.3931 54.6499 61.3809 54.5563 61.3255C54.4627 61.27 54.3829 61.244 54.376 61.1139C54.369 60.9839 54.2581 60.9717 54.1766 60.9215C54.0951 60.8712 54.0084 60.8226 54.0344 60.6909C54.0292 60.6371 54.0015 60.5886 53.9599 60.5539C53.8732 60.4863 53.7795 60.4238 53.6686 60.3493C53.6686 60.2817 53.7188 60.2192 53.7553 60.1378L53.5385 59.895C53.4709 59.8204 53.3894 59.758 53.4709 59.6401C53.4848 59.6037 53.4848 59.5638 53.4709 59.5292C53.3391 59.2639 53.1623 59.0246 52.949 58.8217C52.949 58.8217 52.949 58.7784 52.9126 58.7472C52.8762 58.716 53.0062 58.7472 53.0548 58.7472C53.2108 58.8061 53.3738 58.8408 53.5385 58.8529C53.7119 58.8529 53.8558 59.0211 54.0292 58.9154L54.3344 59.0523L54.5147 58.9414L54.832 59.2205L55.0435 59.139L55.2984 59.4061L55.5151 59.3696C55.6642 59.4875 55.7267 59.7182 55.9694 59.7182C56.0318 59.7182 56.0994 59.8239 56.1428 59.8915C56.2 59.9817 56.252 60.0753 56.2988 60.1707C56.3925 60.1343 56.4358 60.084 56.4046 60.0025C56.3734 59.921 56.311 59.7234 56.2676 59.6419H56.2711ZM70.56 60.6909L80.9979 69.7295V86.8949H72.2141V86.2742L78.3451 83.1064C78.7196 82.9226 78.9606 82.5429 78.9658 82.125V77.0985C78.9658 76.4917 78.4734 75.9992 77.8665 75.9992H63.3419C62.735 75.9958 62.2391 76.4847 62.2356 77.0933C62.2356 77.0933 62.2356 77.0968 62.2356 77.1003V82.1198C62.2426 82.5377 62.4818 82.9174 62.8564 83.1012L68.9804 86.269V86.8897H60.1463V69.7053L70.5582 60.6909H70.56ZM69.6965 40.2329L61.0358 33.5488H80.1396L71.4789 40.2329C71.3645 40.3161 71.2397 40.382 71.1061 40.4323H71.0507C70.9882 40.4548 70.9241 40.4721 70.8582 40.4825H70.8218C70.7576 40.4895 70.6935 40.4895 70.6293 40.4825H70.5929C70.4351 40.4825 70.2774 40.4583 70.1265 40.408L69.9774 40.3456C69.882 40.3161 69.7884 40.2779 69.6982 40.2346L69.6965 40.2329ZM82.1717 59.7164C82.1717 59.5985 82.1717 59.5916 82.3087 59.4373C82.2584 59.2327 82.2151 59.0281 82.1665 58.8165L82.3659 58.6674V58.1143L82.6208 57.9721V57.5127L82.9 57.4381C82.9 57.2699 82.9555 57.0965 82.9867 56.9093H83.167C83.3161 56.8104 83.2727 56.6301 83.3525 56.481H83.538C83.6126 56.325 83.6317 56.1394 83.8293 56.0458C83.916 56.0094 83.9542 55.8655 84.0148 55.7718L84.2628 55.3748C84.3113 55.4858 84.3113 55.6123 84.2628 55.7233C84.216 55.888 84.2281 56.0631 84.294 56.2209C84.346 56.3596 84.3755 56.507 84.3807 56.6561C84.6165 56.7862 84.6356 56.8122 84.6234 57.0098C84.6113 57.2075 84.6234 57.2335 84.5732 57.3583L84.8038 57.4641C84.8384 57.6375 84.809 57.8178 84.7223 57.9739C84.7587 58.1039 84.9529 58.1351 84.8957 58.2964L84.7587 58.6761C84.8402 58.7576 84.939 58.8616 84.8696 59.0177L84.6841 59.3974C84.7777 59.4529 84.8454 59.5274 84.802 59.6401C84.7587 59.7528 84.7032 59.8395 84.6529 59.9453C84.783 60.1447 84.6217 60.3181 84.5905 60.5036C84.5905 60.5036 84.5471 60.5348 84.535 60.5591C84.5229 60.5834 84.424 60.6649 84.535 60.7082C84.646 60.7515 84.6408 60.6649 84.6651 60.6024C84.6893 60.54 84.6651 60.6024 84.6651 60.566C84.6893 60.5331 84.7188 60.5036 84.7517 60.4793C84.9217 60.4169 85.0552 60.2834 85.1176 60.1135V60.0771C85.3343 59.9592 85.5285 59.8031 85.6898 59.6176H85.7262C85.9256 59.6852 86.0053 59.5309 86.1059 59.4182L86.1735 59.3627L86.3781 59.4303L86.6833 59.1633L86.8757 59.2691C87.0387 59.1494 87.2399 59.0922 87.441 59.1078C87.7045 59.0697 87.9629 59.0021 88.2108 58.9032C88.2455 58.9015 88.2819 58.9015 88.3166 58.9032C88.2646 58.9726 88.2091 59.0402 88.1484 59.1026C87.9733 59.302 87.8294 59.5292 87.7253 59.7736C87.7253 59.817 87.7253 59.8985 87.7566 59.9782L87.4653 60.3198L87.5468 60.5435L87.1809 60.8226V61.0463C87.1116 61.0879 87.0457 61.133 86.9815 61.1833C86.9312 61.2266 86.8515 61.2769 86.8515 61.3255C86.8515 61.4746 86.7405 61.511 86.6399 61.5682C86.5411 61.6237 86.4093 61.6618 86.392 61.8231C86.392 61.8595 86.3174 61.8976 86.2741 61.9219C86.1805 61.9774 86.0938 62.0467 86.0192 62.1265C85.9013 62.2236 85.7661 62.2999 85.6222 62.3502C85.584 62.3849 85.5632 62.4351 85.5667 62.4872C85.5927 62.5322 85.6395 62.5634 85.6915 62.5686C86.0192 62.5634 86.3452 62.6397 86.6365 62.7923C86.8965 62.9172 87.1705 63.0229 87.4809 63.1582C87.2971 63.2084 87.1237 63.2882 86.9659 63.394C86.8289 63.5049 86.6764 63.5968 86.5116 63.6679C86.3018 63.7824 86.0678 63.8482 85.8285 63.8604C85.5268 63.9228 85.2164 63.9228 84.9147 63.8604C84.7916 63.8448 84.6651 63.8448 84.542 63.8604C84.7032 64.1274 84.9823 64.2765 85.076 64.5747C84.4223 64.4794 83.8103 64.1985 83.3109 63.7668C83.2589 63.9159 83.2415 64.0754 83.2606 64.2332C83.2693 64.41 83.2519 64.5886 83.2103 64.762C83.1583 64.4204 83.1358 64.0754 83.1427 63.7303C83.0057 63.817 82.8618 63.8951 82.7144 63.9609C82.5584 64.0234 82.3954 64.0719 82.2307 64.1031C82.0816 64.1413 81.9307 64.1708 81.7764 64.1898C81.6082 64.1898 81.4418 64.1898 81.2736 64.2332C81.2233 64.1465 81.2736 64.1083 81.3412 64.0719C81.5215 63.9159 81.714 63.7737 81.9186 63.6176C81.9186 63.6176 81.8631 63.5743 81.8319 63.5743C81.1765 63.5795 80.5315 63.4044 79.968 63.0715C79.8466 63.0108 79.7408 62.9241 79.6576 62.8166C79.5068 62.6328 79.3178 62.4854 79.1045 62.3814C79.3715 62.2999 79.6143 62.2444 79.8431 62.1646C80.0252 62.1109 80.2125 62.0814 80.4015 62.078C80.5939 62.0346 80.795 62.0467 80.9788 62.1144C80.9788 62.1144 81.0898 62.078 81.1037 62.0398C81.1158 61.9895 81.1037 61.9358 81.0673 61.8976C80.9996 61.8491 80.9286 61.8023 80.8557 61.7607C80.8002 61.7173 80.7257 61.667 80.7135 61.6115C80.6945 61.4971 80.613 61.4052 80.502 61.3688C80.3408 61.3133 80.4396 61.133 80.3408 61.0515C80.2419 60.9735 80.1466 60.8903 80.0547 60.8036C79.9992 60.729 80.0547 60.6042 79.9732 60.5296C79.8917 60.455 79.8241 60.4048 79.7374 60.3302C79.7651 60.2522 79.7981 60.1742 79.8362 60.0996L79.4825 59.8014L79.6125 59.5708C79.5501 59.4719 79.4756 59.3662 79.4131 59.2535C79.401 59.2032 79.401 59.1494 79.4131 59.0974C79.4131 59.0471 79.4756 58.9917 79.4686 58.9553C79.4166 58.7663 79.3507 58.5807 79.2692 58.4021C79.212 58.2894 79.1461 58.1802 79.0698 58.0796C79.1444 57.986 79.2068 58.0796 79.2502 58.0796C79.5137 58.2322 79.7946 58.3501 80.0894 58.4281C80.1674 58.4559 80.2385 58.4975 80.3009 58.553C80.3997 58.683 80.5003 58.553 80.6182 58.553L80.8488 58.82H81.0846L81.1904 58.9882C81.1904 58.9882 81.2337 59.0697 81.2649 59.087C81.2961 59.1044 81.551 59.087 81.5996 59.2916C81.6464 59.4269 81.7539 59.5309 81.8908 59.5708C81.9463 59.5708 81.9775 59.6765 82.0018 59.7442C82.0261 59.8118 82.0833 59.9488 82.1319 60.0979C82.1873 60.0303 82.2428 59.999 82.2428 59.9678C82.2428 59.9366 82.1683 59.8118 82.1613 59.7199L82.1717 59.7164ZM88.2542 73.3828L87.9057 74.1527L84.2767 82.08V71.5189L88.2524 73.3828H88.2542ZM56.8988 71.5189V82.08L52.923 73.3828L56.8988 71.5189ZM54.9724 85.6899L45.7586 81.2858L40.6263 74.0538L38.7624 71.4201L49.5038 73.7071L54.9707 85.6916L54.9724 85.6899ZM89.0986 84.3045L86.203 85.6899L91.6821 73.7053L102.43 71.4444L95.429 81.3101L89.0986 84.3045ZM94.6036 55.3731L87.6889 51.0245L83.5762 48.4584L83.2225 48.2347C83.0473 48.1255 82.8445 48.0682 82.6382 48.0665C82.4145 48.0717 82.1995 48.1428 82.0174 48.2711L72.2453 55.354V44.8727C72.2488 44.1774 72.5713 43.522 73.1209 43.0955L84.8939 33.9874L98.1893 44.9594L94.6054 55.3713L94.6036 55.3731ZM57.8056 35.1439L68.1117 43.1215C68.644 43.5324 68.9544 44.1688 68.9509 44.8432V55.3367L59.5637 48.5086L59.2222 48.2538C59.1303 48.1861 59.0262 48.1359 58.917 48.1047H58.8112C58.7384 48.0995 58.6656 48.0995 58.5945 48.1047C58.5303 48.0995 58.4662 48.0995 58.402 48.1047H58.3032C58.1974 48.1324 58.0969 48.1757 58.005 48.2347L57.6513 48.4584L48.5623 54.1732L48.382 54.2842L46.6238 55.3904L45.6615 52.6821L43.0208 44.9594L56.3162 33.9892L57.8073 35.1439H57.8056Z" fill="#010101"/>
<path d="M19.4869 127.06C20.1562 127.736 20.4995 128.671 20.425 129.619C20.5064 130.564 20.1683 131.499 19.4991 132.173C18.8783 132.72 17.8519 132.987 16.4301 132.987H11.5163V135.974H8V126.233H16.418C17.8415 126.233 18.8662 126.512 19.4869 127.06ZM16.5532 129.701C16.5775 129.415 16.47 129.134 16.2619 128.936C16.0053 128.754 15.6932 128.667 15.3794 128.693H11.5146V130.706H15.3794C16.1614 130.706 16.5532 130.372 16.5532 129.701Z" fill="#010101"/>
<path d="M34.0237 126.233V135.974H30.5005V132.328H24.9088V136H21.4046V126.233H24.9209V129.725H30.5126V126.233H34.0237Z" fill="#010101"/>
<path d="M44.6906 134.559H39.2167L38.5214 135.976H34.6635L39.6328 126.235H44.323L49.2368 135.976H45.3668L44.6888 134.559H44.6906ZM43.541 132.21L41.9874 129.016H41.9059L40.3472 132.21H43.541Z" fill="#010101"/>
<path d="M59.9677 128.992H55.5567V135.974H52.0404V128.992H47.6225V126.233H59.9677V128.992Z" fill="#010101"/>
<path d="M77.3013 127.06C77.9671 127.738 78.3052 128.673 78.2272 129.619C78.3087 130.564 77.9706 131.499 77.3013 132.173C76.6806 132.72 75.661 132.987 74.2323 132.987H69.3376V135.974H65.8144V126.233H74.2323C75.661 126.233 76.6806 126.512 77.3013 127.06ZM74.3693 129.701C74.3918 129.416 74.2878 129.137 74.0832 128.936C73.8249 128.756 73.5093 128.669 73.1955 128.693H69.3376V130.706H73.1955C73.9774 130.706 74.3693 130.372 74.3693 129.701Z" fill="#010101"/>
<path d="M87.1046 134.559H81.6377L80.9424 135.976H77.0845L82.0538 126.235H86.744L91.6526 135.976H87.7947L87.1046 134.559ZM85.962 132.21L84.4084 129.016H84.3217L82.7682 132.21H85.962Z" fill="#010101"/>
<path d="M104.915 126.233V135.974H100.827L95.7133 130.146H95.6266V135.974H92.2837V126.233H96.4329L101.477 131.979H101.576V126.233H104.915Z" fill="#010101"/>
<path d="M117.72 127.358C118.618 128.116 119.07 129.359 119.074 131.086C119.077 132.813 118.628 134.056 117.725 134.814C116.822 135.572 115.445 135.951 113.593 135.951H106.269V126.235H113.612C115.447 126.235 116.816 126.609 117.718 127.36L117.72 127.358ZM109.787 128.794V133.378H112.664C113.343 133.427 114.02 133.233 114.571 132.832C115.431 131.828 115.431 130.346 114.571 129.34C114.018 128.941 113.343 128.747 112.664 128.794H109.787Z" fill="#010101"/>
<path d="M128.636 134.559H123.169L122.474 135.976H118.616L123.585 126.235H128.275L133.184 135.976H129.326L128.636 134.559ZM127.492 132.21L125.938 129.016H125.852L124.298 132.21H127.492Z" fill="#010101"/>
</svg>
