<?xml version="1.0" encoding="UTF-8"?>
<svg id="Layer_1" data-name="Layer 1" xmlns="http://www.w3.org/2000/svg" viewBox="0 0 669.51 450">
  <g>
    <polygon points="324.88 281.71 332.93 357.07 482.2 365.85 332.93 373.9 324.88 450 316.1 373.9 166.83 365.85 316.1 357.07 324.88 281.71"/>
    <g>
      <path d="M65.85,122.93v78.29l-19.76,19.76,19.76,19.02v87.07l-22.68,21.95H0V100.24h43.17l22.68,22.68ZM49.02,202.68v-77.56l-11.71-11.71h-20.49v100.24h21.22l10.98-10.98ZM49.02,239.27l-11.71-11.71h-20.49v109.76h21.22l11.71-11.71v-86.34h-.73Z"/>
      <path d="M136.1,65.12l24.88,248.78h-16.83l-5.12-49.76h-24.15l-5.12,49.76h-16.83l24.88-248.78h18.29ZM117.07,250.98h21.22l-7.32-68.78-3.66-54.15-3.66,54.15-6.59,68.78Z"/>
      <path d="M242.2,34.39h16.83v248.78h-16.83l-35.12-181.46v181.46h-16.83V34.39h16.83l35.12,181.46V34.39Z"/>
      <path d="M361.46,75.37h-16.83V24.88l-11.71-11.71h-9.51l-11.71,11.71v199.76l11.71,11.71h10.24l11.71-11.71v-95.12h-13.9v-13.17h30.73v110.49l-22.68,21.95h-21.22l-21.95-21.95V21.95L318.29,0h21.22l22.68,21.95v53.41h-.73Z"/>
      <path d="M453.66,46.83h-39.51v104.63h29.27v13.17h-29.27v104.63h39.51v13.17h-56.34V33.66h56.34v13.17Z"/>
      <path d="M526.83,215.12l26.34,98.78h-16.83l-26.34-98.78h-10.24v98.78h-16.83V65.12h43.9l22.68,21.95v105.37l-22.68,22.68ZM500.49,201.95h21.22l11.71-11.71v-100.98l-11.71-11.71h-21.22v124.39Z"/>
      <path d="M649.02,180.73h-16.83v-54.88l-11.71-11.71h-9.51l-10.98,11.71v54.88l49.02,84.88v62.2l-22.68,21.95h-21.22l-21.95-21.95v-60h16.83v57.8l11.71,11.71h10.24l11.71-11.71v-57.8l-50.49-84.88v-60l21.95-21.95h21.22l22.68,21.95v57.8Z"/>
    </g>
  </g>
  <g>
    <path d="M648.29,98.78h8.05v1.46h-2.93v8.05h-2.2v-8.05h-2.93v-1.46Z"/>
    <path d="M657.8,109.02v-10.24h2.93l2.93,7.32,2.93-7.32h2.93v10.24h-2.2v-7.32l-2.93,7.32h-1.46l-2.93-7.32v7.32h-2.2Z"/>
  </g>
</svg>