<?xml version="1.0" encoding="UTF-8"?>
<svg id="Layer_1" xmlns="http://www.w3.org/2000/svg" version="1.1" viewBox="0 0 189.6 138.3">
  <!-- Generator: Adobe Illustrator 29.1.0, SVG Export Plug-In . SVG Version: 2.1.0 Build 142)  -->
  <defs>
    <style>
      .st0 {
        fill: #594ef3;
      }

      .st1 {
        fill: #f6df7c;
      }
    </style>
  </defs>
  <polygon class="st0" points="155.2 5.6 156.3 5.6 156.3 .9 158 .9 158 0 153.6 0 153.6 .9 155.2 .9 155.2 5.6"/>
  <polygon class="st0" points="159.9 1.7 161.5 4 161.8 4 163.5 1.7 163.5 5.6 164.5 5.6 164.5 0 163.6 0 161.7 2.6 159.7 0 158.8 0 158.8 5.6 159.9 5.6 159.9 1.7"/>
  <path class="st0" d="M146.5,0H43.1L0,74.7h18.6v63.6h10.4c.1-.2.2-.4.3-.6,1.8-3,4.8-5.8,8.2-6.6,2.6-.6,5.6.3,7.2,2.4,1.8-1.7,4.1-3.1,6.7-3.3,2.2-.1,4.5.7,5.9,2.4,1.5-2.1,3.6-3.9,6.4-4,1.5,0,2.9.5,4,1.5.7.7,1.2,1.5,1.7,2.2,1.9-2.9,5.8-3.9,9.1-3,4.3,1.2,7,5,8.7,8.9h83.7v-63.6h18.6L146.5,0ZM124.9,45.5h23.3v8.9s-11.8,0-11.8,0v.8h11.3v3.2h-11.3v.9h11.8v8.6h-23.3v-22.4ZM90,45.5l6.4,22.4h-11.6l-.5-2.9h-5.7l-.4,2.9h-10.7l5.6-22.4h17ZM40.9,55.2c0-.5.2-1.2.4-2,.2-.8.5-1.6.9-2.3.4-.7.9-1.4,1.7-2.2.7-.8,1.6-1.4,2.6-1.9,1-.5,2.2-1,3.7-1.3,1.5-.3,3.2-.5,5-.5s3.9.3,5.6.8c1.7.6,3.1,1.3,4.3,2.3,1.2,1,2,2.2,2.6,3.7.6,1.5.7,3.1.5,4.9h-12c0-.9,0-1.6-.3-1.9-.2-.4-.5-.5-.8-.5s-.7.2-.9.7c-.2.5-.4,1.1-.4,1.8s.1,1.3.4,1.8c.3.5.6.7.9.7s.4,0,.5,0c.1,0,.3-.2.4-.5.1-.2.2-.6.2-1h12c0,.5.1,1,.1,1.5,0,.5,0,1-.1,1.6,0,.6-.2,1.1-.4,1.6-.2.5-.5,1-.8,1.6-.4.5-.8,1-1.3,1.4-.5.4-1.1.9-1.8,1.2-.7.4-1.5.7-2.4,1s-1.9.5-3,.6c-1.1.2-2.4.2-3.7.2-4.3,0-7.7-1.1-10.2-3.2-2.5-2.1-3.8-5-3.8-8.5s0-1,0-1.5ZM54.9,92.5h-11.8v-7.8h-2v7.8h-11.8v-22.4h11.8v7h2v-7h11.8v22.4ZM84.9,82.7c0,.5-.2,1.2-.5,2s-.6,1.6-1,2.3c-.4.7-1,1.4-1.7,2.2-.8.8-1.6,1.4-2.7,1.9-1,.5-2.3,1-3.9,1.3-1.6.3-3.3.5-5.2.5-2.9,0-5.4-.5-7.6-1.4-2.2-1-3.9-2.3-5.1-4.1-1.2-1.8-1.8-3.8-1.8-6.2s0-1,0-1.5c0-.5.2-1.2.5-2,.2-.8.6-1.6,1-2.3.4-.7,1-1.4,1.7-2.2.8-.8,1.6-1.4,2.7-1.9,1-.5,2.3-1,3.8-1.3,1.5-.3,3.3-.5,5.2-.5s4.1.3,5.9.9c1.8.6,3.3,1.4,4.6,2.4,1.3,1,2.3,2.3,3,3.7.7,1.5,1.1,3,1.1,4.7s0,1,0,1.5ZM109.5,83.3c0,3.4-1,6-3,7.6s-5.1,2.4-9.2,2.4-7-.8-8.9-2.5c-2-1.7-2.9-4.2-2.9-7.7v-13.1h11.6v13.5c0,1.2.2,1.8.6,1.8s.6-.6.6-1.8v-13.5h11.4v13.2ZM108.6,61.5v6.4h-11.9v-22.4h11.8v5.6l1.9-5.6h14l-6.8,9.4c0,0,.2.1.4.2.2.1.5.4,1,.7.5.4.9.8,1.4,1.3s.9,1.1,1.4,1.8c.5.8.9,1.6,1.3,2.4.3.8.6,1.8.8,3,.2,1.2.3,2.4.2,3.6h-13.5c0-.1,0-.3,0-.5,0-.2,0-.6-.1-1.3,0-.6-.2-1.2-.3-1.7-.1-.5-.3-1.1-.6-1.6-.3-.6-.6-1-1-1.3ZM132.9,90.8c-2.3,1.5-5.5,2.2-9.4,2.2s-7.2-.7-9.5-2c-1.2-.7-2.2-1.7-2.9-2.9-.7-1.2-1.1-2.6-1.1-4v-1.9s11.4,0,11.4,0v.9c0,.2,0,.4.2.5.2.2.4.2.6.2s.4,0,.6-.2c.2-.1.2-.3.3-.5,0-.4,0-.7-.3-.9-.2-.2-.5-.3-.7-.4h-.4c-1.8,0-3.3-.2-4.7-.4-1.3-.2-2.4-.4-3.1-.7-.8-.3-1.4-.6-1.8-1-.5-.4-.8-.8-.9-1.2-.2-.4-.2-.8-.2-1.3,0-1.1.2-2.1.7-2.9.5-.9,1.1-1.6,1.9-2.2s1.7-1.1,2.7-1.4c1.1-.4,2.1-.7,3.3-.8s2.3-.3,3.5-.3c3.9,0,7,.6,9.3,1.8,2.3,1.2,3.5,2.9,3.7,5.1v2.6s-11.5,0-11.5,0c0-.7,0-1.2-.2-1.5-.2-.3-.4-.5-.7-.5s-.4,0-.6.3c-.1.2-.2.4-.2.6h0c0,.3,0,.6,0,.8,0,.2.2.3.3.4.1,0,.2.1.3.2.1,0,.2,0,.3,0h.1c1.6.1,2.9.2,3.9.3,1,0,2,.2,3.1.4,1.1.2,1.9.4,2.5.6.6.2,1.1.5,1.7.9.5.4.9.8,1.1,1.4.2.5.3,1.2.3,1.9,0,2.5-1.2,4.5-3.5,6ZM148.7,79.8h11.2v3.2h-11.3v.9h11.8v8.6h-23.3v-22.4h23.3v8.9s-11.8,0-11.8,0v.8Z"/>
  <path class="st0" d="M70.3,78.7c-.4,0-.7.2-.9.7-.3.5-.4,1.1-.4,1.8s.1,1.3.4,1.8c.3.5.6.7.9.7s.7-.2.9-.7c.3-.5.4-1.1.4-1.8s-.1-1.3-.4-1.8c-.3-.5-.6-.7-.9-.7Z"/>
  <polygon class="st0" points="81.7 55.6 81.2 55.6 80.5 57.4 82.4 57.4 81.7 55.6"/>
  <path class="st1" d="M44.6,65.2c2.5,2.1,5.9,3.2,10.2,3.2s2.6,0,3.7-.2c1.1-.2,2.1-.4,3-.6s1.7-.6,2.4-1c.7-.4,1.3-.8,1.8-1.2.5-.4.9-.9,1.3-1.4.4-.5.6-1,.8-1.6.2-.5.3-1.1.4-1.6,0-.6.1-1.1.1-1.6,0-.5,0-1-.1-1.5h-12c0,.4,0,.8-.2,1-.1.2-.2.4-.4.5-.1,0-.3,0-.5,0-.4,0-.7-.2-.9-.7-.2-.5-.4-1.1-.4-1.8s.1-1.3.4-1.8c.3-.5.6-.7.9-.7s.6.2.8.5c.2.4.3,1,.3,1.9h12c.2-1.8,0-3.4-.5-4.9-.6-1.5-1.4-2.7-2.6-3.7-1.2-1-2.6-1.8-4.3-2.3-1.7-.6-3.6-.8-5.6-.8s-3.5.2-5,.5c-1.5.3-2.7.8-3.7,1.3-1,.5-1.8,1.2-2.6,1.9-.7.8-1.3,1.5-1.7,2.2-.4.7-.7,1.5-.9,2.3-.2.8-.4,1.5-.4,2,0,.5,0,1,0,1.5,0,3.5,1.3,6.4,3.8,8.5Z"/>
  <path class="st1" d="M78.1,67.9l.4-2.9h5.7l.5,2.9h11.6l-6.4-22.4h-17l-5.6,22.4h10.7ZM81.2,55.6h.5l.7,1.9h-1.9l.7-1.9Z"/>
  <path class="st1" d="M110.5,66.1c0,.6.1,1,.1,1.3,0,.2,0,.4,0,.5h13.5c0-1.3,0-2.5-.2-3.6-.2-1.2-.5-2.2-.8-3-.3-.8-.8-1.6-1.3-2.4-.5-.8-1-1.4-1.4-1.8s-.9-.9-1.4-1.3c-.5-.4-.8-.6-1-.7-.2-.1-.3-.2-.4-.2l6.8-9.4h-14l-1.9,5.6v-5.6h-11.8v22.4h11.8v-6.4c.5.3.8.7,1.1,1.3.3.6.5,1.1.6,1.6.1.5.2,1.1.3,1.7Z"/>
  <polygon class="st1" points="148.2 59.3 136.4 59.3 136.4 58.4 147.6 58.4 147.7 55.2 136.4 55.2 136.4 54.4 148.2 54.4 148.2 45.5 124.9 45.5 124.9 67.9 148.2 67.9 148.2 59.3"/>
  <polygon class="st1" points="43.1 77.1 41 77.1 41 70.1 29.3 70.1 29.3 92.5 41 92.5 41 84.7 43.1 84.7 43.1 92.5 54.9 92.5 54.9 70.1 43.1 70.1 43.1 77.1"/>
  <path class="st1" d="M80.9,72.7c-1.3-1-2.8-1.8-4.6-2.4-1.8-.6-3.8-.9-5.9-.9s-3.6.2-5.2.5c-1.6.3-2.8.8-3.8,1.3-1,.5-1.9,1.2-2.7,1.9-.8.8-1.3,1.5-1.7,2.2-.4.7-.7,1.5-1,2.3-.2.8-.4,1.5-.5,2,0,.5,0,1,0,1.5,0,2.3.6,4.4,1.8,6.2,1.2,1.8,2.9,3.1,5.1,4.1,2.2,1,4.7,1.4,7.6,1.4s3.6-.2,5.2-.5c1.6-.3,2.8-.8,3.9-1.3,1-.5,1.9-1.2,2.7-1.9.8-.8,1.3-1.5,1.7-2.2.4-.7.7-1.5,1-2.3s.4-1.5.5-2c0-.5,0-1,0-1.5,0-1.7-.4-3.3-1.1-4.7-.7-1.5-1.7-2.7-3-3.7ZM71.2,82.9c-.3.5-.6.7-.9.7s-.7-.2-.9-.7c-.3-.5-.4-1.1-.4-1.8s.1-1.3.4-1.8c.3-.5.6-.7.9-.7s.7.2.9.7c.3.5.4,1.1.4,1.8s-.1,1.3-.4,1.8Z"/>
  <path class="st1" d="M98.2,83.6c0,1.2-.2,1.8-.6,1.8s-.6-.6-.6-1.8v-13.5h-11.6v13.1c0,3.4,1,6,2.9,7.7,2,1.7,4.9,2.5,8.9,2.5s7.3-.8,9.2-2.4,3-4.2,3-7.6v-13.2h-11.4v13.5Z"/>
  <path class="st1" d="M135,81.6c-.5-.4-1.1-.7-1.7-.9-.6-.2-1.4-.4-2.5-.6-1.1-.2-2.1-.3-3.1-.4-1,0-2.3-.2-3.9-.3h-.1c0,0-.2,0-.3,0-.1,0-.2-.1-.3-.2-.1,0-.2-.2-.3-.4,0-.2-.1-.4,0-.7h0c0-.3,0-.5.2-.7.1-.2.3-.3.6-.3s.5.2.7.5c.2.3.2.8.2,1.5h11.6v-2.6c-.2-2.2-1.5-3.9-3.7-5.1-2.3-1.2-5.4-1.8-9.3-1.8s-2.4,0-3.5.3-2.2.4-3.3.8c-1.1.4-2,.9-2.7,1.4s-1.4,1.3-1.9,2.2c-.5.9-.7,1.9-.7,2.9s0,.9.2,1.3c.2.4.5.8.9,1.2.5.4,1.1.8,1.8,1,.8.3,1.8.5,3.1.7,1.3.2,2.9.3,4.7.3h.4c.2,0,.5.2.7.4.2.2.3.5.3.9,0,.2-.1.4-.3.5-.2.1-.3.2-.6.2s-.4,0-.6-.2c-.2-.2-.2-.3-.2-.5v-.9h-11.4v1.9c0,1.4.4,2.7,1.1,4,.7,1.2,1.7,2.2,2.9,2.9,2.3,1.4,5.5,2,9.5,2s7.1-.7,9.4-2.2c2.3-1.5,3.5-3.5,3.5-6s-.1-1.3-.3-1.9c-.2-.5-.6-1-1.1-1.4Z"/>
  <polygon class="st1" points="160.4 70.1 137.1 70.1 137.1 92.5 160.4 92.5 160.4 83.9 148.6 83.9 148.6 83 159.9 83 159.9 79.8 148.7 79.8 148.6 79 160.4 79 160.4 70.1"/>
</svg>