<?xml version="1.0" encoding="UTF-8"?>
<svg id="Layer_2" data-name="Layer 2" xmlns="http://www.w3.org/2000/svg" viewBox="0 0 754.87 78.51">
  <g id="Layer_1-2" data-name="Layer 1">
    <g>
      <path d="M34.28.03H0v78.42h34.28c18.79,0,34.02-15.23,34.02-34.02v-10.38C68.3,15.26,53.07.03,34.28.03ZM56.92,44.43c0,11.61-9.41,21.02-21.03,21.02H13V13.03h22.89c11.62,0,21.03,9.41,21.03,21.02v10.38Z"/>
      <path d="M123.91.43l-44.06,77.49h88.12L123.91.43ZM123.91,24.71l23.44,41.21h-46.87l23.43-41.21Z"/>
      <path d="M549.47.43l-44.06,77.49h88.12L549.47.43ZM549.47,24.71l23.44,41.21h-46.87l23.43-41.21Z"/>
      <polygon points="394.06 .48 394.06 12.89 371.17 12.89 371.17 77.88 358.76 77.88 358.76 12.89 335.87 12.89 335.87 .48 394.06 .48"/>
      <polygon points="754.87 .48 754.87 12.89 731.98 12.89 731.98 77.88 719.57 77.88 719.57 12.89 696.68 12.89 696.68 .48 754.87 .48"/>
      <path d="M663.86,52.51l10.79,7.24c-6.9,11.14-19.24,18.57-33.29,18.57-21.59,0-39.16-17.57-39.16-39.16S619.77,0,641.36,0c14.07,0,26.42,7.45,33.32,18.62l-10.9,7.06c-4.57-7.6-12.9-12.68-22.42-12.68-14.44,0-26.16,11.71-26.16,26.16s11.72,26.16,26.16,26.16c9.57,0,17.94-5.14,22.5-12.81Z"/>
      <path d="M415.79,32.37h39.73c5.09,0,9.54-3.83,9.88-8.9.37-5.57-4.05-10.22-9.54-10.22h-39.74V.25h39.74c12.46,0,22.56,10.1,22.56,22.56v.3c0,12.46-10.1,22.56-22.56,22.56h-1.65l24.85,32.37h-15.47l-21.71-28.3c-1.97-2.57-5.03-4.07-8.26-4.07h-5.27v31.71h-12.55v-45.01Z"/>
      <path d="M313.26,55.21v.21c0,12.49-10.12,22.62-22.61,22.62h-34.43v-13h34.43c5.31,0,9.61-4.31,9.61-9.62v-.21c0-4.8-3.5-8.77-8.08-9.5-.03,0-.05-.01-.08-.01-.47-.07-.96-.11-1.45-.11h-17.31s-.09-.01-.13-.01c-7.3-.73-13.57-4.93-17.14-10.92-2.02-3.39-3.18-7.35-3.18-11.58v-.21c0-12.49,10.12-22.62,22.61-22.62h34.43v13h-34.43c-5.31,0-9.61,4.31-9.61,9.62v.21c0,4.8,3.5,8.77,8.08,9.5.03,0,.05.01.08.01h16.6c.73,0,1.45.03,2.16.11.05,0,.09,0,.13.01,7.3.73,13.57,4.93,17.14,10.92,2.02,3.39,3.18,7.35,3.18,11.58Z"/>
      <path d="M292.1,45.7h-16.6c-.73,0-1.45-.03-2.16-.11h17.31c.49,0,.98.04,1.45.11Z"/>
      <path d="M232.95,55.17v1.32c0,12.16-9.86,22.02-22.02,22.02h-17.08c-2.16-3.8-4.68-8.22-7.39-13h24.47c4.98,0,9.02-4.04,9.02-9.02v-1.32c0-4.98-4.04-9.02-9.02-9.02h-35.48s-.05-.08-.07-.12c-2.47-4.34-4.94-8.68-7.33-12.88-.02-.04-.04-.08-.06-.12h40.34c4.98,0,9.01-4.03,9.01-9.01v-1.33c0-4.98-4.03-9.02-9.01-9.02h-51.36c-3.48-6.12-6.14-10.79-7.41-13h58.77c12.16,0,22.01,9.86,22.01,22.02v1.33c0,5.45-1.98,10.43-5.26,14.28,4.81,4.04,7.87,10.1,7.87,16.87Z"/>
      <path d="M556.58,54.22c0,4.57-4.28,6.9-7.11,6.9s-7.11-2.33-7.11-6.9c0-6.77,7.11-9.39,7.11-16.33,0,6.94,7.11,9.56,7.11,16.33Z"/>
      <path d="M131.15,54.22c0,4.57-4.28,6.9-7.11,6.9s-7.11-2.33-7.11-6.9c0-6.77,7.11-9.39,7.11-16.33,0,6.94,7.11,9.56,7.11,16.33Z"/>
    </g>
  </g>
</svg>