<?xml version="1.0" encoding="UTF-8"?>
<svg id="Layer_1" data-name="Layer 1" xmlns="http://www.w3.org/2000/svg" viewBox="0 0 245.39 144">
  <g id="_1FqS2h" data-name="1FqS2h">
    <g>
      <path d="M52.31,103.5c.03-1.65,1.06-4.68,2.27-7.66,1.99-4.89,4-9.77,6.03-14.64.4-.95.83-1.91,1.42-2.75.65-.93,1.65-1.29,2.74-.73,1,.51,1.57,1.4,1.44,2.53-.07.64-.37,1.26-.62,1.87-2.17,5.32-4.36,10.64-6.54,15.96-.93,2.27-1.8,4.55-1.82,7.07-.03,4.62,3.51,7.06,7.83,5.34,2.53-1.01,4.62-2.7,6.09-4.9,1.92-2.89,3.76-5.88,5.17-9.04,2.34-5.25,4.3-10.66,6.44-16,.28-.69.56-1.43,1.02-2,.69-.87,1.63-1.29,2.75-.74,1.03.51,1.62,1.35,1.43,2.51-.13.83-.44,1.64-.75,2.42-2.45,6.12-4.97,12.22-7.35,18.37-.71,1.83-1.31,3.77-1.49,5.7-.31,3.37,1.84,4.93,5.03,3.74,1.38-.52,2.76-1.29,3.86-2.27,3.67-3.25,6.29-7.2,7.66-11.97,1.99-6.92,5.5-12.79,11.82-16.65,2.38-1.45,4.97-2.24,7.76-2.35,3.69-.14,6.84,1.02,9.37,3.78,1.18,1.28,1.26,1.24,1.97-.41.3-.69.54-1.41.9-2.07.56-1.05,1.47-1.42,2.62-1.07,1.27.39,2.07,1.57,1.85,2.8-.1.55-.36,1.07-.56,1.59-3.84,10.03-7.68,20.06-11.52,30.1-.13.35-.38.71-.35,1.05.02.25.43.66.63.64.45-.04.88-.3,1.31-.48,3.55-1.5,6.49-3.81,8.89-6.81,2.9-3.64,5.12-7.62,6.63-12.06,2.12-6.23,5.62-11.5,11.48-14.89,2.67-1.55,5.55-2.3,8.66-2.17,3.39.14,6.19,1.46,8.39,4.05,1.14,1.33,1.14,1.32,1.88-.35.3-.69.54-1.42.93-2.06.79-1.29,1.96-1.66,3.11-1.08,1.14.58,1.61,1.71,1.21,3.09-.24.81-.57,1.6-.89,2.38-2.7,6.63-5.43,13.26-8.1,19.9-.49,1.22-.93,2.49-1.12,3.78-.4,2.64,1.04,4.14,3.73,4.01,2.26-.11,4.15-1.16,5.87-2.54,3.32-2.66,5.58-6.14,7.17-10.01,1.97-4.79,3.72-9.68,5.65-14.49.53-1.33.43-2.11-.81-3.08-2.9-2.29-3.27-5.1-1.38-7.96,1.86-2.81,5.26-2.99,7.38-.35,1.1,1.36,1.67,2.95,1.58,4.72-.06,1.15.46,1.71,1.55,1.97,1.19.28,2.38.61,3.51,1.07,1.47.6,2.99,1.2,4.31,2.07,3.17,2.11,4.08,4.62,3.07,8.31-1.22,4.45-2.62,8.86-3.86,13.31-.35,1.25-.59,2.6-.55,3.89.07,2.54,1.66,3.51,4.03,2.6,2.45-.94,4.4-2.62,5.88-4.71,1.46-2.07,2.64-4.34,3.94-6.52.43-.73.78-1.53,1.33-2.15.74-.85,1.74-1.15,2.8-.52.97.58,1.49,1.43,1.26,2.6-.07.37-.18.74-.34,1.08-2.17,4.65-4.7,9.08-8.79,12.31-1.59,1.25-3.49,2.29-5.42,2.89-4.48,1.4-8.29-1.01-9.42-5.59-.66-2.67-.15-5.26.58-7.8,1.12-3.89,2.33-7.76,3.52-11.64.78-2.53.52-3.37-1.86-4.5-1.69-.81-3.52-1.31-5.29-1.98-1.27-.48-1.85.03-2.29,1.24-1.8,4.86-3.62,9.71-5.56,14.51-2.08,5.14-4.99,9.77-9.56,13.06-1.65,1.19-3.58,2.12-5.53,2.72-3.7,1.14-7.13.51-9.74-2.61-.87-1.04-1.49-1.08-2.55-.27-2.93,2.24-6.26,3.42-9.98,3.4-4.79-.04-8.31-2.08-10.38-6.47-.79-1.68-.85-1.7-1.91-.38-3.88,4.88-8.87,8.16-14.81,9.9-2.15.63-3.2,1.82-3.91,3.9-1.76,5.18-4,10.17-7.36,14.57-1.92,2.51-4.18,4.58-7.19,5.75-1.92.74-3.89.81-5.84.39-2.97-.64-5.33-3.52-5.59-6.73-.35-4.3,1.15-7.97,4.05-11.08,3.29-3.52,7.42-5.77,11.84-7.51,1.75-.69,3.56-1.23,5.34-1.85.62-.22,1.27-.42,1.79-.79.32-.22.41-.76.6-1.16-.42-.04-.86-.18-1.26-.11-1.94.31-3.87.92-5.81.96-4.49.09-8-1.8-10.23-5.83-.88-1.58-.83-1.48-2.22-.22-1.94,1.76-3.92,3.51-6.09,4.97-1.2.81-2.78,1.2-4.24,1.43-3.35.52-6.11-.66-8.12-3.45-1.11-1.54-1.13-1.56-2.65-.38-2.12,1.64-4.45,2.85-7.07,3.43-7.33,1.61-12.75-2.8-12.66-11.92ZM139.41,102.48c-.21,6.95,3.8,10.05,9.74,8.21,3.69-1.14,6.53-3.48,8.15-6.94,1.83-3.91,3.45-7.94,4.84-12.03.91-2.7.4-5.48-1.66-7.62-1.95-2.03-4.42-2.23-7.07-1.57-2.35.58-4.43,1.68-6.1,3.37-4.76,4.8-7.15,10.72-7.89,16.59ZM105.76,110.53c4.63-.02,9.23-2.94,11.39-7.57,1.46-3.15,2.6-6.46,3.81-9.72.36-.96.56-2,.67-3.03.63-5.54-3.44-9.07-8.82-7.7-3.12.8-5.7,2.43-7.72,4.92-2.84,3.49-4.8,7.45-5.75,11.83-.39,1.81-.56,3.76-.33,5.58.51,3.97,2.74,5.7,6.75,5.68ZM93.98,135.48c.01,2.87,1.36,4.02,3.78,3.33,1.14-.33,2.26-.94,3.2-1.67,4.63-3.64,6.77-8.87,8.83-14.14.27-.68-.05-1.16-.83-.83-1.73.73-3.44,1.51-5.12,2.33-2.8,1.37-5.39,3.06-7.43,5.47-1.42,1.68-2.52,3.52-2.43,5.51Z"/>
      <path d="M.01,99.34c.31-8.14,3.14-15.06,9.94-19.96,5.91-4.26,13.5-3.64,18.31,1.39,3.05,3.19,4.08,8.69,2.26,12.66-.37.8-1.08,1.6-1.84,2.01-1.34.73-3.06-.53-3.11-2.21-.02-.73.14-1.51.39-2.21,2.18-6.15-3.95-10.38-9.02-9.43-2.58.48-4.82,1.69-6.55,3.66-3.97,4.56-5.78,9.97-5.34,15.93.54,7.24,5.38,12.44,12.59,14.18,11.27,2.72,22.37-4.98,23.92-16.56.54-4,.12-7.91-1.11-11.72-.95-2.96-2.03-5.88-3.08-8.81-1.65-4.64-3.04-9.32-2.76-14.33.48-8.53,7.09-14.96,15.22-14.73,2.98.09,5.76.93,8.21,2.69,4.77,3.43,5.45,9.72,1.56,14.13-.54.61-1,1.29-1.5,1.94.97.02,1.97.2,2.9.02,2.14-.41,3.84-1.72,5-3.46,1.66-2.5,3.22-5.1,4.49-7.82,1.54-3.33,2.75-6.81,4.07-10.24.52-1.36.32-1.5-1.2-1.52-2.06-.03-4.13-.17-6.19-.35-.73-.07-1.49-.31-2.16-.63-1.37-.66-1.88-1.79-1.47-2.98.4-1.18,1.5-1.81,2.92-1.63.56.07,1.1.27,1.66.34,1.31.15,2.62.36,3.93.36,4.93,0,5.12-.15,6.99-4.78,3.86-9.52,7.74-19.04,11.61-28.55.28-.7.54-1.42.95-2.04.77-1.17,1.8-1.47,2.9-.97,1.15.53,1.77,1.51,1.48,2.73-.26,1.09-.74,2.13-1.16,3.18-3.4,8.39-6.8,16.77-10.21,25.15-.18.44-.43.86-.48,1.31-.02.19.48.64.63.6.8-.25,1.56-.65,2.35-.95,3.52-1.33,7-2.79,10.6-3.91,2.04-.63,4.26-.88,6.41-.95,2.56-.08,5.05.47,7.28,1.91,1.43.92,1.51.89,2.14-.72,1.52-3.86,2.99-7.74,4.48-11.61,1.66-4.31,3.35-8.61,4.96-12.94,1.48-3.97,6.24-7.94,11.55-7.5.28.02.57,0,.85.03,1.56.21,2.5,1.21,2.43,2.58-.06,1.24-1,2.39-2.41,2.3-5.17-.35-7.26,2.74-8.87,7.02-6.49,17.3-13.15,34.53-19.75,51.78-.27.7-.52,1.43-.94,2.04-.75,1.09-1.92,1.36-2.97.83-1.1-.56-1.61-1.6-1.31-2.82.13-.55.39-1.06.59-1.59,2.63-6.97,5.27-13.93,7.9-20.9.88-2.33.49-3.41-1.75-4.53-1.73-.87-3.58-1.02-5.51-.85-4.79.41-9.11,2.31-13.44,4.18-1.82.78-3.58,1.75-5.47,2.3-2.25.65-3.33,2.07-4.12,4.17-1.86,4.94-3.86,9.82-5.94,14.67-1.34,3.14-3.22,5.98-5.74,8.33-5.88,5.48-16.31,4.77-21.31-1.42-.41-.51-.81-1.05-1.1-1.63-.47-.92-.39-1.87.33-2.63.75-.79,1.68-1.24,2.8-.72.6.28,1.17.61,1.77.88,2.16.95,4.37.31,5.69-1.63,1.48-2.17,1.24-4.37-.67-6.1-3.97-3.62-11.03-2.56-14.14,2.15-1.67,2.53-2.45,5.36-1.9,8.35.49,2.67,1.26,5.31,2.03,7.92,1.51,5.05,3.5,9.99,4.59,15.12,2.32,10.87-2.24,21.45-11.25,27.29-9.01,5.84-21.29,4.76-29-2.71C1.72,110.36-.18,105.25.01,99.34Z"/>
      <path d="M179.01,33.31c-6.95.21-5.06-1.19-7.72,5.27-1.87,4.53-3.67,9.08-5.37,13.68-.58,1.56-.98,3.27-1.03,4.93-.1,3.49,2.59,5.54,6.03,4.77,2.86-.64,5.31-2.16,7.11-4.37,1.88-2.32,3.38-4.96,5.02-7.47.46-.71.74-1.55,1.27-2.18.72-.87,1.7-1.16,2.79-.59,1.02.54,1.5,1.39,1.37,2.55-.03.28-.12.55-.23.81-2.43,5.76-5.8,10.79-11.27,14.11-2.38,1.44-4.95,2.24-7.79,2.14-3.59-.13-6.31-1.64-8.11-4.79-.95-1.67-.96-1.64-2.54-.43-3.67,2.81-7.71,3.9-12.21,2.45-1.21-.39-2.11-.21-3.16.42-3.41,2.04-7.05,3.09-11.07,2.28-3.41-.69-6.06-2.46-8.01-5.33-3.05-4.5-3.55-9.51-2.59-14.65,1.05-5.62,3.75-10.43,8.09-14.24,2.69-2.37,5.8-3.87,9.35-4.33,6.74-.87,12.81,3.53,14.57,10.65,1.6,6.47.32,12.51-3.07,18.18-.46.77-.77,1.62-1.16,2.44,1-.03,2.04.1,3-.12,2.41-.55,4.24-2.11,5.67-3.99,1.41-1.87,2.72-3.88,3.65-6.02,2.04-4.66,3.82-9.43,5.67-14.17.59-1.52.55-1.54-1.1-1.98-1.73-.46-2.57-1.32-2.51-2.56.07-1.36,1.25-2.6,2.95-2.36,3.05.42,4.08-1.17,4.91-3.69,1.16-3.48,2.67-6.84,4.03-10.25.21-.52.41-1.07.71-1.53.64-.96,1.57-1.33,2.7-1.04,1.07.28,1.84,1.43,1.68,2.62-.1.74-.37,1.46-.65,2.16-1.32,3.33-2.7,6.63-4.01,9.96-.55,1.39-.37,1.64,1.13,1.69,1.6.05,3.2,0,4.81.01.57,0,1.14-.04,1.69.06,1.3.22,2.29,1.35,2.28,2.5,0,1.16-.99,2.28-2.36,2.4-1.5.13-3.01.03-4.52.03ZM149.29,44.32c-.16-1.31-.19-2.64-.5-3.91-1.51-6.21-6.91-8.79-12.65-6.12-7.37,3.44-11.94,13.86-9.47,21.6,1.76,5.53,7.37,7.87,12.46,5.24.74-.38,1.06-.78,1.11-1.7.12-2.24.86-2.91,2.96-2.58,1.07.17,1.58-.19,2.1-.92,2.44-3.48,3.91-7.29,3.98-11.61Z"/>
      <path d="M222.57,99.53c.08-.23.22-.68.4-1.11,5.78-14.44,11.56-28.88,17.35-43.31.21-.52.46-1.05.79-1.49.61-.79,1.41-1.26,2.47-.94,1.1.34,1.89,1.41,1.8,2.58-.04.55-.21,1.11-.42,1.63-5.76,14.35-11.54,28.69-17.32,43.03-.21.52-.42,1.06-.72,1.53-.75,1.17-1.82,1.55-2.88,1.09-1.07-.47-1.63-1.51-1.47-3Z"/>
      <path d="M220.92,108.19c1.24.05,2.52,1.18,2.74,2.43.45,2.48-2.72,5.23-5.1,4.42-1.35-.46-2.11-1.66-1.92-3.04.28-1.98,2.41-3.89,4.27-3.81Z"/>
    </g>
  </g>
</svg>