<?xml version="1.0" encoding="UTF-8"?>
<svg id="Layer_1" data-name="Layer 1" xmlns="http://www.w3.org/2000/svg" viewBox="0 0 750 339.93">
  <polygon points="0 1.14 37 1.14 37 151.02 46.5 151.02 46.5 1.14 83.5 1.14 83.5 338.87 46.5 338.87 46.5 188.99 37 188.99 37 338.87 0 338.87 0 1.14"/>
  <polygon points="440 1.14 440 151.02 449 151.02 449 1.14 486 1.14 486 338.87 449 338.87 449 188.99 440 188.99 440 338.87 402.5 338.87 402.5 1.14 440 1.14"/>
  <path d="M130.4.29c23.47-2.29,43.23,13.89,46.12,37.06l-.08,266.24c-8.2,50.6-80.35,47.17-83.46-4.91V41.84c.37-20.78,16.47-39.51,37.42-41.55ZM130.47,40.12v259.76s9.05,0,9.05,0V40.12s-9.05,0-9.05,0Z"/>
  <path d="M567.33,327.71c-24.63,24.96-67.53,9.17-71.32-25.06V37.37c7.39-50.94,79.85-48.7,83.49,2.99l.03,258.81c-.63,10.56-4.73,20.97-12.2,28.53ZM542.02,40.12h-9.05s.01,259.78.01,259.78h9.05s-.01-259.78-.01-259.78Z"/>
  <path d="M393,134.54h-37V44.36c0-.39-1.27-2.88-1.73-3.27-2.84-2.34-7.3-.25-7.74,3.3l.03,91.33c1.35,12.98,18.3,21.72,27.45,29.53,10.6,9.05,18.12,18.39,19.02,32.96,2.05,33.39-1.6,68.86,0,102.47-2.68,37.67-49.44,53.34-74.01,23.94-3.96-4.74-9.51-15.82-9.51-21.97v-97.17h37v90.68c0,.15,1.24,2.24,1.52,2.48,3.12,2.73,7.76.58,7.94-3.53l-.02-89.82c-1.23-13.05-18.42-21.92-27.67-29.8-10.45-8.9-17.86-18.92-18.79-33.19-2.17-33.47,1.7-69.25,0-102.96,2.33-34.24,43.75-52.16,69.79-28.72,6.09,5.48,13.74,18.46,13.74,26.74v97.17Z"/>
  <polygon points="750 1.14 749.94 34.81 704 301.9 750 301.9 750 338.87 666.5 338.87 666.56 305.22 712.5 38.11 666.5 38.11 666.5 1.14 750 1.14"/>
  <polygon points="254 1.14 254 41.11 237.5 41.11 237.5 338.87 200.5 338.87 200.5 41.11 184 41.11 184 1.14 254 1.14"/>
  <polygon points="656.5 1.14 656.5 41.11 640 41.11 640 338.87 603 338.87 603 41.11 586.5 41.11 586.5 1.14 656.5 1.14"/>
  <path d="M301.5,129.04l-16.5,31.47h13l-38.62,50.13c-1.41.38-3.35.86-4.36-.41l11.48-34.73h-16.5l25-46.46h26.5Z"/>
</svg>