<?xml version="1.0" encoding="UTF-8"?>
<svg id="Layer_1" data-name="Layer 1" xmlns="http://www.w3.org/2000/svg" viewBox="0 0 417.95 490.59">
  <defs>
    <style>
      .cls-1 {
        fill: #010101;
      }

      .cls-2 {
        fill: #ed1d75;
      }

      .cls-3 {
        fill: #fff;
      }

      .cls-4 {
        fill: #7f1542;
      }

      .cls-5 {
        fill: #5ac09b;
      }

      .cls-6 {
        fill: #f0efef;
      }
    </style>
  </defs>
  <path class="cls-1" d="M283.19,158.59c-.21.09-.42.17-.63.26.33,1.53.78,3.25,1.4,4.94.2-.09.4-.17.6-.25,3.01-1.24,1.69-6.22-1.37-4.96ZM262.79,169.93c-.06-.15-.16-.29-.29-.42-.33-.36-.84-.65-1.24-.76-.62-.17-1.44-.1-1.98.26-.55.36-1.03.88-1.18,1.54-.16.72-.03,1.31.26,1.98.15.35.31.7.49,1.05.8,1.61,1.78,3.13,2.92,4.52.06-.07.13-.15.19-.23.87-1.05,1.7-2.16,2.59-3.19.18-.21.38-.4.59-.59-.17-.24-.34-.49-.5-.74-.71-1.09-1.32-2.24-1.84-3.43ZM232.06,223.2c-.22,1.07-.43,2.13-.63,3.21-.59,3.23,4.36,4.62,4.96,1.37.21-1.17.44-2.33.69-3.49-.9-.04-1.81-.18-2.55-.33-.83-.17-1.68-.4-2.47-.75Z"/>
  <path class="cls-6" d="M403.83,135.53c0,.99-.1,1.93-.3,2.83-.2.9-.51,1.75-.92,2.57-.41.81-.92,1.58-1.54,2.3-.48.56-1.07,1.07-1.77,1.51-.31.2-.64.38-.99.55-.06.03-.12.06-.19.1-.36.17-.74.33-1.14.48-.03.01-.06.03-.1.04-.06.02-.14.04-.21.06-.33.11-.68.22-1.03.32-.11.03-.22.06-.33.09-.45.12-.92.23-1.42.32-.02,0-.04.01-.06.02-.07.01-.15.02-.21.03-.43.08-.87.15-1.32.21-.15.02-.3.04-.45.06-.56.07-1.12.13-1.72.17l-21.93,1.59c-.4.03-.8.06-1.18.08s-.76.04-1.12.06c-.36.02-.72.03-1.07.04-.35.01-.69.02-1.01.02-.74,0-1.43,0-2.07-.02-.64-.02-1.24-.06-1.79-.12s-1.05-.13-1.51-.21c-.45-.09-.86-.19-1.22-.31-1.03-.34-1.98-.75-2.87-1.23-.89-.48-1.7-1.03-2.45-1.66-.75-.62-1.43-1.32-2.04-2.08-.61-.77-1.15-1.6-1.61-2.5-.3-.58-.58-1.26-.86-2.03s-.55-1.64-.82-2.61c-.27-.96-.52-2.02-.77-3.18-.25-1.16-.49-2.41-.73-3.75l-8.3-47.83c-.17-.99-.32-1.89-.45-2.71-.13-.82-.23-1.56-.32-2.22-.08-.66-.15-1.24-.18-1.74-.04-.5-.06-.92-.06-1.25,0-.69.04-1.35.12-1.99.09-.64.22-1.25.4-1.84.17-.59.4-1.15.66-1.69.27-.54.57-1.05.93-1.54.41-.55.86-1.06,1.35-1.52.49-.46,1.02-.87,1.59-1.24.57-.36,1.19-.68,1.84-.95.65-.27,1.35-.49,2.09-.67.35-.07.79-.15,1.33-.22.54-.07,1.17-.13,1.89-.19.73-.06,1.54-.12,2.46-.17.91-.05,1.92-.1,3.01-.14l16.44-.65c.96-.04,1.84-.07,2.63-.1.79-.03,1.49-.05,2.1-.06.61-.02,1.14-.02,1.58-.03s.8,0,1.07,0h.12s.07,0,.11,0c.03,0,.06,0,.09,0,.03,0,.06,0,.08,0,.74.04,1.45.12,2.13.24.69.12,1.34.27,1.98.46s1.24.42,1.82.69c.58.27,1.14.57,1.66.91.95.6,1.79,1.26,2.55,1.96.76.71,1.42,1.47,1.99,2.28.57.81,1.05,1.68,1.43,2.6.39.92.68,1.89.87,2.92.22,1.11.33,2.17.34,3.16,0,.99-.08,1.92-.28,2.8-.19.87-.49,1.68-.9,2.43-.4.75-.91,1.44-1.52,2.07-.54.56-1.14,1.05-1.82,1.48,0,0,0,0-.02.01-.05.03-.1.05-.15.08-.27.17-.56.33-.86.48-.12.06-.25.12-.38.17-.24.11-.48.22-.74.32-.06.02-.11.05-.16.07-.09.03-.2.06-.29.09-.25.09-.5.17-.76.24-.17.05-.33.09-.5.14-.27.07-.55.13-.83.19-.11.02-.22.05-.33.07-.06.01-.13.02-.19.03-.32.06-.64.1-.97.15-.16.02-.31.05-.47.06-.5.06-1,.1-1.53.12l-13.57.67,1.08,5.88,4.67-.24,5.67-.29.5-.02c.09,0,.18,0,.26-.01.08,0,.17,0,.26,0s.17,0,.26,0c.08,0,.17,0,.25,0,.69,0,1.36.06,2,.15.65.1,1.28.23,1.88.42.61.18,1.2.41,1.77.68.57.27,1.12.59,1.65.95.63.43,1.21.91,1.72,1.44.51.53.97,1.1,1.36,1.72.4.62.73,1.29,1,2,.27.72.49,1.48.65,2.29.33,1.72.36,3.24.1,4.56-.26,1.32-.81,2.45-1.65,3.37-.37.4-.81.76-1.29,1.09-.38.26-.8.5-1.25.71-.08.04-.16.07-.24.1-.21.09-.41.19-.64.27-.23.09-.49.16-.74.23-.09.03-.17.06-.26.08-.54.15-1.13.27-1.75.38-.14.02-.27.04-.41.06-.65.1-1.32.17-2.05.22l-9.93.59,1.05,5.74.16.89,3.16-.2,9.49-.59c.17-.01.34-.02.5-.03.17,0,.33-.02.5-.02.16,0,.33,0,.49-.01.16,0,.32,0,.48,0,1.07,0,2.08.05,3.03.16s1.86.28,2.71.5c.85.22,1.65.5,2.39.84.74.34,1.44.73,2.07,1.18.87.61,1.66,1.28,2.36,2,.7.72,1.32,1.5,1.85,2.33.54.83.99,1.72,1.36,2.66.37.94.65,1.93.86,2.98.21,1.07.31,2.1.31,3.09Z"/>
  <path class="cls-6" d="M336.38,128.75c-.16,1.4-.51,2.83-1.06,4.27-.55,1.44-1.3,2.91-2.24,4.39-.38.59-.81,1.19-1.25,1.79-.66.9-1.38,1.81-2.18,2.72-1.89,2.15-3.91,4.06-6.06,5.74-2.16,1.68-4.45,3.12-6.88,4.31-1.39.68-2.82,1.28-4.3,1.8-.1.03-.19.06-.29.1-.68.24-1.37.46-2.07.66-.22.06-.43.13-.65.19-.14.04-.27.08-.41.12-.73.19-1.46.36-2.21.52-.14.03-.28.05-.42.08-.74.15-1.48.27-2.24.39.77-.92,1.52-1.87,2.22-2.85,4.33-6.07,8.3-13.36,9.39-20.8.89-6.11.75-13.77-2.46-19.34.46-.29.91-.57,1.43-.79.67-.29,1.39-.51,2.15-.68.76-.17,1.58-.27,2.43-.32.08,0,.16,0,.24-.01s.16,0,.24,0c.08,0,.16,0,.24,0,.08,0,.16,0,.24,0,.89,0,1.77.08,2.63.23.86.15,1.7.38,2.54.68.83.3,1.64.68,2.44,1.13.8.45,1.58.98,2.35,1.58.84.66,1.59,1.36,2.26,2.1.67.74,1.26,1.53,1.76,2.36.5.83.93,1.7,1.26,2.62.34.92.59,1.88.76,2.88.23,1.37.27,2.75.11,4.15Z"/>
  <path class="cls-6" d="M290.32,141.69c-.49,0-.98.03-1.46.08-.11.01-.22.02-.33.04-.47.06-.93.15-1.39.25-.44.11-.8.3-1.07.54-4.36,2.58-8.71,5.16-13.07,7.74,0,0,0,0,0,0l-12.61,7.63,10.54-8.79c-1.62-.94-3.19-1.93-4.69-3.03-1.9-1.39-3.7-2.9-5.42-4.54-1.72-1.64-3.34-3.41-4.88-5.3-1.53-1.9-2.92-3.85-4.14-5.85-1.23-2-2.31-4.06-3.24-6.17-.93-2.11-1.7-4.27-2.33-6.48-.62-2.21-1.1-4.47-1.42-6.78-.11-.8-.2-1.6-.28-2.39-.02-.25-.04-.51-.06-.76-.05-.54-.08-1.07-.11-1.6-.01-.29-.02-.58-.03-.86-.02-.49-.02-.99-.02-1.48,0-.29,0-.58,0-.87,0-.5.03-.99.05-1.48,0-.19,0-.37.02-.56,0-.08.02-.16.02-.24.04-.57.09-1.14.15-1.7.02-.17.03-.34.05-.51.09-.73.19-1.45.32-2.17.03-.18.07-.36.11-.55.1-.53.2-1.07.32-1.59.06-.25.12-.5.19-.76.11-.45.23-.91.36-1.36.04-.13.06-.25.1-.38.04-.14.09-.27.14-.41.13-.44.27-.87.43-1.3.09-.25.17-.51.27-.76.17-.46.36-.92.54-1.38.08-.21.16-.42.25-.63.28-.66.58-1.31.9-1.96.03-.06.06-.11.09-.16.3-.59.61-1.18.93-1.76.03-.05.06-.11.09-.16.09-.16.19-.31.28-.47.25-.42.5-.84.76-1.26.15-.23.3-.47.45-.7,1.21-1.84,2.58-3.63,4.11-5.36,1.94-2.17,4.03-4.09,6.28-5.74,1.78-1.31,3.67-2.42,5.64-3.41.42,2.17,1.22,4.23,2.55,6.03,1.66,2.25,3.83,3.93,5.95,5.73,1.99,1.69,3.95,3.51,4.64,6.12.61,2.32.15,4.75-.47,7.01-.6,2.18-1.39,4.3-2.14,6.43-.35.53-.67,1.07-.94,1.62-.48.98-.85,1.99-1.11,3.05-.26,1.06-.41,2.17-.44,3.31-.04,1.15.04,2.34.23,3.58.06.42.15.83.24,1.25.33,1.86,1,3.58,1.9,5.22.05.09.09.18.14.26.04.07.09.14.14.22,1.18,2.01,2.67,3.9,4.31,5.72,4.35,4.85,7.57,9.94,8.14,16.6.09,1.07.1,2.14.07,3.22Z"/>
  <path class="cls-6" d="M330.23,91.63c-.07,1.15-.28,2.23-.64,3.26-.36,1.02-.86,1.98-1.51,2.88-.65.9-1.45,1.73-2.39,2.5-.54.44-1.09.83-1.67,1.18-.58.34-1.19.63-1.81.87-.62.24-1.27.43-1.94.57-.67.14-1.37.23-2.08.27-.07,0-.14,0-.21,0-.07,0-.14,0-.21,0-.07,0-.14,0-.21,0h-.21c-.52,0-1.04-.03-1.56-.09-.52-.06-1.03-.14-1.55-.25-.52-.11-1.03-.25-1.55-.42-.52-.17-1.03-.36-1.54-.59-.25-.11-.59-.32-1.04-.63-.44-.31-.99-.73-1.64-1.24-.65-.52-1.4-1.13-2.25-1.86-.85-.72-1.8-1.54-2.85-2.47-.9-.8-1.83-1.5-2.79-2.1-.96-.6-1.95-1.1-2.96-1.5-.45-.18-.91-.33-1.37-.47.32-1.36.75-2.69,1.34-3.94.95-2.01,2.29-3.85,2.89-6.02.96-3.51-.41-6.69-3.05-9.02-1.89-1.66-5.55-3.3-6.17-5.97-.36-1.55.44-3.14,1.62-4.64.96.11,1.93.22,2.89.39,2.38.42,4.73,1.02,7.08,1.81,2.34.79,4.66,1.76,6.97,2.92,2.31,1.16,4.6,2.5,6.88,4.03,1.97,1.32,3.72,2.66,5.25,4.02,1.38,1.23,2.58,2.47,3.62,3.73.12.14.24.28.36.43,1.11,1.41,2,2.84,2.69,4.29.68,1.44,1.15,2.91,1.41,4.39,0,.01,0,.02,0,.04.22,1.28.29,2.49.22,3.64Z"/>
  <path class="cls-6" d="M372.47,246.69c-.1.83-.27,1.64-.51,2.44s-.54,1.58-.91,2.34c-.53,1.12-1.16,2.12-1.86,3-.71.88-1.5,1.63-2.37,2.26-.87.63-1.83,1.14-2.88,1.53-.52.19-1.06.35-1.62.48-.01,0-.02,0-.03,0-.56.13-1.13.23-1.73.3-.08,0-.16.02-.24.02-.08,0-.16.02-.24.02s-.16.01-.24.02-.16,0-.24.02c-1.13.06-2.24-.02-3.32-.22-1.08-.2-2.14-.54-3.18-1-1.03-.47-2.05-1.06-3.03-1.79-.99-.73-1.95-1.58-2.88-2.57l-15.15-15.95-9.7,18.57c-.67,1.28-1.41,2.42-2.22,3.41-.55.68-1.14,1.26-1.75,1.8-.29.26-.58.53-.89.76-.95.71-1.97,1.28-3.05,1.71-.53.21-1.08.38-1.65.52-.02,0-.05,0-.07.02-.57.14-1.15.24-1.75.31-.09,0-.17.02-.26.03-.09,0-.17.02-.26.02-.08,0-.17.02-.26.02-.09,0-.17,0-.26.01-.96.05-1.91.01-2.84-.11-.93-.13-1.83-.34-2.73-.65-.89-.3-1.76-.69-2.62-1.17-.85-.48-1.69-1.05-2.5-1.7-.89-.71-1.68-1.48-2.39-2.29-.71-.82-1.33-1.69-1.86-2.61-.53-.92-.96-1.9-1.31-2.92-.35-1.03-.61-2.1-.78-3.23-.15-1.03-.23-2.04-.23-3.03,0-.99.09-1.96.25-2.92.16-.95.4-1.89.72-2.81.32-.92.71-1.82,1.18-2.7l13.8-25.76-15.59-16.61c-1.23-1.31-2.32-2.57-3.27-3.77-.95-1.2-1.77-2.35-2.45-3.44-.68-1.09-1.22-2.12-1.63-3.11-.4-.98-.67-1.9-.81-2.77-.13-.88-.19-1.75-.17-2.6.02-.85.11-1.69.28-2.51.1-.48.23-.95.38-1.41,2.61-1.01,5.23-2.02,7.84-3.03,1.14-.44,2.3-1,3.48-1.33.22-.06.41-.15.58-.24,1.32-.53,2.5-1.38,3.34-2.59.56-.82.98-1.73,1.29-2.69,0,0,.02,0,.02,0,.61-1.91.92-3.97.85-6.08.75,2.06,1.12,4.3,1.12,6.6.55.19,1.1.41,1.64.66,1.06.5,2.1,1.14,3.12,1.9,1.02.77,2.02,1.66,3,2.69l6.85,7.19,4.94,5.18,6.98-12.57c.04-.07.08-.13.12-.2.77-1.37,1.58-2.59,2.42-3.64.89-1.11,1.82-2.04,2.78-2.81.97-.77,1.98-1.36,3.03-1.79,1.05-.43,2.14-.68,3.27-.77.09,0,.17-.01.26-.02.08,0,.17,0,.25-.01h.25c.09-.01.17-.02.25-.02.65-.01,1.29.03,1.92.1.48.05.96.11,1.43.21,1.08.23,2.13.57,3.15,1.04,1.02.47,2,1.06,2.95,1.77.67.5,1.32,1.09,1.96,1.71.27.26.54.51.8.79.25.27.49.55.72.83.28.35.56.7.81,1.06.46.65.86,1.32,1.2,2,.35.68.64,1.38.88,2.1.24.72.43,1.46.56,2.21.15.86.21,1.77.18,2.7-.03.94-.16,1.91-.38,2.92-.22,1.01-.53,2.06-.94,3.14-.41,1.08-.91,2.21-1.5,3.37l-10.33,20.23,20.83,22.12c.66.7,1.27,1.44,1.81,2.22s1.02,1.58,1.44,2.43c.42.84.78,1.72,1.07,2.63.3.92.53,1.87.7,2.85.16.89.25,1.77.28,2.63.03.86-.01,1.7-.11,2.53Z"/>
  <path class="cls-6" d="M239.73,144.42c0,1.16-.11,2.27-.29,3.33s-.46,2.08-.83,3.04c-.36.97-.82,1.88-1.37,2.75-.58.95-1.25,1.79-2,2.53-.75.74-1.59,1.37-2.5,1.88-.92.52-1.92.94-3.01,1.24-1.09.31-2.26.5-3.52.6-.09,0-.18.01-.27.02-.09,0-.18,0-.27.02-.09,0-.18,0-.27,0-.09,0-.18,0-.27,0-1.04.02-2.07-.06-3.06-.23-.99-.17-1.96-.44-2.91-.79-.94-.36-1.86-.81-2.74-1.36-.89-.54-1.75-1.18-2.59-1.91-.76-.66-1.45-1.42-2.07-2.28-.62-.86-1.16-1.82-1.63-2.87-.47-1.05-.87-2.21-1.2-3.46-.33-1.25-.58-2.6-.77-4.04l-7.29-57.57c-.09-.72-.16-1.41-.21-2.09-.02-.21-.02-.42-.04-.62-.03-.46-.05-.91-.05-1.36,0-.11-.01-.23-.02-.33,0-.11,0-.22.01-.33,0-.42.02-.83.04-1.24,0-.19.02-.39.03-.57.04-.5.1-.99.16-1.46,0-.06.01-.12.02-.18,0,0,0-.02,0-.02.09-.53.19-1.03.32-1.51.04-.14.08-.27.12-.41.1-.33.2-.66.32-.97.03-.07.05-.15.07-.22.03-.09.08-.16.11-.24.36-.84.78-1.6,1.3-2.27.64-.83,1.34-1.57,2.12-2.2.77-.63,1.6-1.17,2.5-1.61.9-.44,1.86-.78,2.89-1.02,1.03-.24,2.12-.38,3.28-.43h.28c.09-.01.19-.01.28-.02h.27c.09,0,.18,0,.27,0,1.04.02,2.04.12,3.02.31.97.19,1.91.46,2.81.81.9.36,1.78.79,2.61,1.32s1.64,1.13,2.41,1.83c.76.69,1.45,1.49,2.08,2.4.62.9,1.18,1.91,1.66,3.03.49,1.11.9,2.34,1.26,3.67.35,1.33.63,2.77.84,4.32l2.9,21.1,4.91,35.79c.18,1.26.26,2.46.25,3.62Z"/>
  <path class="cls-6" d="M193.11,128.68c-.08,2.8-.39,5.48-.92,8.01-.54,2.54-1.31,4.95-2.31,7.22-.74,1.69-1.61,3.3-2.61,4.84-.02.03-.04.06-.06.09-.33.51-.68,1.01-1.04,1.5-1.84,2.5-3.83,4.73-5.99,6.67-2.16,1.95-4.48,3.61-6.96,4.99-2.49,1.38-5.13,2.48-7.94,3.28-2.81.81-5.79,1.33-8.92,1.56-.21.02-.42.03-.62.04-.21.01-.42.02-.62.03-.21.01-.42.02-.62.02-.21,0-.41.01-.62.02-1.71.03-3.41-.04-5.1-.22-1.69-.18-3.37-.45-5.04-.83-1.67-.38-3.34-.86-4.99-1.45-1.65-.58-3.29-1.27-4.92-2.06-2.33-1.13-4.51-2.41-6.53-3.83-2.03-1.43-3.9-3.01-5.62-4.73-1.72-1.73-3.28-3.6-4.69-5.62-1.41-2.02-2.66-4.19-3.76-6.5-.5-1.06-.96-2.21-1.38-3.44-.42-1.24-.79-2.56-1.13-3.98-.33-1.41-.62-2.92-.87-4.51-.25-1.59-.46-3.27-.62-5.04l-3.16-33.67c-.09-.96-.16-1.85-.23-2.65-.06-.8-.11-1.52-.15-2.16-.03-.64-.06-1.19-.06-1.67,0-.47,0-.86.02-1.18.05-.65.14-1.27.27-1.89.14-.61.31-1.21.53-1.79s.48-1.15.78-1.7c.3-.55.64-1.09,1.02-1.61.75-1.03,1.57-1.95,2.46-2.73.89-.79,1.86-1.45,2.89-1.99,1.03-.54,2.14-.96,3.31-1.26,1.17-.3,2.42-.47,3.74-.53.09,0,.18,0,.27,0,.09,0,.18,0,.27,0h.53c1.07.02,2.1.12,3.11.31,1.01.19,1.98.46,2.93.82.95.36,1.87.81,2.75,1.34s1.75,1.15,2.59,1.86c.78.66,1.48,1.43,2.1,2.3.62.87,1.17,1.85,1.64,2.94.47,1.08.86,2.28,1.18,3.58.32,1.3.55,2.72.71,4.24l3.9,37.05c.14,1.3.36,2.49.67,3.55.1.35.22.69.34,1.02.02.07.06.13.08.19.48,1.22,1.09,2.24,1.84,3.07.79.87,1.74,1.52,2.83,1.95,1.09.43,2.34.64,3.73.63.06,0,.13,0,.19,0,.06,0,.13,0,.2,0,.06,0,.13,0,.2,0,.07,0,.13,0,.2,0,1.52-.1,2.82-.4,3.91-.9.07-.03.13-.07.2-.11.99-.5,1.8-1.17,2.42-2.04.35-.48.63-1.03.86-1.63.13-.36.24-.73.34-1.13.02-.1.05-.21.07-.32.02-.1.05-.19.07-.3.06-.34.1-.69.13-1.05,0-.02,0-.04,0-.05.04-.46.05-.95.04-1.45,0-.13,0-.26,0-.4-.02-.53-.05-1.07-.11-1.65l-4.15-37.29c-.1-.85-.18-1.62-.24-2.32-.06-.7-.12-1.32-.15-1.86-.04-.55-.06-1.02-.07-1.41,0-.4,0-.72.02-.97.04-.47.12-.94.24-1.41,0,0,0-.02,0-.02,0,0,0-.02.01-.03.12-.47.27-.94.47-1.41.2-.48.44-.96.73-1.45.28-.48.61-.97.97-1.45.7-.97,1.46-1.83,2.29-2.56.83-.74,1.73-1.36,2.7-1.87.97-.51,2.01-.9,3.11-1.18,1.11-.28,2.28-.44,3.52-.49.09,0,.18,0,.27,0,.09,0,.19,0,.27,0,.09,0,.18,0,.27,0s.18,0,.27,0c1.13.02,2.23.14,3.29.35,1.06.21,2.08.53,3.07.95.99.41,1.94.93,2.85,1.54.92.61,1.8,1.32,2.64,2.13.7.67,1.34,1.47,1.91,2.4.57.93,1.09,2,1.54,3.19.45,1.19.85,2.52,1.18,3.97.33,1.45.61,3.04.82,4.76l1.4,11.49.86,7.02,1.73,14.15c.38,3.07.53,6,.45,8.8Z"/>
  <path class="cls-6" d="M284.96,229.83c-.22,2.18-.58,4.34-1.08,6.47-.5,2.14-1.14,4.27-1.93,6.37-.19.5-.4.98-.6,1.47-.64,1.58-1.32,3.13-2.1,4.61-1.02,1.94-2.15,3.8-3.4,5.57-1.25,1.77-2.62,3.45-4.11,5.05-1.49,1.6-3.1,3.11-4.82,4.53-1.83,1.51-3.75,2.87-5.75,4.08-1.39.84-2.83,1.58-4.29,2.27-.65.31-1.29.62-1.95.9-2.14.89-4.35,1.63-6.65,2.22-.14.04-.28.07-.43.1-.91.23-1.84.43-2.77.61-.28.06-.57.11-.85.16-1.08.19-2.17.36-3.27.48-.26.03-.52.06-.78.08-.26.02-.51.05-.77.07-.26.02-.52.04-.77.06-.26.02-.51.03-.77.05-2.16.11-4.3.09-6.44-.07-2.14-.16-4.26-.47-6.37-.91-2.12-.44-4.22-1.03-6.3-1.76-2.09-.73-4.16-1.59-6.22-2.6-2.31-1.13-4.5-2.39-6.57-3.78-2.08-1.39-4.04-2.91-5.87-4.56-1.84-1.65-3.56-3.42-5.17-5.32-1.6-1.9-3.08-3.93-4.44-6.09-1.15-1.81-2.18-3.67-3.11-5.59-.92-1.92-1.74-3.89-2.44-5.93-.7-2.03-1.29-4.12-1.78-6.26-.48-2.14-.85-4.34-1.11-6.58-.21-1.85-.32-3.7-.32-5.53,0-1.83.09-3.65.28-5.47.19-1.81.49-3.61.89-5.41.4-1.79.89-3.57,1.49-5.35.44-1.34.95-2.64,1.48-3.91.17-.41.37-.8.55-1.21.38-.85.78-1.69,1.2-2.5.23-.45.48-.89.73-1.32.41-.74.85-1.48,1.3-2.19.27-.43.55-.86.83-1.28.48-.71.99-1.4,1.5-2.08.22-.29.44-.58.67-.87.93-1.16,1.9-2.3,2.94-3.38,1.67-1.73,3.48-3.34,5.44-4.85,1.91-1.47,3.89-2.78,5.94-3.93,2.05-1.15,4.18-2.15,6.39-2.98,2.2-.84,4.48-1.52,6.83-2.04.62-.14,1.26-.24,1.9-.36.99-.18,2-.34,3.01-.47.78-.1,1.57-.21,2.37-.28.3-.02.6-.05.9-.07.3-.02.6-.04.9-.06.3-.02.6-.03.9-.04.3-.01.6-.02.89-.02,2.1-.04,4.17.05,6.22.27.59.06,1.18.16,1.77.25,1.09-1.96,2.71-4.75,3.9-6.5.7-.8,1.77-.99,2.75-.88l3.5.08-3.47.5c-.63.07-1.09.11-1.49.43-.46.3-.54.6-.76,1.21-.53,1.34-1.4,3.81-1.97,5.58h0s-.02.04-.02.06c0,.03-.02.06-.03.09h0s0,.01,0,.02c-2.42,1.03-6.02,2.17-6.44,4.77-.21,1.31-.28,2.66-.42,3.98-.1.99-.64,2.78-.53,3.93-.01.03-.02.04-.03.06-.44.92-.85,1.86-1.25,2.8-1.61,3.78-3.01,7.64-4.24,11.56-.21.67-.4,1.36-.6,2.03-.26.13-.54.23-.79.37-.71.4-1.4.85-2.05,1.36-.68.52-1.3,1.08-1.88,1.68-.36.37-.69.77-1.02,1.17-.08.1-.15.2-.23.3-.18.23-.35.47-.52.72-.1.15-.19.29-.29.44-.16.25-.31.5-.45.76-.08.15-.17.3-.25.46-.15.28-.28.57-.41.87-.06.14-.13.27-.19.42-.19.44-.36.89-.51,1.35-.21.61-.38,1.23-.52,1.85-.14.62-.24,1.24-.31,1.87-.07.63-.1,1.26-.1,1.89,0,.63.04,1.27.11,1.91.09.78.22,1.54.38,2.28.17.74.37,1.46.61,2.17.24.7.52,1.39.84,2.05.32.67.68,1.31,1.07,1.93.47.75.98,1.45,1.54,2.11.56.66,1.15,1.27,1.79,1.84.64.57,1.31,1.09,2.03,1.58.72.48,1.48.91,2.27,1.31.71.35,1.43.65,2.15.9.72.25,1.45.45,2.18.61.73.15,1.47.26,2.21.32.74.06,1.48.06,2.22.02.09,0,.18,0,.27-.02s.18-.01.27-.02c.09,0,.18-.02.27-.02.09,0,.18-.02.27-.03.38-.04.76-.1,1.13-.17.1-.02.2-.04.3-.06.32-.06.64-.13.96-.21.05-.01.1-.02.15-.03.79-.2,1.56-.46,2.3-.77.23-.1.45-.2.67-.31.51-.24,1-.49,1.49-.78.69-.42,1.35-.89,1.99-1.41.6-.49,1.15-1.01,1.67-1.57.51-.55.99-1.13,1.42-1.75.43-.61.82-1.25,1.18-1.92.27-.51.5-1.05.73-1.59.07-.17.14-.34.21-.51.27-.73.49-1.46.67-2.2.17-.74.3-1.49.37-2.24.08-.75.1-1.51.09-2.27-.02-.76-.09-1.53-.2-2.31-.1-.69-.24-1.37-.41-2.03-.17-.66-.38-1.31-.63-1.95-.06-.17-.14-.33-.2-.49-.19-.46-.4-.92-.63-1.37-.06-.11-.13-.22-.19-.33.71-1.62,1.46-3.23,2.3-4.77,1.7-3.13,3.51-6.19,5.33-9.26.82-1.4,1.9-2.85,2.63-4.37,1.96-.4,3.78-1.16,4.82-2.52.5-.65,1-1.38,1.49-2.13.01.01.02.02.04.03.11.11.22.21.33.32,1.03,1.03,2.04,2.08,2.99,3.19,1.55,1.8,2.99,3.72,4.33,5.75,1.11,1.68,2.12,3.4,3.03,5.16.67,1.3,1.27,2.63,1.83,3.97.2.47.41.94.59,1.42.71,1.84,1.31,3.71,1.81,5.62.5,1.91.9,3.87,1.2,5.87.33,2.25.53,4.47.59,6.68.06,2.21-.02,4.4-.24,6.58Z"/>
  <path class="cls-6" d="M97.62,137.21c-.02,1-.08,1.87-.17,2.62-.28,2.52-.79,4.93-1.53,7.23-.74,2.31-1.71,4.51-2.92,6.61-1.2,2.1-2.64,4.1-4.31,5.98-1.67,1.89-3.59,3.68-5.73,5.35-1.69,1.32-3.44,2.51-5.26,3.55-1.83,1.04-3.71,1.93-5.67,2.68-1.96.75-3.98,1.36-6.07,1.81-2.09.46-4.25.77-6.48.94-.24.02-.48.03-.72.05-.24.02-.48.03-.72.04-.24,0-.48.02-.71.03-.24,0-.47.01-.71.02-2.81.05-5.53-.13-8.17-.55-2.64-.42-5.18-1.08-7.64-1.98-2.46-.9-4.82-2.03-7.09-3.4-2.27-1.37-4.45-2.98-6.53-4.83-.54-.48-1.07-.98-1.58-1.48-.17-.16-.32-.33-.49-.5-.34-.35-.67-.69-.99-1.05-.18-.2-.36-.41-.54-.61-.29-.33-.57-.67-.85-1.02-.18-.22-.35-.44-.52-.66-.12-.15-.24-.3-.36-.45-.15-.19-.28-.4-.42-.6-.16-.22-.32-.44-.47-.67-.26-.38-.51-.78-.76-1.17-.13-.21-.26-.41-.39-.62-.31-.51-.6-1.03-.88-1.56-.05-.1-.11-.19-.16-.29-.31-.59-.6-1.19-.88-1.79-.02-.04-.03-.08-.05-.12-.09-.19-.16-.39-.25-.59-.2-.46-.4-.93-.58-1.4-.68-1.75-1.26-3.58-1.71-5.49-.64-2.68-1.04-5.5-1.22-8.47-.12-1.97-.13-3.81-.01-5.53.11-1.71.34-3.31.69-4.77s.81-2.81,1.39-4.03c.58-1.22,1.27-2.32,2.08-3.3.75-.9,1.56-1.69,2.44-2.38.88-.69,1.83-1.27,2.84-1.75,1.01-.48,2.09-.86,3.24-1.13,1.14-.27,2.35-.44,3.63-.51.12,0,.24-.01.36-.02.12,0,.24,0,.36-.01.12,0,.24,0,.36,0,.12,0,.23,0,.35,0,1.24,0,2.42.1,3.54.27,1.12.18,2.19.45,3.19.82,1,.36,1.95.81,2.84,1.35s1.72,1.17,2.5,1.89c.85.79,1.6,1.64,2.26,2.55.66.92,1.22,1.9,1.7,2.94.47,1.05.85,2.16,1.13,3.34.14.58.26,1.18.35,1.79,0,.02,0,.03,0,.05.1.61.17,1.25.22,1.9.02.29.04.6.06.94s.05.7.08,1.1c.03.39.06.81.1,1.25.03.44.07.91.1,1.41,0,.05,0,.1,0,.17,0,.07,0,.14.02.23,0,.09.01.18.02.28,0,.1.02.21.02.33.08,1.13.28,2.12.59,2.97.24.64.57,1.17.93,1.65.12.15.22.32.36.46.54.56,1.2.98,1.97,1.26s1.66.41,2.66.4h.15s.1,0,.15,0c.05,0,.1,0,.15,0,.05,0,.1,0,.15,0,.75-.05,1.43-.18,2.04-.39.61-.21,1.16-.5,1.63-.87.48-.37.88-.82,1.22-1.35.34-.53.61-1.14.82-1.83.07-.23.12-.56.16-.99s.05-.95.05-1.56c0-.62-.02-1.33-.06-2.13-.04-.81-.1-1.71-.18-2.71l-2.76-35.53c-.14-1.75-.2-3.38-.18-4.86s.11-2.84.28-4.06c.17-1.22.42-2.31.75-3.26.32-.95.73-1.78,1.2-2.47.76-1.11,1.62-2.09,2.56-2.93.95-.85,1.98-1.56,3.11-2.14,1.13-.58,2.34-1.03,3.65-1.35,1.31-.32,2.71-.51,4.2-.57.1,0,.21,0,.32-.01.11,0,.21,0,.32,0,.1,0,.21,0,.32,0s.21,0,.32,0c1.39.02,2.71.17,3.95.44,1.25.27,2.43.67,3.55,1.2,1.11.53,2.16,1.18,3.14,1.96.98.78,1.89,1.69,2.74,2.72.39.48.75.97,1.07,1.48.32.51.61,1.04.87,1.58.26.54.49,1.1.68,1.67.19.57.36,1.16.49,1.77.03.15.06.41.11.79.04.38.09.87.15,1.47.06.6.13,1.32.21,2.15.08.83.17,1.78.26,2.84l2.97,33.18c.15,1.73.28,3.33.37,4.82.1,1.49.16,2.85.19,4.09.03,1.24.04,2.36.01,3.36Z"/>
  <path class="cls-6" d="M178.61,254.43c-.19,2.16-.61,4.25-1.26,6.27-.65,2.03-1.52,3.98-2.63,5.88-.38.65-.79,1.29-1.23,1.92-.83,1.22-1.75,2.41-2.78,3.57-.84.95-1.7,1.83-2.57,2.63-.87.81-1.75,1.54-2.65,2.2-.86.63-1.72,1.19-2.6,1.68-.05.02-.09.06-.13.08-.03.02-.06.03-.1.05-.4.22-.81.43-1.21.62-.08.04-.15.07-.23.11-.42.19-.85.38-1.28.55-.69.26-1.49.51-2.4.75-.9.24-1.91.47-3.03.69-1.12.22-2.34.42-3.67.62-1.33.19-2.77.38-4.31.56l-27.97,3.18c-.18.02-.36.04-.53.06-.18.02-.35.03-.53.05-.17.02-.35.03-.52.04-.17.01-.34.02-.51.03-1.44.08-2.8.06-4.09-.06-1.29-.12-2.5-.33-3.63-.65-1.13-.31-2.18-.72-3.16-1.23-.98-.51-1.87-1.12-2.68-1.83-.65-.57-1.24-1.15-1.78-1.76-.53-.61-1.02-1.24-1.44-1.88-.42-.65-.79-1.32-1.1-2.01-.31-.69-.56-1.4-.76-2.13-.1-.35-.19-.81-.29-1.38-.1-.57-.2-1.26-.3-2.06-.1-.8-.2-1.71-.31-2.74-.11-1.03-.21-2.16-.32-3.41l-5.56-64.29c-.16-1.54-.14-3.01.05-4.4.19-1.39.56-2.71,1.11-3.94.54-1.24,1.26-2.4,2.15-3.48.89-1.08,1.95-2.09,3.19-3.02.58-.44,1.23-.85,1.94-1.22.71-.37,1.49-.71,2.33-1.01.84-.3,1.75-.57,2.72-.8.97-.23,2.01-.42,3.11-.58.24-.05.64-.1,1.21-.16.57-.06,1.31-.13,2.21-.2.02,0,.04,0,.05,0,.89-.07,1.93-.15,3.14-.25,1.23-.09,2.62-.19,4.18-.3l4.77-.37c.89-.07,1.75-.13,2.58-.19.83-.06,1.64-.1,2.42-.15s1.53-.08,2.26-.11c.73-.02,1.43-.05,2.1-.06.89-.02,1.74-.02,2.54-.02.8,0,1.55.02,2.26.05.71.03,1.37.07,1.99.12.61.05,1.19.12,1.71.19,2.06.32,4.02.78,5.86,1.4,1.84.62,3.58,1.38,5.21,2.3,1.63.91,3.16,1.98,4.57,3.2,1.02.87,1.96,1.84,2.86,2.86.36.41.74.8,1.08,1.24.99,1.25,1.89,2.54,2.68,3.87.79,1.33,1.48,2.69,2.06,4.1.58,1.41,1.07,2.84,1.44,4.32.38,1.48.65,3,.82,4.56.14,1.21.17,2.46.11,3.73-.06,1.28-.22,2.58-.47,3.92-.25,1.34-.6,2.71-1.05,4.1-.45,1.4-1,2.84-1.65,4.3.46.37.9.73,1.34,1.09.6.5,1.18.99,1.72,1.48.94.84,1.79,1.66,2.57,2.46.78.81,1.47,1.59,2.08,2.36.61.77,1.14,1.53,1.58,2.26.63,1.05,1.2,2.11,1.71,3.2.51,1.09.95,2.2,1.34,3.33.38,1.13.71,2.29.97,3.46.26,1.18.46,2.37.59,3.59.26,2.29.29,4.51.1,6.66Z"/>
  <path class="cls-4" d="M289.69,146.82c-.55,2.48-1.45,4.88-2.72,7.08-.05-.71-.07-1.41-.05-2.12.04-1,.16-1.89.55-2.93.22-.59.77-1.43,1.24-1.77.06-.04.1-.09.15-.13.29-.06.55-.1.83-.12Z"/>
  <path class="cls-4" d="M297.52,162.45c0,.08,0,.16-.02.24-.04.4-.1.81-.18,1.2-.2.96-.46,1.91-1,2.73-.06.1-.1.16-.12.2-.03.02-.07.07-.15.15-.02.02-.13.12-.17.16-.03,0-.05.02-.1.03-.46.17-.97.32-1.46.37-1.15.14-1.94-.14-2.59-.68,2.02-1.38,3.96-2.84,5.8-4.4Z"/>
  <path class="cls-2" d="M287.74,170.21c-.63.26-1.26.52-1.89.77-4.96,1.91-9.93,3.83-14.89,5.75-.81.32-1.62.63-2.43.94,0,0,0,0,0,0-.03-.03-.04-.03-.02-.02-.07-.06-.14-.11-.21-.17-.69-.59-1.34-1.22-1.95-1.89-.33-.36-.64-.74-.95-1.12,0,0,0,0,0,0-.08-.11-.16-.22-.24-.34,0,0-.01-.02-.02-.02-.17-.24-.34-.49-.5-.74-.71-1.09-1.32-2.24-1.84-3.43-.06-.15-.16-.29-.29-.42-.33-.36-.84-.65-1.24-.76-.62-.17-1.44-.1-1.98.26-.55.36-1.03.88-1.18,1.54-.16.72-.03,1.31.26,1.98.15.35.31.7.49,1.05.8,1.61,1.78,3.13,2.92,4.52.9,1.11,1.91,2.14,3,3.08-.14.22-.27.44-.4.66-.43.71-1.08,1.49-1.48,2.28-.27.11-.54.25-.8.34-1.98.66-3.96.79-6.03.61-3.27-.28-3.26,4.73-.08,5.12-.45.76-.91,1.53-1.36,2.29-1.8,3.04-3.6,6.09-5.26,9.21-3.39,6.34-5.7,13.48-7.59,20.44-.42.66-.89,1.26-1.64,1.67-.78.43-1.91.53-3.05.48-.9-.04-1.81-.18-2.55-.33-.83-.17-1.68-.4-2.47-.75-.98-.42-1.87-1.01-2.55-1.86-.82-1.03-.74-1.77-.82-2.93,2-10,4.72-20.27,8.57-29.39.66-1.57,1.7-3.17,1.99-4.85.37-2.21.53-4.47.73-6.71.74-.36,1.48-.72,2.21-1.08,1.32-.65,2.94-1.12,3.64-2.5.84-1.66,1.39-3.53,1.97-5.35,1.99,0,4.35-.03,5.57-1.15,1.35-1.24,2.5-2.8,3.66-4.27,1.54.44,3.08.78,4.55-.02,1.83-1.01,3.61-2.14,5.41-3.2,4.96-2.93,9.91-5.87,14.87-8.8-.19,2.51.14,5.14.66,7.54.02.08.03.16.05.24.33,1.53.78,3.25,1.4,4.94.87,2.39,2.08,4.73,3.79,6.41Z"/>
  <path class="cls-3" d="M284.55,163.55c-.2.08-.4.16-.6.25-5.19,2.18-10.16,4.84-14.95,7.79-1.28.79-2.74,1.5-3.86,2.5-.21.19-.4.38-.59.59-.9,1.03-1.72,2.13-2.59,3.19-.06.08-.13.15-.19.23-1.46,1.6-3.15,1.69-5.29,2.03-.46.07-.91.15-1.37.22.18.82.01,1.69-.7,2.25-1.75,1.36-3.52,2.75-5.13,4.28-.2.19-.43.39-.61.6-.09.11-.19.25-.22.29,0,0,0,0,0,0,0,0,0,0,0,0,0,0,0,0,0,0-.43.89-.68,2.01-1.01,2.93-.84,2.33-1.67,4.67-2.49,7.01-3.05,8.71-5.93,17.53-7.84,26.57-.25,1.16-.48,2.32-.69,3.49-.59,3.26-5.54,1.87-4.96-1.37.19-1.07.4-2.14.63-3.21,2.03-9.66,5.15-19.05,8.43-28.35.9-2.57,1.83-5.12,2.75-7.68.54-1.49,1-2.57,2.12-3.69.86-.85,1.79-1.66,2.73-2.43-.1-.06-.21-.12-.31-.19-1.72-1.04-1.69-4.36.61-4.69,2.24-.32,4.47-.65,6.7-1,.72-.11,2.08-.62,2.95-.62.23-.34.51-.66.79-.98.16-.19.33-.38.48-.57.68-.83,1.32-1.85,2.1-2.59.33-.32.69-.62,1.08-.9,1.61-1.2,3.57-2.17,5.22-3.16,4.77-2.85,9.71-5.35,14.83-7.5.21-.09.42-.18.63-.26,3.06-1.26,4.38,3.71,1.37,4.96Z"/>
  <path class="cls-1" d="M283.19,158.59c-.21.09-.42.17-.63.26.33,1.53.78,3.25,1.4,4.94.2-.09.4-.17.6-.25,3.01-1.24,1.69-6.22-1.37-4.96ZM262.79,169.93c-.06-.15-.16-.29-.29-.42-.33-.36-.84-.65-1.24-.76-.62-.17-1.44-.1-1.98.26-.55.36-1.03.88-1.18,1.54-.16.72-.03,1.31.26,1.98.15.35.31.7.49,1.05.8,1.61,1.78,3.13,2.92,4.52.06-.07.13-.15.19-.23.87-1.05,1.7-2.16,2.59-3.19.18-.21.38-.4.59-.59-.17-.24-.34-.49-.5-.74-.71-1.09-1.32-2.24-1.84-3.43ZM232.06,223.2c-.22,1.07-.43,2.13-.63,3.21-.59,3.23,4.36,4.62,4.96,1.37.21-1.17.44-2.33.69-3.49-.9-.04-1.81-.18-2.55-.33-.83-.17-1.68-.4-2.47-.75Z"/>
  <path class="cls-1" d="M417.38,131.71h0c-.37-1.91-.9-3.74-1.58-5.47-.71-1.79-1.59-3.52-2.62-5.12-1.03-1.61-2.25-3.13-3.6-4.52-1.3-1.33-2.76-2.58-4.37-3.72-.12-.08-.23-.16-.35-.24.09-.36.17-.73.24-1.1.6-3.08.57-6.41-.1-9.91-.31-1.63-.76-3.2-1.33-4.68-.56-1.47-1.26-2.88-2.07-4.2.78-1,1.47-2.07,2.06-3.18,1.01-1.87,1.76-3.89,2.24-6.01.44-1.92.65-3.96.62-6.05-.02-1.83-.22-3.74-.6-5.66-.38-1.96-.95-3.87-1.7-5.67-.77-1.84-1.74-3.61-2.9-5.26-1.13-1.61-2.44-3.11-3.89-4.47-1.39-1.3-2.93-2.49-4.56-3.53-1.09-.7-2.24-1.33-3.4-1.86-1.15-.53-2.37-.99-3.62-1.37-1.2-.36-2.44-.65-3.69-.86-1.18-.2-2.41-.34-3.75-.42l-.88-.03c-.39,0-.9,0-1.49,0-.5,0-1.1.02-1.79.03l-21.35.82c-1.19.05-2.28.1-3.27.15-1.05.06-1.99.13-2.81.19-.96.08-1.79.17-2.49.26-.96.12-1.8.27-2.59.44-.03,0-.2.04-.23.05-1.46.35-2.88.8-4.2,1.35-1.42.59-2.77,1.29-4.02,2.08-1.31.83-2.54,1.79-3.66,2.84-.25.23-.49.47-.79.77l-4.05,4.13c-.08-.06-.16-.11-.24-.16-2.76-1.85-5.58-3.5-8.41-4.92-2.89-1.45-5.85-2.68-8.79-3.67-1.93-.65-3.89-1.17-5.86-1.62,1.09-1.88,2.06-3.83,2.89-5.87,1.55-3.82,3.18-8.49,1.58-12.54-1.4-3.54-4.78-5.26-8.3-6.07-3.91-.91-7.93-1.45-11.89-2.08-3.78-.6-8.26-1.17-11.4-3.55-2.47-1.87-2.64-4.6-2.99-7.45-.55-4.48-1.88-8.5-4.27-12.36-1.21-1.96-3.73-1.29-4.56.24-.43.7-.58,1.59-.18,2.51,1.7,4.01-.7,8.87-1.33,12.87-.82,5.18-.16,11.27,3.55,15.29,1.72,1.86,3.93,3.19,5.65,5.04,1.89,2.04,1.11,5.3.55,7.79-.56,2.52-1.38,5-2.13,7.5-1.97.64-3.9,1.37-5.74,2.2-3.44,1.55-6.71,3.47-9.74,5.7-3.01,2.23-5.85,4.82-8.43,7.71-.92,1.04-1.82,2.12-2.67,3.22-.75-1.59-1.61-3.09-2.57-4.48-1.23-1.78-2.65-3.4-4.24-4.84-1.37-1.23-2.84-2.34-4.35-3.29-1.57-.98-3.23-1.82-4.93-2.49-1.7-.67-3.48-1.19-5.31-1.54-1.76-.34-3.6-.53-5.62-.55l-1.55.02c-.06,0-.12,0-.18,0-2.04.08-4.03.35-5.9.79-2.04.48-4,1.17-5.82,2.06-1.9.92-3.68,2.07-5.29,3.39-1.39,1.14-2.67,2.43-3.82,3.84-1.28-1.17-2.63-2.24-4.05-3.19-1.65-1.1-3.41-2.05-5.23-2.81-1.83-.77-3.75-1.36-5.68-1.75-1.91-.39-3.9-.61-6.04-.64l-1.74.02c-2.21.09-4.37.4-6.4.91-2.17.55-4.26,1.34-6.19,2.36-1.97,1.03-3.83,2.32-5.52,3.82-1.59,1.41-3.04,3.02-4.28,4.75-.45.61-.87,1.22-1.26,1.83-1.16-1.5-2.45-2.86-3.87-4.06-1.41-1.2-2.91-2.27-4.44-3.19-1.59-.96-3.26-1.77-4.98-2.42-1.73-.66-3.53-1.17-5.34-1.5-1.78-.34-3.63-.52-5.62-.55l-1.73.02c-2.29.1-4.51.41-6.6.94-2.24.56-4.39,1.38-6.4,2.43-2.03,1.06-3.94,2.38-5.68,3.91-1.06.94-2.06,1.95-2.98,3.04-.7-.68-1.43-1.31-2.18-1.91-1.82-1.45-3.8-2.68-5.88-3.67-2.06-.98-4.27-1.73-6.57-2.23-2.18-.47-4.47-.73-6.93-.76l-1.85.03c-2.42.1-4.77.42-6.98.96-2.38.58-4.66,1.43-6.76,2.51-2.18,1.12-4.21,2.52-6.04,4.16-1.78,1.59-3.39,3.43-4.77,5.44-1.21,1.76-2.2,3.75-2.93,5.91-.61,1.79-1.07,3.75-1.36,5.84-.26,1.81-.4,3.78-.42,5.85-.02,1.9.05,3.96.22,6.12l.48,6.11c-1.01-.5-2.06-.94-3.14-1.33-1.81-.65-3.72-1.14-5.7-1.46-1.85-.3-3.78-.45-5.82-.46l-2.13.06c-2.12.11-4.19.4-6.17.88-2.08.5-4.1,1.21-5.99,2.1-1.94.92-3.78,2.06-5.48,3.39-1.66,1.3-3.21,2.8-4.59,4.47-1.56,1.87-2.89,3.98-3.97,6.25-1,2.11-1.79,4.4-2.37,6.83-.52,2.21-.87,4.6-1.03,7.09-.15,2.31-.15,4.77,0,7.29.23,3.76.76,7.42,1.58,10.87.54,2.29,1.24,4.56,2.06,6.75.03.1.06.19.1.29l12.94,33.93c.64,1.68,1.39,3.33,2.21,4.9.82,1.58,1.76,3.13,2.78,4.6,1.02,1.48,2.14,2.9,3.33,4.24,1.18,1.32,2.45,2.59,3.8,3.78,2.31,2.05,4.78,3.88,7.35,5.42,2.61,1.57,5.37,2.88,8.2,3.91,2.82,1.02,5.79,1.77,8.81,2.23,2.94.45,5.99.63,9.05.55h.21s2.93-.17,2.93-.17c2.46-.21,4.89-.59,7.21-1.12,1.13-.26,2.25-.56,3.36-.9l-.33,6.27c-.02.39-.03.78-.04,1.17,0,.38,0,.77,0,1.17,0,.38.02.76.05,1.15.03.4.06.8.07.91l4.45,52.18c.09,1.08.19,2.07.27,2.97.1.95.19,1.8.29,2.54.11.88.22,1.64.33,2.28.16.92.33,1.72.52,2.42.35,1.3.81,2.59,1.36,3.81.55,1.22,1.2,2.42,1.93,3.55.71,1.09,1.51,2.14,2.39,3.14.83.94,1.76,1.86,2.76,2.74,1.03.89,2.13,1.7,3.3,2.42.11.09.24.18.38.26,12.85,7.28,24.65,19.87,29.58,33.95,1.29,3.69,1.88,7.53,2.48,11.39.73,4.75,1.33,9.52,1.82,14.29.95,9.32,1.5,18.69,1.8,28.05.61,19.09.2,38.2.06,57.29-.06,9.23-.43,18.59.19,27.8.26,3.83,1.27,7.67,4.4,10.15,2.57,2.03,6.12,2.55,9.01.85,6.11-3.6,5.27-12.71,5.22-18.67-.09-9.74-.09-19.49,0-29.23.17-19.2.68-38.4,1.53-57.58.43-9.63.9-19.27,1.54-28.89.53-7.9,1.62-15.92,7.38-21.83,5.13-5.26,11.21-9.25,13.12-16.79.82-3.21,1.05-8.95,4.8-10.32,2.08-.77,4.55.88,6.63,1.36,5.57,1.28,11.19-.06,16.55-1.68,10.52-3.17,20.83-7.02,31.28-10.41l23.09-7.26c.17.1.34.2.51.29,1.45.81,2.97,1.48,4.52,2,.41.14.83.27,1.26.39,0,0,0,0,0,0,.14.06.29.1.45.14,3.57.82,7.05,3.09,9.38,5.89,2.12,2.55,5.23,6.05,5.78,9.27.84,4.92.52,10.2.84,15.17.14,2.1.13,4.43.7,6.47.7,2.53,3.9,3.38,5.31.87,1.08-1.93.76-4.87.78-6.99.02-2.83-.18-5.77.21-8.57.39-2.75,4.84-2.52,5.92-.15.7,1.55.75,3.34,1.49,4.91.86,1.82,2.31,3.04,4.09,3.93,1.61.81,3.17,1.33,3.98,3.07.92,1.99,1.02,4.41,1.26,6.55.62,5.39,1.06,10.8,1.3,16.22.42,9.18.25,18.4.28,27.59.04,10.61.06,21.23.3,31.84.06,2.48-.21,5.4.44,7.82.89,3.28,3.2,5.58,6.72,5.57,3.38,0,5.7-2.22,6.53-5.41.64-2.45.37-5.36.43-7.85.11-4.96.16-9.93.2-14.89.08-9.9.11-19.79.12-29.69,0-4.7-.01-9.4-.02-14.11-.01-5.47-.03-10.94-.04-16.42,0-4.53-.04-9.14.77-13.62.78-4.29,2.27-8.82,5.43-11.97,3.22-3.22,8.2-3.31,11.56-6.44,5.06-4.71,6.54-11.97,10.5-17.44,2.02-2.78,4.68-4.6,8.03-5.4.1-.02.19-.05.27-.08l12.18-2.9c1.09-.26,2.16-.58,3.17-.96,2.22-.82,4.32-1.94,6.24-3.32,1.89-1.37,3.61-3,5.1-4.86,1.38-1.72,2.58-3.64,3.56-5.69.7-1.45,1.28-2.96,1.72-4.45.45-1.51.78-3.09.99-4.69.19-1.56.27-3.15.22-4.75-.05-1.54-.22-3.09-.48-4.58-.29-1.64-.68-3.24-1.18-4.76-.51-1.58-1.14-3.11-1.86-4.56-.73-1.47-1.58-2.89-2.52-4.24-.94-1.33-1.98-2.61-3.09-3.79l-14.03-14.91,5.82-11.39c.84-1.64,1.57-3.27,2.16-4.85.64-1.72,1.16-3.43,1.51-5.1.4-1.81.63-3.63.69-5.42.05-1.48-.01-2.94-.19-4.38l32.36-18.51c.05-.03.1-.06.15-.09.01,0,.03-.02.04-.03.31-.18.59-.35.86-.53,1.84-1.18,3.47-2.59,4.87-4.22,1.34-1.57,2.49-3.29,3.41-5.1.92-1.83,1.62-3.78,2.08-5.8.43-1.91.65-3.91.65-5.96,0-1.86-.19-3.79-.57-5.72ZM332.48,116.74c.67.74,1.26,1.53,1.76,2.36.5.83.93,1.7,1.26,2.62.34.92.59,1.88.76,2.88.23,1.37.27,2.75.11,4.15-.16,1.4-.51,2.83-1.06,4.27-.55,1.44-1.3,2.91-2.24,4.39-.38.59-.81,1.19-1.25,1.79-.66.9-1.38,1.81-2.18,2.72-1.89,2.15-3.91,4.06-6.06,5.74-2.16,1.68-4.45,3.12-6.88,4.31-1.39.68-2.82,1.28-4.3,1.8-.1.03-.19.06-.29.1-.68.24-1.37.46-2.07.66-.22.06-.43.13-.65.19-.14.04-.27.08-.41.12-.73.19-1.46.36-2.21.52-.14.03-.28.05-.42.08-.74.15-1.48.27-2.24.39.77-.92,1.52-1.87,2.22-2.85,4.33-6.07,8.3-13.36,9.39-20.8.89-6.11.75-13.77-2.46-19.34.46-.29.91-.57,1.43-.79.67-.29,1.39-.51,2.15-.68.76-.17,1.58-.27,2.43-.32.08,0,.16,0,.24-.01s.16,0,.24,0c.08,0,.16,0,.24,0,.08,0,.16,0,.24,0,.89,0,1.77.08,2.63.23.86.15,1.7.38,2.54.68.83.3,1.64.68,2.44,1.13.8.45,1.58.98,2.35,1.58.84.66,1.59,1.36,2.26,2.1ZM302.83,64.15c2.34.79,4.66,1.76,6.97,2.92,2.31,1.16,4.6,2.5,6.88,4.03,1.97,1.32,3.72,2.66,5.25,4.02,1.38,1.23,2.58,2.47,3.62,3.73.12.14.24.28.36.43,1.11,1.41,2,2.84,2.69,4.29.68,1.44,1.15,2.91,1.41,4.39,0,.01,0,.02,0,.04.22,1.28.29,2.49.22,3.64-.07,1.15-.28,2.23-.64,3.26-.36,1.02-.86,1.98-1.51,2.88-.65.9-1.45,1.73-2.39,2.5-.54.44-1.09.83-1.67,1.18-.58.34-1.19.63-1.81.87-.62.24-1.27.43-1.94.57-.67.14-1.37.23-2.08.27-.07,0-.14,0-.21,0-.07,0-.14,0-.21,0-.07,0-.14,0-.21,0h-.21c-.52,0-1.04-.03-1.56-.09-.52-.06-1.03-.14-1.55-.25-.52-.11-1.03-.25-1.55-.42-.52-.17-1.03-.36-1.54-.59-.25-.11-.59-.32-1.04-.63-.44-.31-.99-.73-1.64-1.24-.65-.52-1.4-1.13-2.25-1.86-.85-.72-1.8-1.54-2.85-2.47-.9-.8-1.83-1.5-2.79-2.1-.96-.6-1.95-1.1-2.96-1.5-.45-.18-.91-.33-1.37-.47.32-1.36.75-2.69,1.34-3.94.95-2.01,2.29-3.85,2.89-6.02.96-3.51-.41-6.69-3.05-9.02-1.89-1.66-5.55-3.3-6.17-5.97-.36-1.55.44-3.14,1.62-4.64.96.11,1.93.22,2.89.39,2.38.42,4.73,1.02,7.08,1.81ZM267.11,26.62c-1.28-2.84-1.52-5.92-1-8.97.12-.69.26-1.37.4-2.05.26,2.14.61,4.27,1.75,6.16,3.61,6,11.65,7.06,17.93,8.01,3.47.53,7,1.05,10.41,1.88,1.4.34,3,.77,3.99,1.9,1.43,1.62.89,4.02.38,5.89-1.16,4.21-3.09,8.18-5.56,11.78-2.36,3.43-5.74,6.12-7.86,9.71-1.84,3.14-2.06,6.85.12,9.88,1.77,2.46,4.49,3.8,6.63,5.87,3,2.91-.28,6.29-1.59,9.3-1.68,3.87-2.38,8.12-2.14,12.33.2,3.61.71,8.42,3.05,11.36,2,2.5,5.04,2.78,8.02,2.79,2.65,0,5.37.01,6.95,2.48,1.56,2.43,2.08,5.67,2.32,8.49.34,4.12.02,8.31-1.22,12.26-1.21,3.88-3.35,7.65-5.45,11.12-3.89,6.44-9.11,11.47-15.24,15.68-.23-.58-.44-1.2-.65-1.85.18-.13.35-.29.52-.49,7.33-9.38,8.68-22.42,3.39-33.12-.91-1.84-2.07-3.51-3.33-5.1,5.52,2.12,11.87,4.23,12.73,10.45.13.92,1.3,1.41,2.11,1.2.99-.26,1.32-1.2,1.2-2.11-1.07-7.75-9.28-10.42-15.49-12.93-2.78-1.12-6.13-2.61-7.59-5.4-.03-.06-.07-.12-.11-.19-.65-1.33-1.11-2.93-1.26-4.53-.17-4.04,1.67-8.23,2.97-11.92.74-2.1,1.42-4.29,1.82-6.5,0,0,0-.01,0-.02.02-.1.03-.19.05-.29.06-.37.12-.74.16-1.11.37-2.61.41-5.24-.06-7.86-.57-3.23-2.19-5.74-3.61-8.63-2.8-5.7-3.51-12.52.22-17.97,1.25-1.83-1.72-3.54-2.96-1.73-3.53,5.17-3.77,11.78-1.81,17.59.61,1.8,1.52,3.44,2.4,5.09-2.35-2.01-4.87-3.86-6.43-6.59-6.45-11.25,10.47-25.99-.34-35.88-2.05-1.88-4.65-3.37-5.83-5.98ZM297.52,162.45c0,.08,0,.16-.02.24-.04.4-.1.81-.18,1.2-.2.96-.46,1.91-1,2.73-.06.1-.1.16-.12.2-.03.02-.07.07-.15.15-.02.02-.13.12-.17.16-.03,0-.05.02-.1.03-.46.17-.97.32-1.46.37-1.15.14-1.94-.14-2.59-.68,2.02-1.38,3.96-2.84,5.8-4.4ZM268.3,177.47c-.69-.59-1.34-1.22-1.95-1.89-.33-.36-.64-.74-.95-1.12,0,0,0,0,0,0-.08-.11-.16-.22-.24-.34,0,0-.01-.02-.02-.02-.21.19-.4.38-.59.59-.9,1.03-1.72,2.13-2.59,3.19-.06.08-.13.15-.19.23.9,1.11,1.91,2.14,3,3.08-.14.22-.27.44-.4.66-.43.71-1.08,1.49-1.48,2.28-.27.11-.54.25-.8.34-1.98.66-3.96.79-6.03.61-3.27-.28-3.26,4.73-.08,5.12-.45.76-.91,1.53-1.36,2.29-1.8,3.04-3.6,6.09-5.26,9.21-3.39,6.34-5.7,13.48-7.59,20.44-.42.66-.89,1.26-1.64,1.67-.78.43-1.91.53-3.05.48-.25,1.16-.48,2.32-.69,3.49-.59,3.26-5.54,1.87-4.96-1.37.19-1.07.4-2.14.63-3.21-.98-.42-1.87-1.01-2.55-1.86-.82-1.03-.74-1.77-.82-2.93,2-10,4.72-20.27,8.57-29.39.66-1.57,1.7-3.17,1.99-4.85.37-2.21.53-4.47.73-6.71.74-.36,1.48-.72,2.21-1.08,1.32-.65,2.94-1.12,3.64-2.5.84-1.66,1.39-3.53,1.97-5.35,1.99,0,4.35-.03,5.57-1.15,1.35-1.24,2.5-2.8,3.66-4.27,1.54.44,3.08.78,4.55-.02,1.83-1.01,3.61-2.14,5.41-3.2,4.96-2.93,9.91-5.87,14.87-8.8-.19,2.51.14,5.14.66,7.54.02.08.03.16.05.24.21-.09.42-.18.63-.26,3.06-1.26,4.38,3.71,1.37,4.96-.2.08-.4.16-.6.25.87,2.39,2.08,4.73,3.79,6.41-.63.26-1.26.52-1.89.77-4.96,1.91-9.93,3.83-14.89,5.75-.81.32-1.62.63-2.43.94,0,0,0,0,0,0-.03-.03-.04-.03-.02-.02-.07-.06-.14-.11-.21-.17ZM286.97,153.9c-.05-.71-.07-1.41-.05-2.12.04-1,.16-1.89.55-2.93.22-.59.77-1.43,1.24-1.77.06-.04.1-.09.15-.13.29-.06.55-.1.83-.12-.55,2.48-1.45,4.88-2.72,7.08ZM244.28,103.09c0-.5.03-.99.05-1.48,0-.19,0-.37.02-.56,0-.08.02-.16.02-.24.04-.57.09-1.14.15-1.7.02-.17.03-.34.05-.51.09-.73.19-1.45.32-2.17.03-.18.07-.36.11-.55.1-.53.2-1.07.32-1.59.06-.25.12-.5.19-.76.11-.45.23-.91.36-1.36.04-.13.06-.25.1-.38.04-.14.09-.27.14-.41.13-.44.27-.87.43-1.3.09-.25.17-.51.27-.76.17-.46.36-.92.54-1.38.08-.21.16-.42.25-.63.28-.66.58-1.31.9-1.96.03-.06.06-.11.09-.16.3-.59.61-1.18.93-1.76.03-.05.06-.11.09-.16.09-.16.19-.31.28-.47.25-.42.5-.84.76-1.26.15-.23.3-.47.45-.7,1.21-1.84,2.58-3.63,4.11-5.36,1.94-2.17,4.03-4.09,6.28-5.74,1.78-1.31,3.67-2.42,5.64-3.41.42,2.17,1.22,4.23,2.55,6.03,1.66,2.25,3.83,3.93,5.95,5.73,1.99,1.69,3.95,3.51,4.64,6.12.61,2.32.15,4.75-.47,7.01-.6,2.18-1.39,4.3-2.14,6.43-.35.53-.67,1.07-.94,1.62-.48.98-.85,1.99-1.11,3.05-.26,1.06-.41,2.17-.44,3.31-.04,1.15.04,2.34.23,3.58.06.42.15.83.24,1.25.33,1.86,1,3.58,1.9,5.22.05.09.09.18.14.26.04.07.09.14.14.22,1.18,2.01,2.67,3.9,4.31,5.72,4.35,4.85,7.57,9.94,8.14,16.6.09,1.07.1,2.14.07,3.22-.49,0-.98.03-1.46.08-.11.01-.22.02-.33.04-.47.06-.93.15-1.39.25-.44.11-.8.3-1.07.54-4.36,2.58-8.71,5.16-13.07,7.74,0,0,0,0,0,0l-12.61,7.63,10.54-8.79c-1.62-.94-3.19-1.93-4.69-3.03-1.9-1.39-3.7-2.9-5.42-4.54-1.72-1.64-3.34-3.41-4.88-5.3-1.53-1.9-2.92-3.85-4.14-5.85-1.23-2-2.31-4.06-3.24-6.17-.93-2.11-1.7-4.27-2.33-6.48-.62-2.21-1.1-4.47-1.42-6.78-.11-.8-.2-1.6-.28-2.39-.02-.25-.04-.51-.06-.76-.05-.54-.08-1.07-.11-1.6-.01-.29-.02-.58-.03-.86-.02-.49-.02-.99-.02-1.48,0-.29,0-.58,0-.87ZM200.58,80.58c0-.42.02-.83.04-1.24,0-.19.02-.39.03-.57.04-.5.1-.99.16-1.46,0-.06.01-.12.02-.18,0,0,0-.02,0-.02.09-.53.19-1.03.32-1.51.04-.14.08-.27.12-.41.1-.33.2-.66.32-.97.03-.07.05-.15.07-.22.03-.09.08-.16.11-.24.36-.84.78-1.6,1.3-2.27.64-.83,1.34-1.57,2.12-2.2.77-.63,1.6-1.17,2.5-1.61.9-.44,1.86-.78,2.89-1.02,1.03-.24,2.12-.38,3.28-.43h.28c.09-.01.19-.01.28-.02h.27c.09,0,.18,0,.27,0,1.04.02,2.04.12,3.02.31.97.19,1.91.46,2.81.81.9.36,1.78.79,2.61,1.32s1.64,1.13,2.41,1.83c.76.69,1.45,1.49,2.08,2.4.62.9,1.18,1.91,1.66,3.03.49,1.11.9,2.34,1.26,3.67.35,1.33.63,2.77.84,4.32l2.9,21.1,4.91,35.79c.18,1.26.26,2.46.25,3.62,0,1.16-.11,2.27-.29,3.33s-.46,2.08-.83,3.04c-.36.97-.82,1.88-1.37,2.75-.58.95-1.25,1.79-2,2.53-.75.74-1.59,1.37-2.5,1.88-.92.52-1.92.94-3.01,1.24-1.09.31-2.26.5-3.52.6-.09,0-.18.01-.27.02-.09,0-.18,0-.27.02-.09,0-.18,0-.27,0-.09,0-.18,0-.27,0-1.04.02-2.07-.06-3.06-.23-.99-.17-1.96-.44-2.91-.79-.94-.36-1.86-.81-2.74-1.36-.89-.54-1.75-1.18-2.59-1.91-.76-.66-1.45-1.42-2.07-2.28-.62-.86-1.16-1.82-1.63-2.87-.47-1.05-.87-2.21-1.2-3.46-.33-1.25-.58-2.6-.77-4.04l-7.29-57.57c-.09-.72-.16-1.41-.21-2.09-.02-.21-.02-.42-.04-.62-.03-.46-.05-.91-.05-1.36,0-.11-.01-.23-.02-.33,0-.11,0-.22.01-.33ZM105.65,83.4c.05-.65.14-1.27.27-1.89.14-.61.31-1.21.53-1.79s.48-1.15.78-1.7c.3-.55.64-1.09,1.02-1.61.75-1.03,1.57-1.95,2.46-2.73.89-.79,1.86-1.45,2.89-1.99,1.03-.54,2.14-.96,3.31-1.26,1.17-.3,2.42-.47,3.74-.53.09,0,.18,0,.27,0,.09,0,.18,0,.27,0h.53c1.07.02,2.1.12,3.11.31,1.01.19,1.98.46,2.93.82.95.36,1.87.81,2.75,1.34s1.75,1.15,2.59,1.86c.78.66,1.48,1.43,2.1,2.3.62.87,1.17,1.85,1.64,2.94.47,1.08.86,2.28,1.18,3.58.32,1.3.55,2.72.71,4.24l3.9,37.05c.14,1.3.36,2.49.67,3.55.1.35.22.69.34,1.02.02.07.06.13.08.19.48,1.22,1.09,2.24,1.84,3.07.79.87,1.74,1.52,2.83,1.95,1.09.43,2.34.64,3.73.63.06,0,.13,0,.19,0,.06,0,.13,0,.2,0,.06,0,.13,0,.2,0,.07,0,.13,0,.2,0,1.52-.1,2.82-.4,3.91-.9.07-.03.13-.07.2-.11.99-.5,1.8-1.17,2.42-2.04.35-.48.63-1.03.86-1.63.13-.36.24-.73.34-1.13.02-.1.05-.21.07-.32.02-.1.05-.19.07-.3.06-.34.1-.69.13-1.05,0-.02,0-.04,0-.05.04-.46.05-.95.04-1.45,0-.13,0-.26,0-.4-.02-.53-.05-1.07-.11-1.65l-4.15-37.29c-.1-.85-.18-1.62-.24-2.32-.06-.7-.12-1.32-.15-1.86-.04-.55-.06-1.02-.07-1.41,0-.4,0-.72.02-.97.04-.47.12-.94.24-1.41,0,0,0-.02,0-.02,0,0,0-.02.01-.03.12-.47.27-.94.47-1.41.2-.48.44-.96.73-1.45.28-.48.61-.97.97-1.45.7-.97,1.46-1.83,2.29-2.56.83-.74,1.73-1.36,2.7-1.87.97-.51,2.01-.9,3.11-1.18,1.11-.28,2.28-.44,3.52-.49.09,0,.18,0,.27,0,.09,0,.19,0,.27,0,.09,0,.18,0,.27,0s.18,0,.27,0c1.13.02,2.23.14,3.29.35,1.06.21,2.08.53,3.07.95.99.41,1.94.93,2.85,1.54.92.61,1.8,1.32,2.64,2.13.7.67,1.34,1.47,1.91,2.4.57.93,1.09,2,1.54,3.19.45,1.19.85,2.52,1.18,3.97.33,1.45.61,3.04.82,4.76l1.4,11.49.86,7.02,1.73,14.15c.38,3.07.53,6,.45,8.8-.08,2.8-.39,5.48-.92,8.01-.54,2.54-1.31,4.95-2.31,7.22-.74,1.69-1.61,3.3-2.61,4.84-.02.03-.04.06-.06.09-.33.51-.68,1.01-1.04,1.5-1.84,2.5-3.83,4.73-5.99,6.67-2.16,1.95-4.48,3.61-6.96,4.99-2.49,1.38-5.13,2.48-7.94,3.28-2.81.81-5.79,1.33-8.92,1.56-.21.02-.42.03-.62.04-.21.01-.42.02-.62.03-.21.01-.42.02-.62.02-.21,0-.41.01-.62.02-1.71.03-3.41-.04-5.1-.22-1.69-.18-3.37-.45-5.04-.83-1.67-.38-3.34-.86-4.99-1.45-1.65-.58-3.29-1.27-4.92-2.06-2.33-1.13-4.51-2.41-6.53-3.83-2.03-1.43-3.9-3.01-5.62-4.73-1.72-1.73-3.28-3.6-4.69-5.62-1.41-2.02-2.66-4.19-3.76-6.5-.5-1.06-.96-2.21-1.38-3.44-.42-1.24-.79-2.56-1.13-3.98-.33-1.41-.62-2.92-.87-4.51-.25-1.59-.46-3.27-.62-5.04l-3.16-33.67c-.09-.96-.16-1.85-.23-2.65-.06-.8-.11-1.52-.15-2.16-.03-.64-.06-1.19-.06-1.67,0-.47,0-.86.02-1.18ZM88.69,159.65c-1.67,1.89-3.59,3.68-5.73,5.35-1.69,1.32-3.44,2.51-5.26,3.55-1.83,1.04-3.71,1.93-5.67,2.68-1.96.75-3.98,1.36-6.07,1.81-2.09.46-4.25.77-6.48.94-.24.02-.48.03-.72.05-.24.02-.48.03-.72.04-.24,0-.48.02-.71.03-.24,0-.47.01-.71.02-2.81.05-5.53-.13-8.17-.55-2.64-.42-5.18-1.08-7.64-1.98-2.46-.9-4.82-2.03-7.09-3.4-2.27-1.37-4.45-2.98-6.53-4.83-.54-.48-1.07-.98-1.58-1.48-.17-.16-.32-.33-.49-.5-.34-.35-.67-.69-.99-1.05-.18-.2-.36-.41-.54-.61-.29-.33-.57-.67-.85-1.02-.18-.22-.35-.44-.52-.66-.12-.15-.24-.3-.36-.45-.15-.19-.28-.4-.42-.6-.16-.22-.32-.44-.47-.67-.26-.38-.51-.78-.76-1.17-.13-.21-.26-.41-.39-.62-.31-.51-.6-1.03-.88-1.56-.05-.1-.11-.19-.16-.29-.31-.59-.6-1.19-.88-1.79-.02-.04-.03-.08-.05-.12-.09-.19-.16-.39-.25-.59-.2-.46-.4-.93-.58-1.4-.68-1.75-1.26-3.58-1.71-5.49-.64-2.68-1.04-5.5-1.22-8.47-.12-1.97-.13-3.81-.01-5.53.11-1.71.34-3.31.69-4.77s.81-2.81,1.39-4.03c.58-1.22,1.27-2.32,2.08-3.3.75-.9,1.56-1.69,2.44-2.38.88-.69,1.83-1.27,2.84-1.75,1.01-.48,2.09-.86,3.24-1.13,1.14-.27,2.35-.44,3.63-.51.12,0,.24-.01.36-.02.12,0,.24,0,.36-.01.12,0,.24,0,.36,0,.12,0,.23,0,.35,0,1.24,0,2.42.1,3.54.27,1.12.18,2.19.45,3.19.82,1,.36,1.95.81,2.84,1.35s1.72,1.17,2.5,1.89c.85.79,1.6,1.64,2.26,2.55.66.92,1.22,1.9,1.7,2.94.47,1.05.85,2.16,1.13,3.34.14.58.26,1.18.35,1.79,0,.02,0,.03,0,.05.1.61.17,1.25.22,1.9.02.29.04.6.06.94s.05.7.08,1.1c.03.39.06.81.1,1.25.03.44.07.91.1,1.41,0,.05,0,.1,0,.17,0,.07,0,.14.02.23,0,.09.01.18.02.28,0,.1.02.21.02.33.08,1.13.28,2.12.59,2.97.24.64.57,1.17.93,1.65.12.15.22.32.36.46.54.56,1.2.98,1.97,1.26s1.66.41,2.66.4h.15s.1,0,.15,0c.05,0,.1,0,.15,0,.05,0,.1,0,.15,0,.75-.05,1.43-.18,2.04-.39.61-.21,1.16-.5,1.63-.87.48-.37.88-.82,1.22-1.35.34-.53.61-1.14.82-1.83.07-.23.12-.56.16-.99s.05-.95.05-1.56c0-.62-.02-1.33-.06-2.13-.04-.81-.1-1.71-.18-2.71l-2.76-35.53c-.14-1.75-.2-3.38-.18-4.86s.11-2.84.28-4.06c.17-1.22.42-2.31.75-3.26.32-.95.73-1.78,1.2-2.47.76-1.11,1.62-2.09,2.56-2.93.95-.85,1.98-1.56,3.11-2.14,1.13-.58,2.34-1.03,3.65-1.35,1.31-.32,2.71-.51,4.2-.57.1,0,.21,0,.32-.01.11,0,.21,0,.32,0,.1,0,.21,0,.32,0s.21,0,.32,0c1.39.02,2.71.17,3.95.44,1.25.27,2.43.67,3.55,1.2,1.11.53,2.16,1.18,3.14,1.96.98.78,1.89,1.69,2.74,2.72.39.48.75.97,1.07,1.48.32.51.61,1.04.87,1.58.26.54.49,1.1.68,1.67.19.57.36,1.16.49,1.77.03.15.06.41.11.79.04.38.09.87.15,1.47.06.6.13,1.32.21,2.15.08.83.17,1.78.26,2.84l2.97,33.18c.15,1.73.28,3.33.37,4.82.1,1.49.16,2.85.19,4.09.03,1.24.04,2.36.01,3.36-.02,1-.08,1.87-.17,2.62-.28,2.52-.79,4.93-1.53,7.23-.74,2.31-1.71,4.51-2.92,6.61-1.2,2.1-2.64,4.1-4.31,5.98ZM91.12,196.12c.19-1.39.56-2.71,1.11-3.94.54-1.24,1.26-2.4,2.15-3.48.89-1.08,1.95-2.09,3.19-3.02.58-.44,1.23-.85,1.94-1.22.71-.37,1.49-.71,2.33-1.01.84-.3,1.75-.57,2.72-.8.97-.23,2.01-.42,3.11-.58.24-.05.64-.1,1.21-.16.57-.06,1.31-.13,2.21-.2.02,0,.04,0,.05,0,.89-.07,1.93-.15,3.14-.25,1.23-.09,2.62-.19,4.18-.3l4.77-.37c.89-.07,1.75-.13,2.58-.19.83-.06,1.64-.1,2.42-.15s1.53-.08,2.26-.11c.73-.02,1.43-.05,2.1-.06.89-.02,1.74-.02,2.54-.02.8,0,1.55.02,2.26.05.71.03,1.37.07,1.99.12.61.05,1.19.12,1.71.19,2.06.32,4.02.78,5.86,1.4,1.84.62,3.58,1.38,5.21,2.3,1.63.91,3.16,1.98,4.57,3.2,1.02.87,1.96,1.84,2.86,2.86.36.41.74.8,1.08,1.24.99,1.25,1.89,2.54,2.68,3.87.79,1.33,1.48,2.69,2.06,4.1.58,1.41,1.07,2.84,1.44,4.32.38,1.48.65,3,.82,4.56.14,1.21.17,2.46.11,3.73-.06,1.28-.22,2.58-.47,3.92-.25,1.34-.6,2.71-1.05,4.1-.45,1.4-1,2.84-1.65,4.3.46.37.9.73,1.34,1.09.6.5,1.18.99,1.72,1.48.94.84,1.79,1.66,2.57,2.46.78.81,1.47,1.59,2.08,2.36.61.77,1.14,1.53,1.58,2.26.63,1.05,1.2,2.11,1.71,3.2.51,1.09.95,2.2,1.34,3.33.38,1.13.71,2.29.97,3.46.26,1.18.46,2.37.59,3.59.26,2.29.29,4.51.1,6.66-.19,2.16-.61,4.25-1.26,6.27-.65,2.03-1.52,3.98-2.63,5.88-.38.65-.79,1.29-1.23,1.92-.83,1.22-1.75,2.41-2.78,3.57-.84.95-1.7,1.83-2.57,2.63-.87.81-1.75,1.54-2.65,2.2-.86.63-1.72,1.19-2.6,1.68-.05.02-.09.06-.13.08-.03.02-.06.03-.1.05-.4.22-.81.43-1.21.62-.08.04-.15.07-.23.11-.42.19-.85.38-1.28.55-.69.26-1.49.51-2.4.75-.9.24-1.91.47-3.03.69-1.12.22-2.34.42-3.67.62-1.33.19-2.77.38-4.31.56l-27.97,3.18c-.18.02-.36.04-.53.06-.18.02-.35.03-.53.05-.17.02-.35.03-.52.04-.17.01-.34.02-.51.03-1.44.08-2.8.06-4.09-.06-1.29-.12-2.5-.33-3.63-.65-1.13-.31-2.18-.72-3.16-1.23-.98-.51-1.87-1.12-2.68-1.83-.65-.57-1.24-1.15-1.78-1.76-.53-.61-1.02-1.24-1.44-1.88-.42-.65-.79-1.32-1.1-2.01-.31-.69-.56-1.4-.76-2.13-.1-.35-.19-.81-.29-1.38-.1-.57-.2-1.26-.3-2.06-.1-.8-.2-1.71-.31-2.74-.11-1.03-.21-2.16-.32-3.41l-5.56-64.29c-.16-1.54-.14-3.01.05-4.4ZM254.94,271.14c-2.14.89-4.35,1.63-6.65,2.22-.14.04-.28.07-.43.1-.91.23-1.84.43-2.77.61-.28.06-.57.11-.85.16-1.08.19-2.17.36-3.27.48-.26.03-.52.06-.78.08-.26.02-.51.05-.77.07-.26.02-.52.04-.77.06-.26.02-.51.03-.77.05-2.16.11-4.3.09-6.44-.07-2.14-.16-4.26-.47-6.37-.91-2.12-.44-4.22-1.03-6.3-1.76-2.09-.73-4.16-1.59-6.22-2.6-2.31-1.13-4.5-2.39-6.57-3.78-2.08-1.39-4.04-2.91-5.87-4.56-1.84-1.65-3.56-3.42-5.17-5.32-1.6-1.9-3.08-3.93-4.44-6.09-1.15-1.81-2.18-3.67-3.11-5.59-.92-1.92-1.74-3.89-2.44-5.93-.7-2.03-1.29-4.12-1.78-6.26-.48-2.14-.85-4.34-1.11-6.58-.21-1.85-.32-3.7-.32-5.53,0-1.83.09-3.65.28-5.47.19-1.81.49-3.61.89-5.41.4-1.79.89-3.57,1.49-5.35.44-1.34.95-2.64,1.48-3.91.17-.41.37-.8.55-1.21.38-.85.78-1.69,1.2-2.5.23-.45.48-.89.73-1.32.41-.74.85-1.48,1.3-2.19.27-.43.55-.86.83-1.28.48-.71.99-1.4,1.5-2.08.22-.29.44-.58.67-.87.93-1.16,1.9-2.3,2.94-3.38,1.67-1.73,3.48-3.34,5.44-4.85,1.91-1.47,3.89-2.78,5.94-3.93,2.05-1.15,4.18-2.15,6.39-2.98,2.2-.84,4.48-1.52,6.83-2.04.62-.14,1.26-.24,1.9-.36.99-.18,2-.34,3.01-.47.78-.1,1.57-.21,2.37-.28.3-.02.6-.05.9-.07.3-.02.6-.04.9-.06.3-.02.6-.03.9-.04.3-.01.6-.02.89-.02,2.1-.04,4.17.05,6.22.27.59.06,1.18.16,1.77.25,1.09-1.96,2.71-4.75,3.9-6.5.7-.8,1.77-.99,2.75-.88l3.5.08-3.47.5c-.63.07-1.09.11-1.49.43-.46.3-.54.6-.76,1.21-.53,1.34-1.4,3.81-1.97,5.58h0s-.02.04-.02.06c0,.03-.02.06-.03.09h0s0,.01,0,.02c-2.42,1.03-6.02,2.17-6.44,4.77-.21,1.31-.28,2.66-.42,3.98-.1.99-.64,2.78-.53,3.93-.01.03-.02.04-.03.06-.44.92-.85,1.86-1.25,2.8-1.61,3.78-3.01,7.64-4.24,11.56-.21.67-.4,1.36-.6,2.03-.26.13-.54.23-.79.37-.71.4-1.4.85-2.05,1.36-.68.52-1.3,1.08-1.88,1.68-.36.37-.69.77-1.02,1.17-.08.1-.15.2-.23.3-.18.23-.35.47-.52.72-.1.15-.19.29-.29.44-.16.25-.31.5-.45.76-.08.15-.17.3-.25.46-.15.28-.28.57-.41.87-.06.14-.13.27-.19.42-.19.44-.36.89-.51,1.35-.21.61-.38,1.23-.52,1.85-.14.62-.24,1.24-.31,1.87-.07.63-.1,1.26-.1,1.89,0,.63.04,1.27.11,1.91.09.78.22,1.54.38,2.28.17.74.37,1.46.61,2.17.24.7.52,1.39.84,2.05.32.67.68,1.31,1.07,1.93.47.75.98,1.45,1.54,2.11.56.66,1.15,1.27,1.79,1.84.64.57,1.31,1.09,2.03,1.58.72.48,1.48.91,2.27,1.31.71.35,1.43.65,2.15.9.72.25,1.45.45,2.18.61.73.15,1.47.26,2.21.32.74.06,1.48.06,2.22.02.09,0,.18,0,.27-.02s.18-.01.27-.02c.09,0,.18-.02.27-.02.09,0,.18-.02.27-.03.38-.04.76-.1,1.13-.17.1-.02.2-.04.3-.06.32-.06.64-.13.96-.21.05-.01.1-.02.15-.03.79-.2,1.56-.46,2.3-.77.23-.1.45-.2.67-.31.51-.24,1-.49,1.49-.78.69-.42,1.35-.89,1.99-1.41.6-.49,1.15-1.01,1.67-1.57.51-.55.99-1.13,1.42-1.75.43-.61.82-1.25,1.18-1.92.27-.51.5-1.05.73-1.59.07-.17.14-.34.21-.51.27-.73.49-1.46.67-2.2.17-.74.3-1.49.37-2.24.08-.75.1-1.51.09-2.27-.02-.76-.09-1.53-.2-2.31-.1-.69-.24-1.37-.41-2.03-.17-.66-.38-1.31-.63-1.95-.06-.17-.14-.33-.2-.49-.19-.46-.4-.92-.63-1.37-.06-.11-.13-.22-.19-.33.71-1.62,1.46-3.23,2.3-4.77,1.7-3.13,3.51-6.19,5.33-9.26.82-1.4,1.9-2.85,2.63-4.37,1.96-.4,3.78-1.16,4.82-2.52.5-.65,1-1.38,1.49-2.13.01.01.02.02.04.03.11.11.22.21.33.32,1.03,1.03,2.04,2.08,2.99,3.19,1.55,1.8,2.99,3.72,4.33,5.75,1.11,1.68,2.12,3.4,3.03,5.16.67,1.3,1.27,2.63,1.83,3.97.2.47.41.94.59,1.42.71,1.84,1.31,3.71,1.81,5.62.5,1.91.9,3.87,1.2,5.87.33,2.25.53,4.47.59,6.68.06,2.21-.02,4.4-.24,6.58-.22,2.18-.58,4.34-1.08,6.47-.5,2.14-1.14,4.27-1.93,6.37-.19.5-.4.98-.6,1.47-.64,1.58-1.32,3.13-2.1,4.61-1.02,1.94-2.15,3.8-3.4,5.57-1.25,1.77-2.62,3.45-4.11,5.05-1.49,1.6-3.1,3.11-4.82,4.53-1.83,1.51-3.75,2.87-5.75,4.08-1.39.84-2.83,1.58-4.29,2.27-.65.31-1.29.62-1.95.9ZM367.28,231.4c.66.7,1.27,1.44,1.81,2.22s1.02,1.58,1.44,2.43c.42.84.78,1.72,1.07,2.63.3.92.53,1.87.7,2.85.16.89.25,1.77.28,2.63.03.86-.01,1.7-.11,2.53-.1.83-.27,1.64-.51,2.44s-.54,1.58-.91,2.34c-.53,1.12-1.16,2.12-1.86,3-.71.88-1.5,1.63-2.37,2.26-.87.63-1.83,1.14-2.88,1.53-.52.19-1.06.35-1.62.48-.01,0-.02,0-.03,0-.56.13-1.13.23-1.73.3-.08,0-.16.02-.24.02-.08,0-.16.02-.24.02s-.16.01-.24.02-.16,0-.24.02c-1.13.06-2.24-.02-3.32-.22-1.08-.2-2.14-.54-3.18-1-1.03-.47-2.05-1.06-3.03-1.79-.99-.73-1.95-1.58-2.88-2.57l-15.15-15.95-9.7,18.57c-.67,1.28-1.41,2.42-2.22,3.41-.55.68-1.14,1.26-1.75,1.8-.29.26-.58.53-.89.76-.95.71-1.97,1.28-3.05,1.71-.53.21-1.08.38-1.65.52-.02,0-.05,0-.07.02-.57.14-1.15.24-1.75.31-.09,0-.17.02-.26.03-.09,0-.17.02-.26.02-.08,0-.17.02-.26.02-.09,0-.17,0-.26.01-.96.05-1.91.01-2.84-.11-.93-.13-1.83-.34-2.73-.65-.89-.3-1.76-.69-2.62-1.17-.85-.48-1.69-1.05-2.5-1.7-.89-.71-1.68-1.48-2.39-2.29-.71-.82-1.33-1.69-1.86-2.61-.53-.92-.96-1.9-1.31-2.92-.35-1.03-.61-2.1-.78-3.23-.15-1.03-.23-2.04-.23-3.03,0-.99.09-1.96.25-2.92.16-.95.4-1.89.72-2.81.32-.92.71-1.82,1.18-2.7l13.8-25.76-15.59-16.61c-1.23-1.31-2.32-2.57-3.27-3.77-.95-1.2-1.77-2.35-2.45-3.44-.68-1.09-1.22-2.12-1.63-3.11-.4-.98-.67-1.9-.81-2.77-.13-.88-.19-1.75-.17-2.6.02-.85.11-1.69.28-2.51.1-.48.23-.95.38-1.41,2.61-1.01,5.23-2.02,7.84-3.03,1.14-.44,2.3-1,3.48-1.33.22-.06.41-.15.58-.24,1.32-.53,2.5-1.38,3.34-2.59.56-.82.98-1.73,1.29-2.69,0,0,.02,0,.02,0,.61-1.91.92-3.97.85-6.08.75,2.06,1.12,4.3,1.12,6.6.55.19,1.1.41,1.64.66,1.06.5,2.1,1.14,3.12,1.9,1.02.77,2.02,1.66,3,2.69l6.85,7.19,4.94,5.18,6.98-12.57c.04-.07.08-.13.12-.2.77-1.37,1.58-2.59,2.42-3.64.89-1.11,1.82-2.04,2.78-2.81.97-.77,1.98-1.36,3.03-1.79,1.05-.43,2.14-.68,3.27-.77.09,0,.17-.01.26-.02.08,0,.17,0,.25-.01h.25c.09-.01.17-.02.25-.02.65-.01,1.29.03,1.92.1.48.05.96.11,1.43.21,1.08.23,2.13.57,3.15,1.04,1.02.47,2,1.06,2.95,1.77.67.5,1.32,1.09,1.96,1.71.27.26.54.51.8.79.25.27.49.55.72.83.28.35.56.7.81,1.06.46.65.86,1.32,1.2,2,.35.68.64,1.38.88,2.1.24.72.43,1.46.56,2.21.15.86.21,1.77.18,2.7-.03.94-.16,1.91-.38,2.92-.22,1.01-.53,2.06-.94,3.14-.41,1.08-.91,2.21-1.5,3.37l-10.33,20.23,20.83,22.12ZM403.53,138.36c-.2.9-.51,1.75-.92,2.57-.41.81-.92,1.58-1.54,2.3-.48.56-1.07,1.07-1.77,1.51-.31.2-.64.38-.99.55-.06.03-.12.06-.19.1-.36.17-.74.33-1.14.48-.03.01-.06.03-.1.04-.06.02-.14.04-.21.06-.33.11-.68.22-1.03.32-.11.03-.22.06-.33.09-.45.12-.92.23-1.42.32-.02,0-.04.01-.06.02-.07.01-.15.02-.21.03-.43.08-.87.15-1.32.21-.15.02-.3.04-.45.06-.56.07-1.12.13-1.72.17l-21.93,1.59c-.4.03-.8.06-1.18.08s-.76.04-1.12.06c-.36.02-.72.03-1.07.04-.35.01-.69.02-1.01.02-.74,0-1.43,0-2.07-.02-.64-.02-1.24-.06-1.79-.12s-1.05-.13-1.51-.21c-.45-.09-.86-.19-1.22-.31-1.03-.34-1.98-.75-2.87-1.23-.89-.48-1.7-1.03-2.45-1.66-.75-.62-1.43-1.32-2.04-2.08-.61-.77-1.15-1.6-1.61-2.5-.3-.58-.58-1.26-.86-2.03s-.55-1.64-.82-2.61c-.27-.96-.52-2.02-.77-3.18-.25-1.16-.49-2.41-.73-3.75l-8.3-47.83c-.17-.99-.32-1.89-.45-2.71-.13-.82-.23-1.56-.32-2.22-.08-.66-.15-1.24-.18-1.74-.04-.5-.06-.92-.06-1.25,0-.69.04-1.35.12-1.99.09-.64.22-1.25.4-1.84.17-.59.4-1.15.66-1.69.27-.54.57-1.05.93-1.54.41-.55.86-1.06,1.35-1.52.49-.46,1.02-.87,1.59-1.24.57-.36,1.19-.68,1.84-.95.65-.27,1.35-.49,2.09-.67.35-.07.79-.15,1.33-.22.54-.07,1.17-.13,1.89-.19.73-.06,1.54-.12,2.46-.17.91-.05,1.92-.1,3.01-.14l16.44-.65c.96-.04,1.84-.07,2.63-.1.79-.03,1.49-.05,2.1-.06.61-.02,1.14-.02,1.58-.03s.8,0,1.07,0h.12s.07,0,.11,0c.03,0,.06,0,.09,0,.03,0,.06,0,.08,0,.74.04,1.45.12,2.13.24.69.12,1.34.27,1.98.46s1.24.42,1.82.69c.58.27,1.14.57,1.66.91.95.6,1.79,1.26,2.55,1.96.76.71,1.42,1.47,1.99,2.28.57.81,1.05,1.68,1.43,2.6.39.92.68,1.89.87,2.92.22,1.11.33,2.17.34,3.16,0,.99-.08,1.92-.28,2.8-.19.87-.49,1.68-.9,2.43-.4.75-.91,1.44-1.52,2.07-.54.56-1.14,1.05-1.82,1.48,0,0,0,0-.02.01-.05.03-.1.05-.15.08-.27.17-.56.33-.86.48-.12.06-.25.12-.38.17-.24.11-.48.22-.74.32-.06.02-.11.05-.16.07-.09.03-.2.06-.29.09-.25.09-.5.17-.76.24-.17.05-.33.09-.5.14-.27.07-.55.13-.83.19-.11.02-.22.05-.33.07-.06.01-.13.02-.19.03-.32.06-.64.1-.97.15-.16.02-.31.05-.47.06-.5.06-1,.1-1.53.12l-13.57.67,1.08,5.88,4.67-.24,5.67-.29.5-.02c.09,0,.18,0,.26-.01.08,0,.17,0,.26,0s.17,0,.26,0c.08,0,.17,0,.25,0,.69,0,1.36.06,2,.15.65.1,1.28.23,1.88.42.61.18,1.2.41,1.77.68.57.27,1.12.59,1.65.95.63.43,1.21.91,1.72,1.44.51.53.97,1.1,1.36,1.72.4.62.73,1.29,1,2,.27.72.49,1.48.65,2.29.33,1.72.36,3.24.1,4.56-.26,1.32-.81,2.45-1.65,3.37-.37.4-.81.76-1.29,1.09-.38.26-.8.5-1.25.71-.08.04-.16.07-.24.1-.21.09-.41.19-.64.27-.23.09-.49.16-.74.23-.09.03-.17.06-.26.08-.54.15-1.13.27-1.75.38-.14.02-.27.04-.41.06-.65.1-1.32.17-2.05.22l-9.93.59,1.05,5.74.16.89,3.16-.2,9.49-.59c.17-.01.34-.02.5-.03.17,0,.33-.02.5-.02.16,0,.33,0,.49-.01.16,0,.32,0,.48,0,1.07,0,2.08.05,3.03.16s1.86.28,2.71.5c.85.22,1.65.5,2.39.84.74.34,1.44.73,2.07,1.18.87.61,1.66,1.28,2.36,2,.7.72,1.32,1.5,1.85,2.33.54.83.99,1.72,1.36,2.66.37.94.65,1.93.86,2.98.21,1.07.31,2.1.31,3.09,0,.99-.1,1.93-.3,2.83Z"/>
  <path class="cls-5" d="M309.7,135.69c-1.21,3.88-3.35,7.65-5.45,11.12-3.89,6.44-9.11,11.47-15.24,15.68-.23-.58-.44-1.2-.65-1.85.18-.13.35-.29.52-.49,7.33-9.38,8.68-22.42,3.39-33.12-.91-1.84-2.07-3.51-3.33-5.1,5.52,2.12,11.87,4.23,12.73,10.45.13.92,1.3,1.41,2.11,1.2.99-.26,1.32-1.2,1.2-2.11-1.07-7.75-9.28-10.42-15.49-12.93-2.78-1.12-6.13-2.61-7.59-5.4-.03-.06-.07-.12-.11-.19-.65-1.33-1.11-2.93-1.26-4.53-.17-4.04,1.67-8.23,2.97-11.92.74-2.1,1.42-4.29,1.82-6.5,0,0,0-.01,0-.02.02-.1.03-.19.05-.29.06-.37.12-.74.16-1.11.37-2.61.41-5.24-.06-7.86-.57-3.23-2.19-5.74-3.61-8.63-2.8-5.7-3.51-12.52.22-17.97,1.25-1.83-1.72-3.54-2.96-1.73-3.53,5.17-3.77,11.78-1.81,17.59.61,1.8,1.52,3.44,2.4,5.09-2.35-2.01-4.87-3.86-6.43-6.59-6.45-11.25,10.47-25.99-.34-35.88-2.05-1.88-4.65-3.37-5.83-5.98-1.28-2.84-1.52-5.92-1-8.97.12-.69.26-1.37.4-2.05.26,2.14.61,4.27,1.75,6.16,3.61,6,11.65,7.06,17.93,8.01,3.47.53,7,1.05,10.41,1.88,1.4.34,3,.77,3.99,1.9,1.43,1.62.89,4.02.38,5.89-1.16,4.21-3.09,8.18-5.56,11.78-2.36,3.43-5.74,6.12-7.86,9.71-1.84,3.14-2.06,6.85.12,9.88,1.77,2.46,4.49,3.8,6.63,5.87,3,2.91-.28,6.29-1.59,9.3-1.68,3.87-2.38,8.12-2.14,12.33.2,3.61.71,8.42,3.05,11.36,2,2.5,5.04,2.78,8.02,2.79,2.65,0,5.37.01,6.95,2.48,1.56,2.43,2.08,5.67,2.32,8.49.34,4.12.02,8.31-1.22,12.26Z"/>
</svg>