<?xml version="1.0" encoding="UTF-8"?>
<svg id="Layer_2" data-name="Layer 2" xmlns="http://www.w3.org/2000/svg" xmlns:xlink="http://www.w3.org/1999/xlink" viewBox="0 0 452.89 253.17">
  <defs>
    <style>
      .cls-1 {
        fill: url(#linear-gradient-2);
      }

      .cls-2 {
        fill: #f4146f;
      }

      .cls-3 {
        fill: #3ea3ed;
      }

      .cls-4 {
        fill: #dbdbdb;
      }

      .cls-5 {
        fill: #f4f4f4;
      }

      .cls-6 {
        fill: url(#linear-gradient);
      }
    </style>
    <linearGradient id="linear-gradient" x1="132.25" y1="-29.08" x2="312.02" y2="282.29" gradientUnits="userSpaceOnUse">
      <stop offset="0" stop-color="#f4146f"/>
      <stop offset="1" stop-color="#3ea3ed"/>
    </linearGradient>
    <linearGradient id="linear-gradient-2" x1="132.25" y1="-29.08" x2="312.03" y2="282.29" xlink:href="#linear-gradient"/>
  </defs>
  <g id="Layer_1_copy" data-name="Layer 1 copy">
    <g>
      <path class="cls-5" d="M441.73,148.52c-4.01-4.35-9.56-6.55-16.51-6.55-8.49,0-16.58,2.86-24.05,8.51l-2.94,2.26-1.7-2.47c-.34-.49-.7-.98-1.08-1.45-3.61-4.42-8.75-6.85-14.48-6.85-2.45,0-4.92.45-7.33,1.34l-.47.17h-23.15c-1.52,0-2.96.74-3.85,1.98l-1.75,2.44-2.34-1.89c-5.12-4.14-12.3-5.17-19-2.71l-.47.17h-13.47l7.38-5.17c.37-.26.74-.52,1.11-.79,9-6.63,15.81-15.91,20.23-27.58l8.97-20.36,15.92-33.72c.7-1.47.59-3.18-.28-4.55-.87-1.38-2.37-2.2-4-2.2h-28.64l-.84-.93c-2.25-2.46-4.87-4.14-7.86-5.06l-3.12-.96,9.86-20.95c.83-1.76.51-3.82-.82-5.24-1.32-1.42-3.35-1.89-5.17-1.19l-11,4.23c-4.65,1.79-8.47,2.26-10.75,1.32l-4.26-1.75c-2.39-.98-5.08.1-6.13,2.46l-12.12,27.31-2.18-.37c-1.13-.19-2.32-.29-3.55-.29-6.69,0-13.4,2.7-19.94,8.01l-2.36,1.92-1.75-2.5c-3.34-4.76-9.12-7.38-16.26-7.38-2.82,0-5.57.42-8.17,1.24l-.42.13h-17.47l3.32-4.52c.21-.29.41-.58.61-.87,2.72-4.12,4.1-8.88,4.1-14.14,0-7.31-2.95-13.51-8.54-17.93-5-3.95-10.9-5.96-17.55-5.96-8.77,0-17.65,2.84-26.4,8.43-4.94,3.16-9.72,6.81-14.21,10.84l-2.71,2.44-1.7-3.23c-1.97-3.73-5.52-5.36-8.2-5.63-1.38-.21-3.6-.59-6.72-1.16-3.62-.66-6.46-1.15-8.52-1.48-2.04-.33-4.61-.72-7.72-1.18-3.32-.5-6.54-.85-9.57-1.04-8.41-.55-15.96-.3-23.05.77-4.83.73-9.73,1.96-14.57,3.66-5.06,1.78-9.63,4.04-13.59,6.74-4.46,3.04-8.15,7.02-10.96,11.86-1.52,2.6-2.64,5.36-3.38,8.25-1.08,3.21-1.62,6.61-1.62,10.17,0,7.2,2.06,13.08,6.09,17.52l-4.5-.15c-.34-.01-.69-.02-1.04-.02-8.36,0-15.47,3.03-21.11,9.02-3.74,3.96-6.19,8.42-7.4,13.27-.94,2.76-1.44,5.67-1.44,8.73,0,9.83,3.83,18,11.38,24.3,6.32,5.27,13.8,8.23,22.26,8.84,1.89.23,3.81.39,5.79.39,5.77,0,11.36-.98,16.61-2.92,5.05-1.86,9.52-4.24,13.3-7.06,1.97-1.47,3.96-3.2,5.91-5.14l3.35-3.32c.97,10.79,4.62,19.94,10.9,27.24,5.82,6.76,12.76,10.97,20.69,12.64l-2.41,3.01c-3.73,4.67-6.3,9.87-7.7,15.55-1.18,3.84-1.81,7.9-1.81,12.21,0,11.33,4.18,20.9,12.41,28.46,7.16,6.56,15.81,10.24,25.73,10.97,2.03.25,4.09.41,6.23.41,11.05,0,20.91-3.28,29.3-9.75l.33-.26,5.32-2.01c3.22-1.22,6.49-1.95,9.71-2.16.78-.06,1.85-.04,3.19.07.58.04,1.07.08,1.51.12.26.04.5.08.69.12l3.72.75c.35.07.69.07,1.03,0l1.04.21c1.61.33,3.31-.23,4.44-1.45l1.1-1.19c2.57,1.94,5.86,3.06,9.68,3.27,1.2.19,2.42.32,3.7.32,5.4,0,10.45-1.68,15.01-4.99l1.16-.84c2.48,2.71,6.48,5.32,12.77,5.85,1.5.25,3.08.39,4.74.39.44,0,.88-.01,1.32-.03l5.07-.26-2.44,4.46c-1.4,2.57-2.7,4.79-3.85,6.6l-7.55,11.95c-.48.75-.7,1.6-.72,2.44l-.13.21c-.65,1.03-.57,2.36.2,3.31.7.86,1.81,1.19,2.87.93,1.09.44,2.33.49,3.45.07l13.23-5c3.23-1.22,6.55-1.95,9.89-2.17.7-.06,1.62-.04,2.7.06.19.02.36.03.54.05.27.04.51.08.68.12l3.94.98c.41.1.82.08,1.21,0l.77.19c2.29.58,4.61-.58,5.52-2.76l10-23.97c.51.07,1.02.13,1.55.16l.68.1c1.32.19,2.74.26,4.23.18l4.98-.24-2.34,4.4c-1.91,3.6-3.63,6.61-5.12,8.96l-7.56,11.95c-.47.75-.7,1.59-.72,2.43l-.13.21c-.65,1.03-.57,2.36.2,3.31.55.68,1.37,1.05,2.2,1.05.23,0,.45-.07.68-.12,1.09.44,2.34.49,3.45.08l13.23-5c3.23-1.22,6.53-1.95,9.83-2.16.77-.05,1.72-.04,2.75.05.2.02.37.03.55.05.27.04.51.08.68.12l3.94.98c.41.1.82.08,1.21,0l.77.19c2.29.58,4.61-.58,5.52-2.76l10-23.97c.5.07,1.02.13,1.54.16l.68.1c.97.14,1.99.21,3.02.21,7.02,0,13.86-2.83,20.31-8.42l1.85-1.6c.82,1.76,1.82,3.39,3.03,4.84,3.62,4.35,8.72,6.74,15.16,7.17,1.47.21,2.98.35,4.59.35,8.45,0,16.57-3.15,24.14-9.36,7.03-5.76,12.7-13.66,16.86-23.48l.38-.9c.24-.58.37-1.2.37-1.83v-8.53l.16-.45c.93-2.7,1.48-5.54,1.62-8.43.31-6.36-1.52-11.75-5.45-16.01h0ZM421.62,205.22c-5.86,4.81-11.91,7.21-18.14,7.21-5.13,0-8.95-1.51-11.47-4.53-.41-.49-.77-1.01-1.11-1.56-.42-.37-.81-.77-1.18-1.2-2.52-3.02-3.78-7.1-3.78-12.23,0-5.5,1.63-11.31,4.88-17.45,3.25-6.14,7.79-11.41,13.6-15.8,5.82-4.4,11.93-6.6,18.34-6.6,4.21,0,7.4,1.17,9.55,3.5,2.15,2.34,3.14,5.38,2.95,9.14-.27,5.5-2.59,10.44-6.94,14.84-4.35,4.4-9.37,6.6-15.05,6.6-2.14,0-3.77-.56-4.89-1.67-.23,1.16-.38,2.26-.38,3.2,0,1.38.22,2.56.63,3.57,1.38.89,3.23,1.37,5.6,1.37,2.66,0,5.91-1.08,9.76-3.23,3.85-2.15,7.01-5.02,9.48-8.59v.82c-3.57,8.43-8.29,15.05-14.15,19.86s-11.91,7.21-18.14,7.21c-4.3,0-7.67-1.08-10.14-3.2,2.52,2.83,6.25,4.26,11.21,4.26,6.23,0,12.28-2.4,18.14-7.21,4.6-3.78,8.49-8.68,11.68-14.69,1.36-1.3,2.6-2.71,3.69-4.28v.82c-3.57,8.43-8.29,15.05-14.15,19.86ZM358.55,210.1c-3.53,0-6.11-1.47-7.77-4.36,1.62,1.76,3.8,2.65,6.56,2.65,5.04,0,10.08-2.34,15.12-7.01,5.04-4.67,9.09-10.35,12.16-17.04s4.65-12.96,4.74-18.83c.07-2.44-.47-4.61-1.58-6.52.06.07.13.12.19.19,1.83,2.24,2.7,4.92,2.61,8.04-.09,5.86-1.67,12.14-4.74,18.83s-7.12,12.37-12.16,17.04c-5.04,4.67-10.08,7.01-15.12,7.01ZM316.33,235.06c3.19-.97,6.42-1.58,9.66-1.79,1.28-.09,2.7-.07,4.26.07,1.56.14,2.63.25,3.23.34.6.09,1.08.18,1.44.27l6.46-15.39,6.68-16.37c-.27-.58-.53-1.19-.74-1.86l-7.01,17.18-6.46,15.39c-.37-.09-.85-.18-1.44-.27-.6-.09-1.67-.21-3.23-.34-1.56-.14-2.98-.16-4.26-.07-4.21.27-8.38,1.19-12.51,2.75,5.04-7.97,12.09-22.08,21.16-42.32l17.04-38.06h16.49c-2.66,3.39-5.27,7.69-7.83,12.92h1.1c.82-1.39,1.69-2.67,2.59-3.9,1.31-2.32,2.63-4.4,3.96-6.26h1.79c.08-.07.16-.15.24-.22,3.25-2.7,6.44-4.05,9.55-4.05,2.93,0,5.31,1.12,7.15,3.37,1.83,2.24,2.7,4.92,2.61,8.04-.09,5.86-1.67,12.14-4.74,18.83s-7.12,12.37-12.16,17.04c-5.04,4.67-10.08,7.01-15.12,7.01-3.05,0-5.39-1.11-7.04-3.27l-6.61,16.2-6.46,15.39c-.37-.09-.85-.18-1.44-.27-.6-.09-1.67-.21-3.23-.34-1.56-.14-2.98-.16-4.26-.07-4.21.27-8.38,1.19-12.51,2.75.52-.82,1.06-1.72,1.62-2.67ZM265.76,235.06c3.19-.97,6.42-1.58,9.66-1.79,1.28-.09,2.7-.07,4.26.07,1.56.14,2.63.25,3.23.34.6.09,1.08.18,1.44.27l6.46-15.39,6.68-16.37c-.27-.58-.53-1.19-.74-1.86l-7.01,17.18-6.46,15.39c-.37-.09-.85-.18-1.44-.27-.6-.09-1.67-.21-3.23-.34-1.56-.14-2.98-.16-4.26-.07-4.21.27-8.38,1.19-12.51,2.75,4.49-7.11,10.59-19.11,18.29-35.98-1.24.47-2.55.75-3.91.81-6.69,8.43-13.42,12.64-20.2,12.64-4.76,0-8.2-1.51-10.31-4.53-.13-.19-.22-.43-.35-.63,2.13,2.3,5.28,3.46,9.44,3.46,6.78,0,13.51-4.21,20.2-12.64,2.35-.11,4.52-.84,6.51-2.15.45-.99.9-1.99,1.36-3.02-2.62,2.58-5.6,3.96-8.94,4.11-6.69,8.43-13.42,12.64-20.2,12.64-4.76,0-8.2-1.51-10.31-4.53-1.3-1.87-2.11-4.19-2.54-6.87-1.26,2.02-2.66,4-4.24,5.92-4.31,5.22-9.07,7.83-14.29,7.83-4.13,0-6.88-1.37-8.31-4.07,1.58,1.57,3.94,2.36,7.1,2.36,5.22,0,9.98-2.61,14.29-7.83,1.98-2.4,3.69-4.88,5.16-7.44-.02-.7-.07-1.38-.05-2.13.02-.32.07-.63.1-.95-1.7,3.28-3.78,6.44-6.28,9.47-4.31,5.22-9.07,7.83-14.29,7.83-6.32,0-9.48-3.16-9.48-9.48,0-3.39,1.03-7.26,3.09-11.61,2.06-4.35,4.12-8.29,6.18-11.82,1.43-2.45,2.33-4.32,2.77-5.69-2.96,1.38-7.04,8.06-12.23,20.06l-8.79,19.79c-.46-.09-1.03-.18-1.72-.28-.69-.09-1.92-.21-3.71-.34-1.79-.14-3.32-.16-4.6-.07-4.12.28-8.25,1.19-12.37,2.75.46-.78.97-1.66,1.51-2.63,3.21-.99,6.43-1.61,9.64-1.82,1.28-.09,2.82-.07,4.6.07,1.79.14,3.02.25,3.71.34.69.09,1.26.18,1.72.28l8.79-19.79c5.86-13.56,10.31-20.34,13.33-20.34.15,0,.26.03.38.05-.13-.72-.6-1.11-1.45-1.11-3.02,0-7.47,6.78-13.33,20.34l-8.79,19.79c-.46-.09-1.03-.18-1.72-.28-.69-.09-1.92-.21-3.71-.34-1.79-.14-3.32-.16-4.6-.07-3.73.25-7.47,1.05-11.2,2.35-.64.76-1.27,1.52-1.97,2.26-7.74,8.2-17.25,12.3-28.51,12.3-9.62,0-17.75-3.05-24.39-9.14-1.65-1.51-3.09-3.12-4.33-4.82-5.27-5.72-7.92-12.66-7.92-20.82,0-8.61,2.86-16.01,8.59-22.19,5.73-6.18,12.62-9.28,20.68-9.28,5.31,0,9.67,1.42,13.05,4.26,3.39,2.84,5.08,6.28,5.08,10.31,0,3.57-1.24,6.48-3.71,8.73-2.47,2.24-4.95,3.37-7.42,3.37-.73,0-1.19-.09-1.37-.28.16-.32.24-.73.26-1.2-.36-.1-.73-.17-1.13-.17-1.19,0-2.36.5-3.5,1.51-1.15,1.01-1.72,2.52-1.72,4.53,0,1.33.25,2.52.76,3.57,2.01,1.55,4.48,2.32,7.4,2.32,4.58,0,8.66-1.81,12.23-5.43,3.57-3.62,5.36-8.22,5.36-13.81,0-3.66-1.51-9.02-4.53-16.08-3.02-7.05-4.53-12.55-4.53-16.49,0-7.33,2.68-13.49,8.04-18.48,5.36-4.99,12.02-7.49,19.99-7.49,6.87,0,12.64,1.83,17.31,5.5s7.01,8.2,7.01,13.6c0,4.4-1.6,8.34-4.81,11.82s-7.1,5.22-11.68,5.22c-2.2,0-3.94-.41-5.22-1.24,1.56-.28,2.77-1.05,3.64-2.34.87-1.28,1.3-2.61,1.3-3.99,0-.67-.13-1.29-.35-1.88-1.02-.66-2.2-1-3.54-1-2.38,0-4.28.8-5.7,2.4-1.42,1.6-2.13,3.69-2.13,6.25,0,1.74,1.24,6.28,3.71,13.6,2.47,7.33,3.71,13.74,3.71,19.24,0,2.01-.19,3.96-.5,5.89,2.53-5.18,5.39-11.17,8.59-17.99,3.27-6.98,6.47-13.89,9.48-20.45-3.01,2.82-6.57,4.25-10.7,4.25-2.2,0-3.94-.41-5.22-1.24.67-.12,1.26-.35,1.81-.65.68.11,1.4.18,2.2.18,4.58,0,8.47-1.74,11.68-5.22s4.81-7.42,4.81-11.82c0-3.17-.83-6.03-2.43-8.6,2.42,2.99,3.65,6.42,3.65,10.31,0,.03,0,.06,0,.08,2.78-6.15,5.28-11.74,7.38-16.49,9.37-1.2,13.4-8.18,13.4-8.18,0,0,.25,2.47,2.49,4.29-.24-.31-.44-.61-.61-.91.27-.38.41-.62.41-.62,0,0,.09.77.54,1.76.61.44,1.31.85,2.21,1.14l-16.13,35.4-5.08,7.97h1.74l4.41-6.92,15.7-34.44c.48.29,1.02.54,1.65.75l-15.45,33.89c3.12-2.21,6.67-3.31,10.63-3.31,6.69,0,10.03,3.02,10.03,9.07,0,3.57-1.9,8.7-5.7,15.39-3.8,6.69-5.7,11.04-5.7,13.05,0,1.16.42,1.84,1.23,2.08-.1-.29-.16-.63-.16-1.03,0-2.01,1.9-6.37,5.7-13.05,3.8-6.69,5.7-11.82,5.7-15.39,0-1.92-.38-3.51-1.06-4.82,1.5,1.51,2.27,3.67,2.27,6.53,0,3.57-1.9,8.7-5.7,15.39-3.47,6.11-5.34,10.24-5.64,12.45,1.79-.2,3.71-1.62,5.75-4.27,1.32-7.22,4.94-14.56,10.93-22,7.19-8.93,15.28-13.4,24.25-13.4,3.3,0,5.93,1.17,7.9,3.5s2.95,5.34,2.95,9c0,5.77-1.88,12.32-5.63,19.65.6-.05,1.19-.18,1.77-.39,3.27-6.74,4.93-12.82,4.93-18.2,0-2.91-.65-5.38-1.89-7.46.05.06.1.11.15.16,1.97,2.34,2.95,5.34,2.95,9,0,4.48-1.15,9.44-3.41,14.86.73-.61,1.45-1.34,2.16-2.22l11.88-26.54h16.49c-2.66,3.39-5.27,7.69-7.83,12.92h1.1c.82-1.39,1.69-2.67,2.59-3.9,1.31-2.32,2.63-4.4,3.96-6.26h1.79c.08-.07.16-.15.24-.22,3.25-2.7,6.44-4.05,9.55-4.05,2.93,0,5.31,1.12,7.15,3.37,1.83,2.24,2.7,4.92,2.61,8.04-.09,5.86-1.67,12.14-4.74,18.83s-7.12,12.37-12.16,17.04c-5.04,4.67-10.08,7.01-15.12,7.01-3.05,0-5.39-1.11-7.04-3.27l-6.61,16.2-6.46,15.39c-.37-.09-.85-.18-1.44-.27-.6-.09-1.67-.21-3.23-.34-1.56-.14-2.98-.16-4.26-.07-4.21.27-8.38,1.19-12.51,2.75.52-.82,1.06-1.72,1.62-2.67ZM102.65,143.62c-.53-.61-1-1.27-1.49-1.91-.26-.29-.54-.55-.8-.85-6.23-7.24-9.34-16.67-9.34-28.31,0-5.92.97-12.3,2.81-19.1-.58-.12-1.16-.24-1.76-.4-2.38,4.4-4.58,8.2-6.6,11.41-2.02,3.21-4.56,6.66-7.63,10.37-3.07,3.71-6.14,6.71-9.21,9-3.07,2.29-6.71,4.21-10.92,5.77s-8.66,2.34-13.33,2.34c-8.06,0-14.98-2.4-20.75-7.21-1.72-1.43-3.15-3-4.36-4.68-4.39-4.5-6.58-10.02-6.58-16.56,0-5.22,1.9-9.85,5.7-13.88,3.8-4.03,8.54-6.05,14.22-6.05,3.02,0,5.73.64,8.11,1.92,2.38,1.28,4.03,2.98,4.95,5.08-2.29,0-3.44,1.01-3.44,3.02,0,1.56.57,2.75,1.72,3.57.04.03.09.05.13.08-.5-.71-.78-1.57-.78-2.6,0-2.02,1.15-3.02,3.44-3.02-.13-.3-.31-.56-.46-.84.7.77,1.27,1.62,1.68,2.55-2.29,0-3.44,1.01-3.44,3.02,0,.45.06.85.15,1.24,1.01.53,2.21.81,3.6.81,2.84,0,5.52-.32,8.04-.96s4.92-1.79,7.21-3.44c2.29-1.65,4.21-3.16,5.77-4.53s3.41-3.55,5.57-6.53c2.15-2.98,3.73-5.24,4.74-6.8,1.01-1.56,2.68-4.28,5.02-8.18,2.34-3.89,3.96-6.57,4.88-8.04,5.67-9.15,12.42-16.07,20.23-20.79-9.2-.07-17.84,1.58-25.92,5-3.85,1.74-7.08,3.96-9.69,6.67-2.61,2.7-3.92,5.52-3.92,8.45,0,1.19.22,2.26.62,3.23.6.31,1.27.47,2.04.47.46,0,.82-.05,1.1-.14-.73,2.47-2.77,4.74-6.12,6.8-3.34,2.06-6.8,3.09-10.37,3.09-3.8,0-7.15-1.32-10.06-3.94.12.13.22.26.34.39,3.07,3.07,6.67,4.6,10.79,4.6,3.57,0,7.03-1.03,10.37-3.09,2.54-1.57,4.32-3.25,5.35-5.05.28.05.57.1.88.1.46,0,.82-.05,1.1-.14-.73,2.47-2.77,4.74-6.12,6.8-3.34,2.06-6.8,3.09-10.37,3.09-4.12,0-7.72-1.53-10.79-4.6-.74-.74-1.39-1.57-1.96-2.46-.11-.1-.22-.2-.33-.3-3.07-3.07-4.6-7.4-4.6-12.99,0-4.4,1.05-8.41,3.16-12.02,2.11-3.62,4.81-6.55,8.11-8.79,3.3-2.24,7.1-4.12,11.41-5.63,4.31-1.51,8.59-2.59,12.85-3.23,4.26-.64,8.5-.96,12.71-.96,2.75,0,5.52.09,8.31.27s5.73.5,8.79.96,5.61.85,7.63,1.17c2.02.32,4.79.8,8.31,1.44s5.93,1.05,7.21,1.24c.64,0,1.08.48,1.3,1.44.23.96.3,1.92.21,2.89-.09.96-.23,1.49-.41,1.58-3.02.55-5.98,1.83-8.86,3.85-2.89,2.02-5.38,4.17-7.49,6.46s-4.33,5.27-6.67,8.93c-2.34,3.66-4.14,6.78-5.43,9.34l-4.88,9.76-4.05,8.11-1.24,2.2c.57,0,1.14-.04,1.72-.11l.59-1.04,4.05-8.11,4.88-9.76c1.28-2.57,3.09-5.68,5.43-9.34,2.34-3.66,4.56-6.64,6.67-8.93s4.6-4.44,7.49-6.46c2.89-2.02,5.84-3.3,8.86-3.85.18-.09.32-.62.41-1.58.08-.86.02-1.73-.16-2.59.56.07.96.53,1.17,1.42.23.96.3,1.92.21,2.89-.09.96-.23,1.49-.41,1.58-3.02.55-5.98,1.83-8.86,3.85-2.89,2.02-5.38,4.17-7.49,6.46s-4.33,5.27-6.67,8.93c-2.34,3.66-4.14,6.78-5.43,9.34l-4.88,9.76-3.49,6.97c3.58-.94,7.43-3.05,11.57-6.37,5.77-4.63,11.52-10.24,17.25-16.83s11.63-13.19,17.73-19.79c6.09-6.6,12.76-12.21,19.99-16.83,7.24-4.63,14.34-6.94,21.3-6.94,4.49,0,8.38,1.31,11.68,3.92,3.3,2.61,4.95,6.11,4.95,10.51,0,3.39-.85,6.37-2.54,8.93-1.6,2.43-4.6,4.94-8.96,7.53.07.16.16.31.2.48-.15-.11-.29-.23-.47-.33-.16.09-.31.19-.47.28,0-.19-.04-.35-.06-.53-1.24-.55-2.96-.83-5.21-.83-4.21,0-8.84,1.33-13.88,3.99-4.85,2.56-9.67,5.75-14.44,9.54,2.4-1.04,4.75-1.59,7.07-1.59,2.84,0,4.86.94,6.05,2.82,1.19,1.88,1.65,4.1,1.37,6.66h.55l.53-1.33c-.11-1.3-.46-2.49-1.02-3.58.31.31.62.63.86,1.01.26.41.48.85.67,1.3l2.13-5.37h16.63l-12.78,27.07c-.73,1.56-1.28,2.75-1.65,3.57-.37.82-.78,1.95-1.24,3.37-.46,1.42-.53,2.5-.21,3.23.2.46.56.76,1.04.93-.27-.73-.2-1.76.24-3.11.46-1.42.87-2.54,1.24-3.37.37-.82.92-2.02,1.65-3.57l11.97-25.36h2.02l-12.78,27.07c-.73,1.56-1.28,2.75-1.65,3.57-.37.82-.78,1.95-1.24,3.37-.19.58-.29,1.09-.35,1.55,1.99-.08,4.11-1.68,6.35-4.81,5.34-10.31,10.69-21.46,16.03-33.52h17.18l-5.08,8.66h1.24c.65-.97,1.33-1.85,2.03-2.68l1.89-3.22h1.32c3.34-2.74,7.09-4.13,11.25-4.13,6.69,0,10.03,3.02,10.03,9.07,0,3.57-1.9,8.7-5.7,15.39-3.8,6.69-5.7,11.04-5.7,13.05,0,1.16.42,1.84,1.23,2.08-.1-.29-.16-.63-.16-1.03,0-2.01,1.9-6.37,5.7-13.05,3.8-6.69,5.7-11.82,5.7-15.39,0-1.92-.38-3.51-1.06-4.82,1.5,1.51,2.27,3.67,2.27,6.53,0,3.57-1.9,8.7-5.7,15.39-3.47,6.1-5.33,10.23-5.64,12.44,2.16-.24,4.5-2.24,7.01-6.03.82-2.68,1.91-5.45,3.3-8.32,3.39-7.02,7.82-13,13.28-17.95,5.46-4.95,10.71-7.43,15.75-7.43s7.61,2.84,7.43,8.53h.96l.07-.17c-.06-1.47-.32-2.74-.8-3.77.63.61,1.11,1.39,1.45,2.31l15.52-34.97c4.68,1.93,10.59,1.51,17.75-1.24l-26.55,56.4c-2.48,5.32-3.81,8.57-3.99,9.77-.37,1.63.01,2.57,1.08,2.88-.15-.48-.18-1.05,0-1.83.18-1.19,1.51-4.45,3.99-9.77l25.35-53.84c.79-.26,1.6-.53,2.42-.85l-26.55,56.4c-2.48,5.32-3.81,8.57-3.99,9.77-.02.08,0,.13-.02.21,1.52-.13,3.12-1.13,4.79-3.04.76-2.37,1.79-5,3.13-7.92,3.09-6.74,6.19-13.08,9.28-19.04,3.09-5.96,4.64-9.99,4.64-12.08,0-.82-.27-1.41-.82-1.78,7.01-2.27,11.97-1.82,14.88,1.37,2.91,3.18,2.5,8.6-1.23,16.25l-6.69,12.83c-3.37,6.41-4.01,9.77-2,10.16-.35-1.5.65-4.52,3.07-9.11l6.69-12.83c3.19-6.53,3.93-11.42,2.27-14.7.06.06.12.1.18.16,2.91,3.18,2.5,8.6-1.23,16.25l-6.69,12.83c-1.69,3.22-2.68,5.64-3.01,7.34,1.86-.68,4.82-5.2,8.92-13.65l6.55-13.52,3.69-7.92h18.57l-12.7,26.89-9.15,20.75c-3.82,10.19-9.53,18.09-17.13,23.69-7.31,5.39-15.2,8.15-23.65,8.36,0,.01,0,.02,0,.04-.19,0-.35,0-.53-.02-.15,0-.3.02-.46.02l-6.08-.16c-12.52-.1-17.36.9-21.58,1.24-4.98.4-8.31,1-10.01,1.81-.91.4-1.58.96-2,1.69-.42.72-.47,1.32-.15,1.81-1.56-.8-2.8-2.09-3.71-3.85-.91-1.77-1.37-3.77-1.37-6.02,0-5.38,1.77-9.41,5.32-12.1s8.15-4.03,13.81-4.03c1.98,0,7.45.46,13.44.8,7.33.36,12.46.45,15.31.26,5.33-.34,10.02-1.94,14.07-4.81-1.14.4-2.3.61-3.46.61-2.73,0-4.98-1.07-6.76-3.21-.42-.5-.77-1.03-1.09-1.58-.42-.36-.82-.73-1.2-1.18-1.04-1.26-1.74-2.68-2.17-4.23-.68,1.04-1.4,2.05-2.17,3.05-3.99,5.18-8.41,7.77-13.28,7.77-3.74,0-6.26-1.31-7.58-3.9,1.44,1.46,3.56,2.2,6.36,2.2,4.86,0,9.29-2.59,13.28-7.77,1.07-1.39,2.02-2.83,2.94-4.29,0-.18-.04-.35-.04-.54,0-.77.08-1.62.21-2.51-1.26,2.15-2.62,4.26-4.17,6.28-3.99,5.18-8.41,7.77-13.28,7.77-5.38,0-8.25-2.7-8.62-8.07-4.53,7.12-9.24,10.69-14.13,10.69-2.66,0-4.86-1.12-6.6-3.37-.3-.39-.54-.8-.78-1.21-.53-.44-1.04-.95-1.5-1.55-1.57-2.03-2.4-4.43-2.55-7.16-1.19,1.86-2.51,3.68-3.97,5.46-4.3,5.22-9.07,7.83-14.29,7.83-4.13,0-6.88-1.37-8.31-4.07,1.58,1.57,3.94,2.36,7.1,2.36,5.22,0,9.99-2.61,14.29-7.83,2.04-2.47,3.79-5.03,5.29-7.67.14-1.44.36-2.9.69-4.4-1.82,3.84-4.16,7.51-7.05,11.02-4.3,5.22-9.07,7.83-14.29,7.83-6.32,0-9.48-3.16-9.48-9.48,0-3.39,1.03-7.26,3.09-11.61,2.06-4.35,4.12-8.29,6.18-11.82,1.43-2.45,2.33-4.32,2.77-5.69-2.9,1.34-6.98,7.7-12.23,19.1l-9.34,20.75c-.46-.09-1.03-.18-1.72-.28-.69-.09-1.9-.21-3.64-.34-1.74-.14-3.25-.16-4.53-.07-4.12.27-8.24,1.19-12.37,2.75.51-.86,1.02-1.76,1.53-2.64,3.21-.99,6.41-1.6,9.62-1.82,1.28-.09,2.79-.07,4.53.07,1.74.14,2.95.25,3.64.34.69.09,1.26.18,1.72.28l9.34-20.75c5.95-12.92,10.4-19.38,13.33-19.38.15,0,.26.03.38.05-.13-.72-.6-1.11-1.45-1.11-2.93,0-7.37,6.46-13.33,19.38l-9.34,20.75c-.46-.09-1.03-.18-1.72-.28-.69-.09-1.9-.21-3.64-.34-1.74-.14-3.25-.16-4.53-.07-3.43.23-6.85.93-10.28,2.04-.13.22-.26.45-.39.68-2.43,1.49-4.98,2.24-7.66,2.24-3.44,0-5.78-1.26-7.02-3.75,1.34,1.35,3.27,2.04,5.8,2.04,2.99,0,5.83-.96,8.53-2.84.76-1.3,1.51-2.58,2.27-3.91-3.65,3.79-7.61,5.69-11.87,5.69-3.85,0-6.32-1.56-7.42-4.67-.43-1.21-.66-2.57-.8-4.01-4.55,7.53-9.38,11.3-14.5,11.3-2.75,0-4.97-1.03-6.66-3.09-.37-.45-.67-.94-.96-1.45-.47-.38-.92-.81-1.33-1.31-1.69-2.06-2.54-4.83-2.54-8.31,0-5.86,1.69-12.3,5.08-19.31,2.19-4.52,4.85-8.57,7.9-12.24-.48.4-.95.79-1.43,1.19-4.99,4.21-10.35,8.18-16.08,11.89-5.73,3.71-11.06,6.25-16.01,7.63-1.01,3.3-1.51,6.78-1.51,10.44,0,5.4,1.37,10.53,4.12,15.39.17.3.35.56.53.84-.62-.77-1.22-1.6-1.75-2.55-2.75-4.86-4.12-9.99-4.12-15.39,0-3.66.5-7.15,1.51-10.44,4.95-1.37,10.28-3.92,16.01-7.63,5.73-3.71,11.08-7.67,16.08-11.89,4.99-4.21,9.96-8.31,14.91-12.3s9.94-7.31,14.98-9.96c5.04-2.66,9.67-3.99,13.88-3.99,2.79,0,4.77.44,6.02,1.28-.94-1.55-3.3-2.33-7.09-2.33-4.21,0-8.84,1.33-13.88,3.99-5.04,2.66-10.03,5.98-14.98,9.96s-9.92,8.08-14.91,12.3c-4.99,4.21-10.35,8.18-16.08,11.89-5.73,3.71-11.06,6.25-16.01,7.63-1.01,3.3-1.51,6.78-1.51,10.44,0,5.4,1.37,10.53,4.12,15.39,2.75,4.85,6.69,7.47,11.82,7.83,3.02.27,5.04-.6,6.05-2.61.64-1.28.41-2.29-.69-3.02,1.83-.92,3.44-1.37,4.81-1.37,3.76,0,7.35,1.35,10.79,4.05s5.15,6.25,5.15,10.65c0,6.14-2.24,11.11-6.73,14.91s-9.99,5.7-16.49,5.7c-7.75,0-14.44-2.66-20.12-7.94,5.9,5.97,12.95,8.99,21.19,8.99,6.5,0,12-1.9,16.49-5.7s6.73-8.77,6.73-14.91c0-2.6-.62-4.89-1.82-6.9,2.02,2.37,3.03,5.24,3.03,8.61,0,6.14-2.24,11.11-6.73,14.91-4.49,3.8-9.99,5.7-16.49,5.7-9.07,0-16.72-3.62-22.95-10.86ZM201.38,42.9c-1.69,2.57-4.92,5.22-9.69,7.97,0-.8-.24-1.47-.67-2.04,4.46-2.63,7.51-5.18,9.14-7.64,1.69-2.56,2.54-5.54,2.54-8.93,0-2.62-.6-4.92-1.77-6.91,1.98,2.34,2.99,5.2,2.99,8.61s-.85,6.37-2.54,8.93ZM288.18,142.65s0,.02,0,.04c-.19,0-.35,0-.53-.02-.15,0-.3.02-.46.02l-6.08-.16c-12.52-.1-17.36.9-21.58,1.24-4.98.4-8.31,1-10.01,1.81-.91.4-1.58.96-2,1.69-.42.72-.47,1.32-.15,1.81-1.44-.74-2.59-1.91-3.48-3.47.66.73,1.41,1.33,2.26,1.76-.33-.48-.28-1.08.15-1.81.42-.72,1.09-1.28,2-1.69,1.69-.8,5.03-1.4,10.01-1.81,4.22-.34,9.06-1.34,21.58-1.24l6.08.16c.15,0,.3-.02.46-.02.18,0,.35,0,.53.02,0-.01,0-.02,0-.04,8.45-.2,16.34-2.97,23.65-8.36,7.6-5.6,13.31-13.49,17.13-23.69l9.15-20.75,11.89-25.19h2.02l-12.7,26.89-9.15,20.75c-3.82,10.19-9.53,18.09-17.13,23.69-7.31,5.39-15.2,8.15-23.65,8.36ZM148.43,185.51s0-.05,0-.07c2.44-.03,4.87-1.14,7.31-3.35,2.47-2.24,3.71-5.15,3.71-8.73,0-2.39-.61-4.56-1.8-6.53,2,2.4,3.02,5.14,3.02,8.24,0,3.57-1.24,6.48-3.71,8.73-2.47,2.24-4.95,3.37-7.42,3.37-.73,0-1.19-.09-1.37-.28.18-.37.28-.82.28-1.37ZM306.76,208.39c5.04,0,10.08-2.34,15.12-7.01,5.04-4.67,9.09-10.35,12.16-17.04s4.65-12.96,4.74-18.83c.07-2.44-.47-4.61-1.58-6.52.06.07.13.12.19.19,1.83,2.24,2.7,4.92,2.61,8.04-.09,5.86-1.67,12.14-4.74,18.83s-7.12,12.37-12.16,17.04c-5.04,4.67-10.08,7.01-15.12,7.01-3.53,0-6.11-1.47-7.77-4.36,1.62,1.76,3.8,2.65,6.56,2.65ZM434.84,159.61c1.99,2.3,2.9,5.25,2.72,8.86-.27,5.5-2.59,10.44-6.94,14.84-4.35,4.4-9.37,6.6-15.05,6.6-2.98,0-4.95-1.1-5.96-3.25,1.12,1.02,2.69,1.54,4.74,1.54,5.68,0,10.7-2.2,15.05-6.6,4.35-4.4,6.67-9.34,6.94-14.84.14-2.77-.37-5.15-1.51-7.15Z"/>
      <path class="cls-6" d="M445.9,144.67h0c-5.13-5.56-12.09-8.38-20.68-8.38-9.11,0-17.77,2.84-25.79,8.43-4.68-5.44-11.21-8.43-18.46-8.43-2.96,0-5.92.51-8.81,1.51h-22.16c-2.38,0-4.66.82-6.48,2.27-4.62-2.97-10.24-4.25-15.93-3.63,6.66-6.58,11.87-14.76,15.5-24.36l8.88-20.16,15.88-33.65c1.53-3.24,1.3-6.99-.62-10.02-1.92-3.03-5.21-4.83-8.79-4.83h-26.16c-1.92-1.91-4.09-3.44-6.48-4.57l7.18-15.24c1.83-3.87,1.12-8.39-1.79-11.53-2.91-3.12-7.37-4.16-11.36-2.63l-11,4.23c-3.98,1.53-6.14,1.49-6.55,1.37l-4.26-1.75c-5.25-2.16-11.17.21-13.48,5.41l-10.37,23.37c-.75-.06-1.51-.09-2.29-.09-7.24,0-14.38,2.54-21.27,7.55-4.51-4.85-11.16-7.49-19.05-7.49-3.25,0-6.43.46-9.45,1.37h-5.98c2.05-4.21,3.09-8.85,3.09-13.85,0-9.11-3.7-16.85-10.69-22.39-6.02-4.77-13.12-7.18-21.08-7.18-9.87,0-19.78,3.14-29.46,9.32-4.31,2.76-8.51,5.86-12.5,9.26-2.68-3.2-6.46-5.27-10.55-5.69-1.22-.18-3.38-.56-6.42-1.11-3.67-.67-6.55-1.17-8.65-1.5-2.05-.33-4.64-.72-7.77-1.19-3.47-.52-6.85-.89-10.04-1.1-8.83-.57-16.77-.31-24.27.82-5.18.78-10.43,2.1-15.61,3.91-5.53,1.94-10.54,4.43-14.91,7.4-5.17,3.52-9.43,8.12-12.68,13.69-3.46,5.95-5.22,12.56-5.22,19.64,0,4.92.79,9.42,2.35,13.44-8.57.72-15.93,4.3-21.93,10.66-6.52,6.91-9.83,15.08-9.83,24.27,0,12.18,4.75,22.31,14.1,30.11,8.54,7.12,18.78,10.72,30.44,10.72,6.45,0,12.7-1.1,18.58-3.27,5.56-2.05,10.51-4.69,14.73-7.84.96-.72,1.93-1.49,2.89-2.31,2.14,7.49,5.69,14.15,10.59,19.84,4.4,5.11,9.42,9.05,14.95,11.75-5.32,7.8-8.01,16.77-8.01,26.71,0,13.53,5,24.99,14.87,34.04,9.49,8.71,21.14,13.12,34.63,13.12,12.18,0,23.09-3.59,32.43-10.67l4.54-1.71c2.7-1.02,5.42-1.63,8.1-1.81.23-.02.93-.04,2.35.06,1.38.11,2.34.18,2.88.26.29.04.53.07.72.11l3.7.75c2.78.57,5.67-.06,7.98-1.64,3.54,1.78,7.67,2.71,12.06,2.71,5.9,0,11.45-1.62,16.51-4.83,3.86,2.89,8.49,4.59,13.81,5.09-.47.79-.92,1.53-1.34,2.2l-7.55,11.95c-2.4,3.79-2.11,8.67.73,12.14,1.99,2.44,4.93,3.84,8.07,3.84,1.26,0,2.5-.23,3.68-.67l13.23-5c2.7-1.02,5.48-1.63,8.29-1.82.19-.01.75-.04,1.78.05,1.1.1,1.85.16,2.35.23l3.91.98c2.61.66,5.24.29,7.45-.89.39,1.17,1,2.29,1.81,3.28,2.79,3.42,7.62,4.72,11.75,3.16l13.23-5c2.7-1.02,5.46-1.63,8.2-1.81.48-.03,1.15-.02,1.88.05,1.1.1,1.85.16,2.35.23l3.92.98c5.03,1.27,10.13-1.28,12.14-6.07l8.09-19.27.32-.79c.53.03,1.06.05,1.6.05,7.55,0,14.81-2.65,21.65-7.87.06.07.12.15.18.22,5.52,6.63,13.29,9.99,23.11,9.99s19.13-3.58,27.74-10.65c7.75-6.35,13.97-14.98,18.49-25.65l.39-.91c.54-1.29.82-2.65.82-4.04v-7.59c1.01-3.07,1.61-6.27,1.77-9.54.39-7.94-1.95-14.72-6.94-20.14ZM450.01,164.67c-.16,3.17-.75,6.26-1.77,9.21v8.06c0,1.02-.2,2.01-.6,2.94l-.38.9c-4.34,10.24-10.29,18.5-17.68,24.56-8.09,6.64-16.82,10-25.94,10s-15.97-3.02-20.93-8.96c-.66-.79-1.27-1.62-1.84-2.49-6.99,6.05-14.44,9.12-22.17,9.12-1.17,0-2.31-.08-3.43-.24l-1.12,2.75-8.08,19.25c-1.46,3.48-5.17,5.34-8.83,4.41l-3.92-.98c-.06-.01-.18-.03-.32-.05-.46-.07-1.28-.15-2.46-.25-.88-.07-1.68-.09-2.32-.05-3.02.2-6.04.86-9.01,1.99l-13.23,5c-3,1.13-6.52.18-8.54-2.3-2.06-2.52-2.27-6.07-.53-8.83l7.56-11.95c1.45-2.29,3.13-5.23,5.01-8.78-1.62.08-3.23.01-4.77-.21l-1.12,2.75-8.08,19.25c-1.46,3.48-5.18,5.34-8.83,4.41l-3.92-.98c-.06-.01-.18-.03-.32-.05-.46-.07-1.28-.15-2.46-.25-1.14-.1-1.86-.09-2.26-.05-3.07.2-6.1.87-9.07,1.99l-13.23,5c-.88.33-1.78.49-2.68.49-2.23,0-4.4-.99-5.87-2.79-2.06-2.52-2.27-6.07-.53-8.83l7.55-11.95c1.12-1.77,2.37-3.92,3.75-6.45-.49.02-.97.04-1.46.04-8.04,0-13.44-2.74-16.99-5.94-5.06,3.67-10.65,5.53-16.67,5.53-4.71,0-8.94-1.15-12.4-3.31-1.76,1.9-4.45,2.84-7.08,2.3l-3.71-.75c-.24-.05-.54-.09-.91-.14-.56-.08-1.58-.16-3.03-.27-1.47-.11-2.33-.1-2.78-.06-2.94.2-5.93.87-8.9,1.99l-4.92,1.86c-8.91,6.86-19.34,10.34-31.03,10.34-12.75,0-23.75-4.16-32.71-12.37-9.25-8.49-13.95-19.24-13.95-31.95,0-10.57,3.22-19.93,9.57-27.89-6.45-2.48-12.22-6.63-17.2-12.43-5.62-6.53-9.34-14.35-11.11-23.35-2.05,2.04-4.13,3.84-6.22,5.4-4,2.99-8.72,5.49-14.02,7.45-5.56,2.06-11.48,3.1-17.59,3.1-10.98,0-20.61-3.39-28.63-10.07-8.68-7.24-13.08-16.63-13.08-27.93,0-8.44,3.05-15.95,9.06-22.32,6.2-6.57,13.99-9.91,23.17-9.91.38,0,.76,0,1.14.02-2.63-4.55-3.96-9.96-3.96-16.16,0-6.58,1.63-12.71,4.83-18.21,3.03-5.2,7.01-9.5,11.82-12.78,4.16-2.83,8.96-5.21,14.25-7.07,5.01-1.76,10.09-3.03,15.09-3.79,7.3-1.1,15.04-1.36,23.66-.8,3.12.2,6.42.56,9.81,1.07,3.12.46,5.7.86,7.74,1.19,2.08.33,4.94.83,8.58,1.49,3.08.56,5.27.94,6.5,1.12,3.56.37,7.96,2.47,10.42,7.13,4.61-4.14,9.49-7.87,14.58-11.12,9.21-5.89,18.61-8.88,27.93-8.88,7.31,0,13.8,2.21,19.32,6.57,6.29,4.98,9.61,11.95,9.61,20.16,0,5.83-1.54,11.11-4.58,15.71-.22.33-.44.65-.68.98h11.42c2.88-.91,5.91-1.37,9.03-1.37,8.2,0,14.74,3.11,18.59,8.59,7.06-5.74,14.36-8.65,21.73-8.65,1.39,0,2.74.11,4.03.33l11.22-25.29c1.68-3.78,5.98-5.5,9.8-3.93l4.26,1.75c1.21.5,4.11.4,8.65-1.34l11-4.23c2.9-1.11,6.15-.36,8.26,1.91,2.12,2.28,2.63,5.57,1.3,8.38l-8.47,18c3.49,1.08,6.51,3.01,9.04,5.77l.08.09h27.38c2.61,0,5,1.32,6.39,3.52,1.4,2.2,1.57,4.93.45,7.29l-15.88,33.65-8.91,20.22c-4.62,12.2-11.75,21.91-21.2,28.87-.38.28-.77.56-1.16.83h3.95c2.73-1,5.52-1.51,8.31-1.51,5.04,0,9.69,1.63,13.45,4.67,1.4-1.96,3.69-3.16,6.16-3.16h22.65c2.73-1,5.52-1.51,8.31-1.51,6.6,0,12.52,2.8,16.68,7.89.44.53.84,1.08,1.23,1.64.19-.15.39-.3.58-.45,7.97-6.03,16.64-9.08,25.76-9.08,7.77,0,14.03,2.51,18.6,7.47h0c4.46,4.84,6.54,10.92,6.2,18.07Z"/>
      <path class="cls-5" d="M443.82,146.59c-4.57-4.96-10.82-7.47-18.6-7.47-9.12,0-17.79,3.06-25.76,9.08-.2.15-.39.3-.58.45-.38-.56-.79-1.11-1.23-1.64-4.15-5.09-10.08-7.89-16.68-7.89-2.79,0-5.58.51-8.31,1.51h-22.65c-2.47,0-4.75,1.21-6.16,3.16-3.76-3.04-8.41-4.67-13.45-4.67-2.79,0-5.58.51-8.31,1.51h-3.95c.39-.27.77-.55,1.16-.83,9.45-6.96,16.58-16.67,21.2-28.87l8.91-20.22,15.88-33.65c1.11-2.36.94-5.08-.45-7.29-1.4-2.2-3.79-3.52-6.39-3.52h-27.38l-.08-.09c-2.53-2.77-5.55-4.69-9.04-5.77l8.47-18c1.33-2.81.82-6.1-1.3-8.38-2.12-2.27-5.36-3.02-8.26-1.91l-11,4.23c-4.54,1.75-7.44,1.84-8.65,1.34l-4.26-1.75c-3.82-1.57-8.13.16-9.8,3.93l-11.22,25.29c-1.29-.22-2.63-.33-4.03-.33-7.37,0-14.67,2.91-21.73,8.65-3.84-5.47-10.39-8.59-18.59-8.59-3.12,0-6.15.46-9.03,1.37h-11.42c.24-.32.46-.65.68-.98,3.04-4.6,4.58-9.89,4.58-15.71,0-8.21-3.32-15.18-9.61-20.16-5.51-4.36-12.01-6.57-19.32-6.57-9.32,0-18.71,2.99-27.93,8.88-5.09,3.26-9.97,6.98-14.58,11.12-2.46-4.66-6.85-6.77-10.42-7.13-1.24-.19-3.42-.56-6.5-1.12-3.64-.66-6.5-1.16-8.58-1.49-2.05-.33-4.63-.72-7.74-1.19-3.39-.51-6.69-.87-9.81-1.07-8.62-.56-16.35-.3-23.66.8-5,.75-10.08,2.03-15.09,3.79-5.3,1.86-10.09,4.24-14.25,7.07-4.81,3.27-8.79,7.57-11.82,12.78-3.21,5.51-4.83,11.63-4.83,18.21,0,6.2,1.33,11.61,3.96,16.16-.38-.01-.76-.02-1.14-.02-9.18,0-16.97,3.33-23.17,9.91-6.01,6.37-9.06,13.88-9.06,22.32,0,11.3,4.4,20.7,13.08,27.93,8.02,6.68,17.65,10.07,28.63,10.07,6.11,0,12.03-1.04,17.59-3.1,5.3-1.96,10.02-4.47,14.02-7.45,2.09-1.56,4.16-3.36,6.22-5.4,1.77,9,5.49,16.83,11.11,23.35,4.99,5.79,10.75,9.95,17.2,12.43-6.36,7.96-9.57,17.32-9.57,27.89,0,12.71,4.69,23.45,13.95,31.95,8.95,8.21,19.96,12.37,32.71,12.37,11.69,0,22.13-3.48,31.03-10.34l4.92-1.86c2.96-1.12,5.95-1.79,8.9-1.99.46-.03,1.31-.05,2.78.06,1.46.11,2.47.2,3.03.27.36.05.67.09.91.14l3.71.75c2.63.54,5.32-.4,7.08-2.3,3.46,2.16,7.69,3.31,12.4,3.31,6.02,0,11.61-1.86,16.67-5.53,3.56,3.2,8.95,5.94,16.99,5.94.49,0,.98-.01,1.46-.04-1.38,2.52-2.64,4.68-3.75,6.45l-7.55,11.95c-1.74,2.76-1.53,6.31.53,8.83,1.47,1.81,3.64,2.79,5.87,2.79.9,0,1.8-.16,2.68-.49l13.23-5c2.97-1.12,6-1.79,9.07-1.99.4-.03,1.12-.05,2.26.05,1.18.1,2,.18,2.46.25.14.02.26.04.32.05l3.92.98c3.65.92,7.36-.93,8.83-4.41l8.08-19.25,1.12-2.75c1.54.22,3.15.29,4.77.21-1.88,3.54-3.56,6.48-5.01,8.78l-7.56,11.95c-1.74,2.76-1.53,6.3.53,8.83,2.02,2.48,5.55,3.43,8.54,2.3l13.23-5c2.97-1.12,6-1.79,9.01-1.99.64-.04,1.45-.02,2.32.05,1.18.1,2,.18,2.46.25.14.02.26.04.32.05l3.92.98c3.65.92,7.36-.93,8.83-4.41l8.08-19.25,1.12-2.75c1.11.16,2.26.24,3.43.24,7.73,0,15.18-3.07,22.17-9.12.56.87,1.18,1.7,1.84,2.49,4.96,5.95,12,8.96,20.93,8.96s17.85-3.37,25.94-10c7.39-6.06,13.34-14.32,17.68-24.56l.38-.9c.39-.94.6-1.93.6-2.94v-8.06c1.02-2.95,1.61-6.04,1.77-9.21.35-7.15-1.74-13.24-6.2-18.07h0ZM447.18,164.53c-.14,2.89-.69,5.72-1.62,8.43l-.16.45v8.53c0,.63-.13,1.25-.37,1.83l-.38.9c-4.16,9.81-9.84,17.71-16.86,23.48-7.57,6.21-15.69,9.36-24.14,9.36-1.61,0-3.12-.14-4.59-.35-6.44-.43-11.54-2.83-15.16-7.17-1.21-1.46-2.21-3.08-3.03-4.84l-1.85,1.6c-6.46,5.59-13.29,8.42-20.31,8.42-1.03,0-2.05-.07-3.02-.21l-.68-.1c-.52-.03-1.04-.09-1.54-.16l-10,23.97c-.91,2.18-3.23,3.34-5.52,2.76l-.77-.19c-.39.08-.8.1-1.21,0l-3.94-.98c-.18-.04-.41-.08-.68-.12-.18-.02-.35-.03-.55-.05-1.03-.09-1.98-.11-2.75-.05-3.29.21-6.6.94-9.83,2.16l-13.23,5c-1.11.42-2.35.36-3.45-.08-.23.06-.45.12-.68.12-.84,0-1.65-.37-2.2-1.05-.77-.95-.85-2.28-.2-3.31l.13-.21c.02-.84.25-1.68.72-2.43l7.56-11.95c1.48-2.35,3.21-5.36,5.12-8.96l2.34-4.4-4.98.24c-1.49.07-2.91,0-4.23-.18l-.68-.1c-.53-.03-1.04-.09-1.55-.16l-10,23.97c-.91,2.18-3.23,3.34-5.52,2.76l-.77-.19c-.39.08-.8.1-1.21,0l-3.94-.98c-.18-.04-.41-.08-.68-.12-.18-.02-.34-.03-.54-.05-1.08-.1-2-.11-2.7-.06-3.33.22-6.66.95-9.89,2.17l-13.23,5c-1.13.43-2.37.37-3.45-.07-1.05.26-2.17-.08-2.87-.93-.77-.95-.85-2.28-.2-3.31l.13-.21c.02-.84.25-1.69.72-2.44l7.55-11.95c1.15-1.82,2.44-4.04,3.85-6.6l2.44-4.46-5.07.26c-.44.02-.88.03-1.32.03-1.66,0-3.24-.14-4.74-.39-6.29-.53-10.29-3.13-12.77-5.85l-1.16.84c-4.56,3.31-9.61,4.99-15.01,4.99-1.28,0-2.5-.13-3.7-.32-3.82-.2-7.11-1.33-9.68-3.27l-1.1,1.19c-1.13,1.22-2.83,1.78-4.44,1.45l-1.04-.21c-.33.06-.68.06-1.03,0l-3.72-.75c-.2-.04-.44-.08-.69-.12-.44-.04-.93-.08-1.51-.12-1.33-.1-2.41-.12-3.19-.07-3.22.22-6.48.94-9.71,2.16l-5.32,2.01-.33.26c-8.4,6.47-18.25,9.75-29.3,9.75-2.13,0-4.2-.17-6.23-.41-9.93-.74-18.58-4.41-25.73-10.97-8.24-7.56-12.41-17.13-12.41-28.46,0-4.3.63-8.37,1.81-12.21,1.4-5.67,3.97-10.88,7.7-15.55l2.41-3.01c-7.93-1.67-14.87-5.88-20.69-12.64-6.28-7.3-9.93-16.44-10.9-27.24l-3.35,3.32c-1.95,1.94-3.94,3.67-5.91,5.14-3.78,2.82-8.26,5.2-13.3,7.06-5.25,1.94-10.84,2.92-16.61,2.92-1.98,0-3.9-.15-5.79-.39-8.46-.61-15.94-3.57-22.26-8.84-7.55-6.29-11.38-14.47-11.38-24.3,0-3.06.5-5.97,1.44-8.73,1.21-4.86,3.66-9.31,7.4-13.27,5.64-5.98,12.74-9.02,21.11-9.02.35,0,.69,0,1.04.02l4.5.15c-4.02-4.44-6.09-10.32-6.09-17.52,0-3.56.54-6.96,1.62-10.17.74-2.89,1.87-5.65,3.38-8.25,2.81-4.83,6.5-8.82,10.96-11.86,3.96-2.69,8.53-4.96,13.59-6.74,4.84-1.7,9.75-2.93,14.57-3.66,7.1-1.07,14.64-1.32,23.05-.77,3.04.2,6.26.55,9.57,1.04,3.1.46,5.68.86,7.72,1.18,2.07.33,4.91.82,8.52,1.48,3.12.57,5.34.95,6.72,1.16,2.67.28,6.23,1.9,8.2,5.63l1.7,3.23,2.71-2.44c4.49-4.03,9.27-7.68,14.21-10.84,8.75-5.59,17.63-8.43,26.4-8.43,6.65,0,12.56,2,17.55,5.96,5.58,4.42,8.54,10.62,8.54,17.93,0,5.26-1.38,10.02-4.1,14.14-.19.29-.39.58-.61.87l-3.32,4.52h17.47l.42-.13c2.6-.82,5.35-1.24,8.17-1.24,7.15,0,12.92,2.62,16.26,7.38l1.75,2.5,2.36-1.92c6.53-5.32,13.24-8.01,19.94-8.01,1.22,0,2.42.1,3.55.29l2.18.37,12.12-27.31c1.05-2.36,3.74-3.44,6.13-2.46l4.26,1.75c2.28.94,6.1.47,10.75-1.32l11-4.23c1.81-.69,3.84-.23,5.17,1.19,1.32,1.43,1.65,3.48.82,5.24l-9.86,20.95,3.12.96c2.99.92,5.61,2.6,7.86,5.06l.84.93h28.64c1.63,0,3.12.82,4,2.2.87,1.38.98,3.08.28,4.55l-15.92,33.72-8.97,20.36c-4.42,11.67-11.23,20.95-20.23,27.58-.37.27-.73.54-1.11.79l-7.38,5.17h13.47l.47-.17c6.7-2.46,13.88-1.43,19,2.71l2.34,1.89,1.75-2.44c.89-1.24,2.33-1.98,3.85-1.98h23.15l.47-.17c2.41-.89,4.88-1.34,7.33-1.34,5.73,0,10.87,2.43,14.48,6.85.38.47.74.95,1.08,1.45l1.7,2.47,2.94-2.26c7.47-5.65,15.56-8.51,24.05-8.51,6.95,0,12.5,2.21,16.51,6.55h0c3.93,4.26,5.76,9.65,5.45,16.01Z"/>
      <path class="cls-1" d="M443.82,146.59c-4.57-4.96-10.82-7.47-18.6-7.47-9.12,0-17.79,3.06-25.76,9.08-.2.15-.39.3-.58.45-.38-.56-.79-1.11-1.23-1.64-4.15-5.09-10.08-7.89-16.68-7.89-2.79,0-5.58.51-8.31,1.51h-22.65c-2.47,0-4.75,1.21-6.16,3.16-3.76-3.04-8.41-4.67-13.45-4.67-2.79,0-5.58.51-8.31,1.51h-3.95c.39-.27.77-.55,1.16-.83,9.45-6.96,16.58-16.67,21.2-28.87l8.91-20.22,15.88-33.65c1.11-2.36.94-5.08-.45-7.29-1.4-2.2-3.79-3.52-6.39-3.52h-27.38l-.08-.09c-2.53-2.77-5.55-4.69-9.04-5.77l8.47-18c1.33-2.81.82-6.1-1.3-8.38-2.12-2.27-5.36-3.02-8.26-1.91l-11,4.23c-4.54,1.75-7.44,1.84-8.65,1.34l-4.26-1.75c-3.82-1.57-8.13.16-9.8,3.93l-11.22,25.29c-1.29-.22-2.63-.33-4.03-.33-7.37,0-14.67,2.91-21.73,8.65-3.84-5.47-10.39-8.59-18.59-8.59-3.12,0-6.15.46-9.03,1.37h-11.42c.24-.32.46-.65.68-.98,3.04-4.6,4.58-9.89,4.58-15.71,0-8.21-3.32-15.18-9.61-20.16-5.51-4.36-12.01-6.57-19.32-6.57-9.32,0-18.71,2.99-27.93,8.88-5.09,3.26-9.97,6.98-14.58,11.12-2.46-4.66-6.85-6.77-10.42-7.13-1.24-.19-3.42-.56-6.5-1.12-3.64-.66-6.5-1.16-8.58-1.49-2.05-.33-4.63-.72-7.74-1.19-3.39-.51-6.69-.87-9.81-1.07-8.62-.56-16.35-.3-23.66.8-5,.75-10.08,2.03-15.09,3.79-5.3,1.86-10.09,4.24-14.25,7.07-4.81,3.27-8.79,7.57-11.82,12.78-3.21,5.51-4.83,11.63-4.83,18.21,0,6.2,1.33,11.61,3.96,16.16-.38-.01-.76-.02-1.14-.02-9.18,0-16.97,3.33-23.17,9.91-6.01,6.37-9.06,13.88-9.06,22.32,0,11.3,4.4,20.7,13.08,27.93,8.02,6.68,17.65,10.07,28.63,10.07,6.11,0,12.03-1.04,17.59-3.1,5.3-1.96,10.02-4.47,14.02-7.45,2.09-1.56,4.16-3.36,6.22-5.4,1.77,9,5.49,16.83,11.11,23.35,4.99,5.79,10.75,9.95,17.2,12.43-6.36,7.96-9.57,17.32-9.57,27.89,0,12.71,4.69,23.45,13.95,31.95,8.95,8.21,19.96,12.37,32.71,12.37,11.69,0,22.13-3.48,31.03-10.34l4.92-1.86c2.96-1.12,5.95-1.79,8.9-1.99.46-.03,1.31-.05,2.78.06,1.46.11,2.47.2,3.03.27.36.05.67.09.91.14l3.71.75c2.63.54,5.32-.4,7.08-2.3,3.46,2.16,7.69,3.31,12.4,3.31,6.02,0,11.61-1.86,16.67-5.53,3.56,3.2,8.95,5.94,16.99,5.94.49,0,.98-.01,1.46-.04-1.38,2.52-2.64,4.68-3.75,6.45l-7.55,11.95c-1.74,2.76-1.53,6.31.53,8.83,1.47,1.81,3.64,2.79,5.87,2.79.9,0,1.8-.16,2.68-.49l13.23-5c2.97-1.12,6-1.79,9.07-1.99.4-.03,1.12-.05,2.26.05,1.18.1,2,.18,2.46.25.14.02.26.04.32.05l3.92.98c3.65.92,7.36-.93,8.83-4.41l8.08-19.25,1.12-2.75c1.54.22,3.15.29,4.77.21-1.88,3.54-3.56,6.48-5.01,8.78l-7.56,11.95c-1.74,2.76-1.53,6.3.53,8.83,2.02,2.48,5.55,3.43,8.54,2.3l13.23-5c2.97-1.12,6-1.79,9.01-1.99.64-.04,1.45-.02,2.32.05,1.18.1,2,.18,2.46.25.14.02.26.04.32.05l3.92.98c3.65.92,7.36-.93,8.83-4.41l8.08-19.25,1.12-2.75c1.11.16,2.26.24,3.43.24,7.73,0,15.18-3.07,22.17-9.12.56.87,1.18,1.7,1.84,2.49,4.96,5.95,12,8.96,20.93,8.96s17.85-3.37,25.94-10c7.39-6.06,13.34-14.32,17.68-24.56l.38-.9c.39-.94.6-1.93.6-2.94v-8.06c1.02-2.95,1.61-6.04,1.77-9.21.35-7.15-1.74-13.24-6.2-18.07h0ZM447.18,164.53c-.14,2.89-.69,5.72-1.62,8.43l-.16.45v8.53c0,.63-.13,1.25-.37,1.83l-.38.9c-4.16,9.81-9.84,17.71-16.86,23.48-7.57,6.21-15.69,9.36-24.14,9.36-1.61,0-3.12-.14-4.59-.35-6.44-.43-11.54-2.83-15.16-7.17-1.21-1.46-2.21-3.08-3.03-4.84l-1.85,1.6c-6.46,5.59-13.29,8.42-20.31,8.42-1.03,0-2.05-.07-3.02-.21l-.68-.1c-.52-.03-1.04-.09-1.54-.16l-10,23.97c-.91,2.18-3.23,3.34-5.52,2.76l-.77-.19c-.39.08-.8.1-1.21,0l-3.94-.98c-.18-.04-.41-.08-.68-.12-.18-.02-.35-.03-.55-.05-1.03-.09-1.98-.11-2.75-.05-3.29.21-6.6.94-9.83,2.16l-13.23,5c-1.11.42-2.35.36-3.45-.08-.23.06-.45.12-.68.12-.84,0-1.65-.37-2.2-1.05-.77-.95-.85-2.28-.2-3.31l.13-.21c.02-.84.25-1.68.72-2.43l7.56-11.95c1.48-2.35,3.21-5.36,5.12-8.96l2.34-4.4-4.98.24c-1.49.07-2.91,0-4.23-.18l-.68-.1c-.53-.03-1.04-.09-1.55-.16l-10,23.97c-.91,2.18-3.23,3.34-5.52,2.76l-.77-.19c-.39.08-.8.1-1.21,0l-3.94-.98c-.18-.04-.41-.08-.68-.12-.18-.02-.34-.03-.54-.05-1.08-.1-2-.11-2.7-.06-3.33.22-6.66.95-9.89,2.17l-13.23,5c-1.13.43-2.37.37-3.45-.07-1.05.26-2.17-.08-2.87-.93-.77-.95-.85-2.28-.2-3.31l.13-.21c.02-.84.25-1.69.72-2.44l7.55-11.95c1.15-1.82,2.44-4.04,3.85-6.6l2.44-4.46-5.07.26c-.44.02-.88.03-1.32.03-1.66,0-3.24-.14-4.74-.39-6.29-.53-10.29-3.13-12.77-5.85l-1.16.84c-4.56,3.31-9.61,4.99-15.01,4.99-1.28,0-2.5-.13-3.7-.32-3.82-.2-7.11-1.33-9.68-3.27l-1.1,1.19c-1.13,1.22-2.83,1.78-4.44,1.45l-1.04-.21c-.33.06-.68.06-1.03,0l-3.72-.75c-.2-.04-.44-.08-.69-.12-.44-.04-.93-.08-1.51-.12-1.33-.1-2.41-.12-3.19-.07-3.22.22-6.48.94-9.71,2.16l-5.32,2.01-.33.26c-8.4,6.47-18.25,9.75-29.3,9.75-2.13,0-4.2-.17-6.23-.41-9.93-.74-18.58-4.41-25.73-10.97-8.24-7.56-12.41-17.13-12.41-28.46,0-4.3.63-8.37,1.81-12.21,1.4-5.67,3.97-10.88,7.7-15.55l2.41-3.01c-7.93-1.67-14.87-5.88-20.69-12.64-6.28-7.3-9.93-16.44-10.9-27.24l-3.35,3.32c-1.95,1.94-3.94,3.67-5.91,5.14-3.78,2.82-8.26,5.2-13.3,7.06-5.25,1.94-10.84,2.92-16.61,2.92-1.98,0-3.9-.15-5.79-.39-8.46-.61-15.94-3.57-22.26-8.84-7.55-6.29-11.38-14.47-11.38-24.3,0-3.06.5-5.97,1.44-8.73,1.21-4.86,3.66-9.31,7.4-13.27,5.64-5.98,12.74-9.02,21.11-9.02.35,0,.69,0,1.04.02l4.5.15c-4.02-4.44-6.09-10.32-6.09-17.52,0-3.56.54-6.96,1.62-10.17.74-2.89,1.87-5.65,3.38-8.25,2.81-4.83,6.5-8.82,10.96-11.86,3.96-2.69,8.53-4.96,13.59-6.74,4.84-1.7,9.75-2.93,14.57-3.66,7.1-1.07,14.64-1.32,23.05-.77,3.04.2,6.26.55,9.57,1.04,3.1.46,5.68.86,7.72,1.18,2.07.33,4.91.82,8.52,1.48,3.12.57,5.34.95,6.72,1.16,2.67.28,6.23,1.9,8.2,5.63l1.7,3.23,2.71-2.44c4.49-4.03,9.27-7.68,14.21-10.84,8.75-5.59,17.63-8.43,26.4-8.43,6.65,0,12.56,2,17.55,5.96,5.58,4.42,8.54,10.62,8.54,17.93,0,5.26-1.38,10.02-4.1,14.14-.19.29-.39.58-.61.87l-3.32,4.52h17.47l.42-.13c2.6-.82,5.35-1.24,8.17-1.24,7.15,0,12.92,2.62,16.26,7.38l1.75,2.5,2.36-1.92c6.53-5.32,13.24-8.01,19.94-8.01,1.22,0,2.42.1,3.55.29l2.18.37,12.12-27.31c1.05-2.36,3.74-3.44,6.13-2.46l4.26,1.75c2.28.94,6.1.47,10.75-1.32l11-4.23c1.81-.69,3.84-.23,5.17,1.19,1.32,1.43,1.65,3.48.82,5.24l-9.86,20.95,3.12.96c2.99.92,5.61,2.6,7.86,5.06l.84.93h28.64c1.63,0,3.12.82,4,2.2.87,1.38.98,3.08.28,4.55l-15.92,33.72-8.97,20.36c-4.42,11.67-11.23,20.95-20.23,27.58-.37.27-.73.54-1.11.79l-7.38,5.17h13.47l.47-.17c6.7-2.46,13.88-1.43,19,2.71l2.34,1.89,1.75-2.44c.89-1.24,2.33-1.98,3.85-1.98h23.15l.47-.17c2.41-.89,4.88-1.34,7.33-1.34,5.73,0,10.87,2.43,14.48,6.85.38.47.74.95,1.08,1.45l1.7,2.47,2.94-2.26c7.47-5.65,15.56-8.51,24.05-8.51,6.95,0,12.5,2.21,16.51,6.55h0c3.93,4.26,5.76,9.65,5.45,16.01Z"/>
      <path class="cls-5" d="M312.51,175.61c-2.29,4.03-4.35,8.47-6.18,13.33-.34.94-.52,1.75-.64,2.49,1.86-.97,4.19-3.98,7.01-9.1,3.06-5.6,4.67-9.78,4.87-12.58-1.46.56-3.15,2.5-5.05,5.86Z"/>
      <path class="cls-5" d="M269.5,177.12c-4.27,7.12-6.41,12.59-6.44,16.42,1.12-.13,2.28-.64,3.47-1.59-.73-2.93-.28-5.68,1.37-8.24,1.56-2.47,4.26-4.03,8.11-4.67,2.63-5.4,3.72-9.35,3.32-11.91-.11-.01-.22-.04-.35-.04-2.38,0-5.54,3.34-9.48,10.03Z"/>
      <path class="cls-5" d="M363.08,175.61c-2.29,4.03-4.35,8.47-6.18,13.33-.34.94-.52,1.75-.64,2.49,1.86-.97,4.19-3.98,7.01-9.1,3.06-5.6,4.67-9.78,4.87-12.58-1.46.56-3.15,2.5-5.05,5.86Z"/>
      <path class="cls-4" d="M48.99,70.86c3.07,3.07,6.67,4.6,10.79,4.6,3.57,0,7.03-1.03,10.37-3.09,3.34-2.06,5.38-4.33,6.12-6.8-.28.09-.64.14-1.1.14-.31,0-.6-.04-.88-.1-1.03,1.8-2.82,3.49-5.35,5.05-3.34,2.06-6.8,3.09-10.37,3.09-4.12,0-7.72-1.53-10.79-4.6-.12-.12-.23-.26-.34-.39-.13-.12-.26-.24-.4-.36.56.89,1.21,1.71,1.96,2.46Z"/>
      <path class="cls-4" d="M182.92,45.04c-4.21,0-8.84,1.33-13.88,3.99-5.04,2.66-10.03,5.98-14.98,9.96s-9.92,8.08-14.91,12.3c-4.99,4.21-10.35,8.18-16.08,11.89-5.73,3.71-11.06,6.25-16.01,7.63-1.01,3.3-1.51,6.78-1.51,10.44,0,5.4,1.37,10.53,4.12,15.39.53.94,1.13,1.77,1.75,2.55-.18-.28-.36-.54-.53-.84-2.75-4.86-4.12-9.99-4.12-15.39,0-3.66.5-7.15,1.51-10.44,4.95-1.37,10.28-3.92,16.01-7.63,5.73-3.71,11.08-7.67,16.08-11.89.48-.4.95-.79,1.43-1.19,1.67-2.01,3.43-3.94,5.36-5.69,2.95-2.68,5.84-4.6,8.67-5.83,4.77-3.79,9.58-6.98,14.44-9.54,5.04-2.66,9.67-3.99,13.88-3.99,2.25,0,3.96.29,5.21.83-.06-.46-.18-.89-.4-1.27-1.25-.84-3.23-1.28-6.02-1.28Z"/>
      <path class="cls-4" d="M44.52,96.35c0-2.02,1.15-3.02,3.44-3.02-.41-.94-.98-1.78-1.68-2.55.16.28.33.55.46.84-2.29,0-3.44,1.01-3.44,3.02,0,1.03.28,1.89.78,2.6.19.13.39.24.59.35-.09-.39-.15-.79-.15-1.24Z"/>
      <path class="cls-4" d="M82.61,42.43c-3.85,1.74-7.08,3.96-9.69,6.67-2.61,2.7-3.92,5.52-3.92,8.45,0,1.74.44,3.25,1.31,4.53.03.04.06.06.09.1.15.1.29.22.45.3-.4-.97-.62-2.05-.62-3.23,0-2.93,1.31-5.75,3.92-8.45,2.61-2.7,5.84-4.92,9.69-6.67,8.08-3.42,16.72-5.07,25.92-5,.92-.55,1.85-1.07,2.8-1.57-10.71-.66-20.69.95-29.94,4.86Z"/>
      <path class="cls-4" d="M190.34,48.15c-.05-.17-.13-.32-.2-.48-.09.05-.17.1-.26.16.17.1.32.21.47.33Z"/>
      <path class="cls-4" d="M202.71,32.26c0,3.39-.85,6.37-2.54,8.93-1.63,2.46-4.68,5.01-9.14,7.64.43.57.67,1.24.67,2.04,4.76-2.75,7.99-5.4,9.69-7.97,1.69-2.56,2.54-5.54,2.54-8.93s-1.01-6.28-2.99-8.61c1.17,1.99,1.77,4.28,1.77,6.91Z"/>
      <path class="cls-4" d="M100.66,76.56l4.88-9.76c1.28-2.57,3.09-5.68,5.43-9.34,2.34-3.66,4.56-6.64,6.67-8.93s4.6-4.44,7.49-6.46c2.89-2.02,5.84-3.3,8.86-3.85.18-.09.32-.62.41-1.58.09-.96.02-1.92-.21-2.89-.21-.89-.61-1.35-1.17-1.42.18.86.24,1.73.16,2.59-.09.96-.23,1.49-.41,1.58-3.02.55-5.98,1.83-8.86,3.85-2.89,2.02-5.38,4.17-7.49,6.46s-4.33,5.27-6.67,8.93c-2.34,3.66-4.14,6.78-5.43,9.34l-4.88,9.76-4.05,8.11-.59,1.04c.77-.09,1.57-.26,2.37-.47l3.49-6.97Z"/>
      <path class="cls-4" d="M142.09,148.78c4.49-3.8,6.73-8.77,6.73-14.91,0-3.37-1.02-6.24-3.03-8.61,1.2,2.01,1.82,4.3,1.82,6.9,0,6.14-2.24,11.11-6.73,14.91s-9.99,5.7-16.49,5.7c-8.24,0-15.29-3.02-21.19-8.99-.69-.65-1.37-1.35-2.03-2.07.48.65.96,1.3,1.49,1.91,6.23,7.24,13.88,10.86,22.95,10.86,6.5,0,12-1.9,16.49-5.7Z"/>
      <path class="cls-4" d="M90.85,91.35c-2.38,4.4-4.58,8.2-6.6,11.41-2.02,3.21-4.56,6.66-7.63,10.37-3.07,3.71-6.14,6.71-9.21,9-3.07,2.29-6.71,4.21-10.92,5.77s-8.66,2.34-13.33,2.34c-8.06,0-14.98-2.4-20.75-7.21-.85-.71-1.62-1.46-2.35-2.23-.26-.25-.55-.49-.8-.74,1.21,1.67,2.64,3.24,4.36,4.68,5.77,4.81,12.69,7.21,20.75,7.21,4.67,0,9.12-.78,13.33-2.34s7.86-3.48,10.92-5.77c3.07-2.29,6.14-5.29,9.21-9,3.07-3.71,5.61-7.17,7.63-10.37,2.02-3.21,4.21-7.01,6.6-11.41.6.17,1.18.28,1.76.4.13-.48.24-.96.38-1.45-1.08-.14-2.19-.34-3.36-.67Z"/>
      <path class="cls-4" d="M235.48,100.44c-1.5,2.64-3.25,5.2-5.29,7.67-4.3,5.22-9.07,7.83-14.29,7.83-3.15,0-5.52-.79-7.1-2.36,1.43,2.69,4.19,4.07,8.31,4.07,5.22,0,9.99-2.61,14.29-7.83,1.47-1.78,2.79-3.6,3.97-5.46-.02-.3-.06-.58-.06-.89,0-.99.06-2,.16-3.03Z"/>
      <path class="cls-4" d="M154.74,102.5c-4.88,8.86-10.1,13.3-15.65,13.3-2.59,0-4.7-.95-6.35-2.78-.02-.02-.04-.03-.06-.05.29.51.6,1.01.96,1.45,1.69,2.06,3.92,3.09,6.66,3.09,5.12,0,9.95-3.78,14.5-11.3-.11-1.16-.14-2.39-.07-3.71Z"/>
      <path class="cls-4" d="M261.08,103.02c-4.94,8.61-10.1,12.92-15.48,12.92-2.4,0-4.42-.97-6.07-2.81-.03-.03-.07-.04-.1-.07.25.41.49.83.78,1.21,1.74,2.25,3.94,3.37,6.6,3.37,4.89,0,9.6-3.57,14.13-10.69-.08-1.18-.04-2.5.13-3.94Z"/>
      <path class="cls-4" d="M328.97,110.61l9.15-20.75,12.7-26.89h-2.02l-11.89,25.19-9.15,20.75c-3.82,10.19-9.53,18.09-17.13,23.69-7.31,5.39-15.2,8.15-23.65,8.36,0,.01,0,.02,0,.04-.19,0-.35,0-.53-.02-.15,0-.3.02-.46.02l-6.08-.16c-12.52-.1-17.36.9-21.58,1.24-4.98.4-8.31,1-10.01,1.81-.91.4-1.58.96-2,1.69-.42.72-.47,1.32-.15,1.81-.85-.44-1.6-1.04-2.26-1.76.89,1.56,2.04,2.73,3.48,3.47-.33-.48-.28-1.08.15-1.81.42-.72,1.09-1.28,2-1.69,1.69-.8,5.03-1.4,10.01-1.81,4.22-.34,9.06-1.34,21.58-1.24l6.08.16c.15,0,.3-.02.46-.02.18,0,.35,0,.53.02,0-.01,0-.02,0-.04,8.45-.2,16.34-2.97,23.65-8.36,7.6-5.6,13.31-13.49,17.13-23.69Z"/>
      <path class="cls-4" d="M172.62,113.11c-2.69,1.88-5.53,2.84-8.53,2.84-2.53,0-4.46-.69-5.8-2.04,1.24,2.49,3.58,3.75,7.02,3.75,2.67,0,5.22-.75,7.66-2.24.13-.22.26-.45.39-.68-.7.23-1.39.45-2.09.71.45-.76.9-1.56,1.35-2.33Z"/>
      <path class="cls-4" d="M217.66,74.36c-.12-.02-.24-.05-.38-.05-2.93,0-7.37,6.46-13.33,19.38l-9.34,20.75c-.46-.09-1.03-.18-1.72-.28-.69-.09-1.9-.21-3.64-.34-1.74-.14-3.25-.16-4.53-.07-3.21.21-6.41.83-9.62,1.82-.51.88-1.02,1.78-1.53,2.64,4.12-1.56,8.24-2.47,12.37-2.75,1.28-.09,2.79-.07,4.53.07,1.74.14,2.95.25,3.64.34.69.09,1.26.18,1.72.28l9.34-20.75c5.25-11.4,9.33-17.76,12.23-19.1.19-.6.32-1.13.32-1.53,0-.15-.03-.27-.06-.4Z"/>
      <path class="cls-4" d="M171.22,64.27c-.24-.39-.55-.7-.86-1.01.57,1.09.91,2.28,1.02,3.58l.5-1.27c-.19-.45-.4-.89-.67-1.3Z"/>
      <path class="cls-4" d="M217.87,62.96h-1.32l-1.89,3.22c1.02-1.22,2.09-2.3,3.21-3.22Z"/>
      <path class="cls-4" d="M277.1,63.36c.48,1.03.74,2.29.8,3.77l.64-1.45c-.34-.92-.82-1.7-1.45-2.31Z"/>
      <path class="cls-4" d="M283.53,98.6c.01-.08,0-.13.02-.21.18-1.19,1.51-4.45,3.99-9.77l26.55-56.4c-.83.32-1.63.6-2.42.85l-25.35,53.84c-2.48,5.32-3.81,8.57-3.99,9.77-.18.77-.14,1.35,0,1.83.25.07.51.15.85.15.11,0,.23-.04.34-.05Z"/>
      <path class="cls-4" d="M230.1,98.49c.31-2.21,2.17-6.35,5.64-12.44,3.8-6.69,5.7-11.82,5.7-15.39,0-2.86-.78-5.02-2.27-6.53.68,1.31,1.06,2.9,1.06,4.82,0,3.57-1.9,8.7-5.7,15.39-3.8,6.69-5.7,11.04-5.7,13.05,0,.4.06.74.16,1.03.21.06.43.11.7.11.14,0,.28-.03.43-.05Z"/>
      <path class="cls-4" d="M310.43,95.43c.11-.01.25-.09.37-.14.34-1.7,1.32-4.13,3.01-7.34l6.69-12.83c3.73-7.64,4.14-13.06,1.23-16.25-.05-.06-.12-.1-.18-.16,1.66,3.28.92,8.17-2.27,14.7l-6.69,12.83c-2.42,4.59-3.42,7.61-3.07,9.11.16.03.3.08.49.08h.41Z"/>
      <path class="cls-4" d="M314.37,99.49c-5.4,10.64-11.09,15.97-17.07,15.97-2.56,0-4.68-.98-6.39-2.85-.08-.07-.16-.16-.24-.23.32.55.68,1.08,1.09,1.58,1.77,2.14,4.03,3.21,6.76,3.21,1.16,0,2.32-.2,3.46-.61,1.41-1,2.75-2.14,4.01-3.45,4.03-4.18,6.81-8.72,8.37-13.62Z"/>
      <path class="cls-4" d="M176.92,98.52c.06-.47.16-.97.35-1.55.46-1.42.87-2.54,1.24-3.37.37-.82.92-2.02,1.65-3.57l12.78-27.07h-2.02l-11.97,25.36c-.73,1.56-1.28,2.75-1.65,3.57-.37.82-.78,1.95-1.24,3.37-.44,1.35-.51,2.38-.24,3.11.28.1.58.17.95.17.05,0,.1-.01.15-.02Z"/>
      <path class="cls-4" d="M283.92,108.31c-3.99,5.18-8.41,7.77-13.28,7.77-2.8,0-4.92-.74-6.36-2.2,1.32,2.6,3.84,3.9,7.58,3.9,4.86,0,9.29-2.59,13.28-7.77.77-1,1.49-2.02,2.17-3.05-.26-.93-.41-1.91-.45-2.94-.91,1.46-1.87,2.9-2.94,4.29Z"/>
      <path class="cls-4" d="M187.24,190.02c.3-1.93.5-3.88.5-5.89,0-5.5-1.24-11.91-3.71-19.24-2.47-7.33-3.71-11.86-3.71-13.6,0-2.56.71-4.65,2.13-6.25,1.42-1.6,3.32-2.4,5.7-2.4,1.35,0,2.52.34,3.54,1-.18-.48-.43-.93-.75-1.35-1.12-.88-2.45-1.35-4.01-1.35-2.38,0-4.28.8-5.7,2.4-1.42,1.6-2.13,3.69-2.13,6.25,0,1.74,1.24,6.28,3.71,13.6,2.47,7.33,3.71,13.74,3.71,19.24,0,10.17-3.87,19.35-11.61,27.55-7.74,8.2-17.25,12.3-28.51,12.3-9.62,0-17.75-3.05-24.39-9.14-.32-.3-.6-.61-.91-.92-.05-.05-.11-.09-.16-.13-.73-.67-1.4-1.36-2.04-2.06,1.24,1.7,2.68,3.31,4.33,4.82,6.64,6.09,14.77,9.14,24.39,9.14,11.27,0,20.77-4.1,28.51-12.3.7-.74,1.33-1.5,1.97-2.26-.39.14-.78.25-1.17.39,2.4-4.04,5.84-10.64,10.31-19.79Z"/>
      <path class="cls-4" d="M156.95,183.79c2.47-2.24,3.71-5.15,3.71-8.73,0-3.1-1.01-5.84-3.02-8.24,1.19,1.97,1.8,4.14,1.8,6.53,0,3.57-1.24,6.48-3.71,8.73-2.44,2.21-4.87,3.32-7.31,3.35,0,.02,0,.05,0,.07,0,.55-.09,1.01-.28,1.37.18.18.64.28,1.37.28,2.47,0,4.95-1.12,7.42-3.37Z"/>
      <path class="cls-4" d="M145.9,181.66c-.62-.38-1.32-.61-2.12-.61-1.19,0-2.36.5-3.5,1.51-1.15,1.01-1.72,2.52-1.72,4.53s.56,3.63,1.66,4.99c.1.09.18.19.29.28,0,0,.01,0,.02.01-.5-1.05-.76-2.25-.76-3.57,0-2.02.57-3.53,1.72-4.53,1.15-1.01,2.31-1.51,3.5-1.51.4,0,.77.07,1.13.17,0-.06.02-.11.02-.18,0-.4-.08-.76-.25-1.08Z"/>
      <path class="cls-4" d="M211.09,138.79c0-3.89-1.23-7.32-3.65-10.31,1.61,2.57,2.43,5.43,2.43,8.6,0,4.4-1.6,8.34-4.81,11.82s-7.1,5.22-11.68,5.22c-.8,0-1.52-.07-2.2-.18-.54.31-1.14.54-1.81.65,1.28.82,3.02,1.24,5.22,1.24,4.12,0,7.69-1.42,10.7-4.25,2.03-4.42,3.97-8.68,5.79-12.71,0-.03,0-.06,0-.08Z"/>
      <path class="cls-4" d="M235.34,192.87c.3-2.21,2.17-6.35,5.64-12.45,3.8-6.69,5.7-11.82,5.7-15.39,0-2.86-.78-5.02-2.27-6.53.68,1.31,1.06,2.9,1.06,4.82,0,3.57-1.9,8.7-5.7,15.39-3.8,6.69-5.7,11.04-5.7,13.05,0,.4.06.74.16,1.03.21.06.43.11.7.11.14,0,.28-.02.43-.04Z"/>
      <path class="cls-4" d="M289.43,168.47c0-3.66-.99-6.66-2.95-9-.05-.06-.1-.11-.15-.16,1.24,2.07,1.89,4.55,1.89,7.46,0,5.39-1.66,11.46-4.93,18.2.93-.34,1.84-.89,2.73-1.63,2.27-5.42,3.41-10.38,3.41-14.86Z"/>
      <path class="cls-4" d="M234.15,116.96s-.14.23-.41.62c.17.3.37.61.61.91.1.08.22.16.33.23-.44-.99-.54-1.76-.54-1.76Z"/>
      <path class="cls-4" d="M235.44,202.49c-4.31,5.22-9.07,7.83-14.29,7.83-3.15,0-5.52-.79-7.1-2.36,1.43,2.69,4.19,4.07,8.31,4.07,5.22,0,9.98-2.61,14.29-7.83,1.58-1.92,2.98-3.9,4.24-5.92-.16-1.02-.26-2.09-.3-3.23-1.47,2.56-3.18,5.04-5.16,7.44Z"/>
      <path class="cls-4" d="M318.16,157.34h-1.79c-1.33,1.85-2.65,3.94-3.96,6.26,1.76-2.39,3.67-4.49,5.75-6.26Z"/>
      <path class="cls-4" d="M280.91,235.04c1.56.14,2.63.25,3.23.34.6.09,1.08.18,1.44.27l6.46-15.39,6.61-16.2c-.43-.56-.82-1.17-1.15-1.88l-6.68,16.37-6.46,15.39c-.37-.09-.85-.18-1.44-.27-.6-.09-1.67-.21-3.23-.34-1.56-.14-2.98-.16-4.26-.07-3.25.21-6.47.81-9.66,1.79-.56.95-1.1,1.85-1.62,2.67,4.12-1.56,8.29-2.47,12.51-2.75,1.28-.09,2.7-.07,4.26.07Z"/>
      <path class="cls-4" d="M218.43,161.86c1.61-2.2,3.38-3.98,5.31-5.34l15.45-33.89c-.63-.2-1.17-.46-1.65-.75l-15.7,34.44-4.41,6.92h.04l.96-1.37Z"/>
      <path class="cls-4" d="M307.98,210.1c5.04,0,10.08-2.34,15.12-7.01,5.04-4.67,9.09-10.35,12.16-17.04s4.65-12.96,4.74-18.83c.09-3.11-.78-5.79-2.61-8.04-.06-.07-.13-.12-.19-.19,1.11,1.91,1.66,4.08,1.58,6.52-.09,5.86-1.67,12.14-4.74,18.83s-7.12,12.37-12.16,17.04c-5.04,4.67-10.08,7.01-15.12,7.01-2.76,0-4.94-.89-6.56-2.65,1.66,2.89,4.24,4.36,7.77,4.36Z"/>
      <path class="cls-4" d="M311.29,173.9c-2.29,4.03-4.35,8.47-6.18,13.33-.46,1.28-.71,2.38-.76,3.3-.03.53,0,.95.09,1.28,0,0,0,0,0,0,.38,0,.8-.15,1.24-.38.11-.74.3-1.55.64-2.49,1.83-4.86,3.89-9.3,6.18-13.33,1.91-3.36,3.59-5.3,5.05-5.86.05-.63.04-1.22-.06-1.71-.01-.06-.04-.09-.05-.14-.08-.01-.16-.04-.25-.04-1.65,0-3.62,2.01-5.91,6.05Z"/>
      <path class="cls-4" d="M268.28,175.41c-4.4,7.33-6.55,12.92-6.46,16.76,0,.54.09.96.22,1.32.16.04.31.1.5.1.17,0,.34-.04.52-.05.03-3.83,2.17-9.3,6.44-16.42,3.94-6.69,7.1-10.03,9.48-10.03.12,0,.23.02.35.04-.09-.58-.25-1.09-.49-1.52-.32-.14-.67-.23-1.07-.23-2.38,0-5.54,3.34-9.48,10.03Z"/>
      <path class="cls-4" d="M222.91,168.74c-.13-.02-.24-.05-.38-.05-3.02,0-7.47,6.78-13.33,20.34l-8.79,19.79c-.46-.09-1.03-.18-1.72-.28-.69-.09-1.92-.21-3.71-.34-1.79-.14-3.32-.16-4.6-.07-3.21.21-6.43.83-9.64,1.82-.54.97-1.05,1.85-1.51,2.63,4.12-1.56,8.24-2.47,12.37-2.75,1.28-.09,2.82-.07,4.6.07,1.79.14,3.02.25,3.71.34.69.09,1.26.18,1.72.28l8.79-19.79c5.19-12,9.27-18.68,12.23-20.06.19-.6.32-1.14.32-1.53,0-.15-.03-.27-.06-.4Z"/>
      <path class="cls-4" d="M275.02,198.09c-6.69,8.43-13.42,12.64-20.2,12.64-4.16,0-7.3-1.15-9.44-3.46.13.2.21.44.35.63,2.11,3.02,5.54,4.53,10.31,4.53,6.78,0,13.51-4.21,20.2-12.64,1.37-.07,2.67-.34,3.91-.81.46-1,.92-2.01,1.38-3.04-1.99,1.31-4.16,2.04-6.51,2.15Z"/>
      <path class="cls-4" d="M361.86,173.9c-2.29,4.03-4.35,8.47-6.18,13.33-.46,1.28-.71,2.38-.76,3.3-.03.53,0,.95.09,1.28,0,0,0,0,0,0,.38,0,.8-.15,1.24-.38.11-.74.3-1.55.64-2.49,1.83-4.86,3.89-9.3,6.18-13.33,1.91-3.36,3.59-5.3,5.05-5.86.05-.63.04-1.22-.06-1.71-.01-.06-.04-.09-.05-.14-.08-.01-.16-.04-.25-.04-1.65,0-3.62,2.01-5.91,6.05Z"/>
      <path class="cls-4" d="M390.56,167.23c.09-3.11-.78-5.79-2.61-8.04-.06-.07-.13-.12-.19-.19,1.11,1.91,1.66,4.08,1.58,6.52-.09,5.86-1.67,12.14-4.74,18.83s-7.12,12.37-12.16,17.04c-5.04,4.67-10.08,7.01-15.12,7.01-2.76,0-4.94-.89-6.56-2.65,1.66,2.89,4.24,4.36,7.77,4.36,5.04,0,10.08-2.34,15.12-7.01,5.04-4.67,9.09-10.35,12.16-17.04s4.65-12.96,4.74-18.83Z"/>
      <path class="cls-4" d="M331.48,235.04c1.56.14,2.63.25,3.23.34.6.09,1.08.18,1.44.27l6.46-15.39,6.61-16.2c-.43-.56-.82-1.17-1.15-1.88l-6.68,16.37-6.46,15.39c-.37-.09-.85-.18-1.44-.27-.6-.09-1.67-.21-3.23-.34-1.56-.14-2.98-.16-4.26-.07-3.25.21-6.47.81-9.66,1.79-.56.95-1.1,1.85-1.62,2.67,4.12-1.56,8.29-2.47,12.51-2.75,1.28-.09,2.7-.07,4.26.07Z"/>
      <path class="cls-4" d="M368.73,157.34h-1.79c-1.33,1.85-2.65,3.94-3.96,6.26,1.76-2.39,3.67-4.49,5.75-6.26Z"/>
      <path class="cls-4" d="M429.4,181.6c-4.35,4.4-9.37,6.6-15.05,6.6-2.05,0-3.63-.52-4.74-1.54,1.01,2.15,2.98,3.25,5.96,3.25,5.68,0,10.7-2.2,15.05-6.6,4.35-4.4,6.67-9.34,6.94-14.84.18-3.61-.74-6.56-2.72-8.86,1.14,2,1.64,4.38,1.51,7.15-.27,5.5-2.59,10.44-6.94,14.84Z"/>
      <path class="cls-4" d="M406.8,186.96c0,2.11.51,3.77,1.47,5.01.12.09.25.18.38.26-.41-1.01-.63-2.19-.63-3.57,0-.94.15-2.03.38-3.2-.5-.49-.89-1.1-1.19-1.82-.24,1.21-.4,2.34-.4,3.3Z"/>
      <path class="cls-4" d="M435.77,184.54c-1.09,1.57-2.34,2.99-3.69,4.28-3.19,6.01-7.08,10.91-11.68,14.69-5.86,4.81-11.91,7.21-18.14,7.21-4.96,0-8.69-1.43-11.21-4.26-.05-.04-.11-.08-.16-.13.34.54.7,1.07,1.11,1.56,2.52,3.02,6.34,4.53,11.47,4.53,6.23,0,12.28-2.4,18.14-7.21s10.58-11.43,14.15-19.86v-.82Z"/>
      <path class="cls-5" d="M152.31,95.65c1.56,0,4.21-3.66,7.97-10.99,1.28-2.66,2.54-5.77,3.78-9.34s1.21-5.36-.07-5.36c-2.02,0-4.76,3.21-8.24,9.62-3.76,7.05-5.36,12-4.81,14.84.27.73.73,1.15,1.37,1.24Z"/>
      <path class="cls-5" d="M258.84,95.77c1.56,0,3.94-3.21,7.15-9.63l2.34-4.68c.46-1.1.87-2.09,1.24-2.96.37-.87.8-2.06,1.31-3.58.5-1.51.73-2.71.69-3.58-.05-.87-.39-1.31-1.03-1.31-2.02,0-4.77,3.21-8.25,9.63-3.76,7.06-5.37,12.01-4.82,14.86.28.73.73,1.15,1.38,1.24Z"/>
      <path class="cls-5" d="M411.36,176.7c1.74,0,3.89-1.51,6.46-4.53,2.56-3.02,3.85-5.63,3.85-7.83,0-1.01-.5-1.51-1.51-1.51s-2.45.96-4.33,2.89c-1.88,1.92-3.6,4.31-5.15,7.15-.27.37-.5.82-.69,1.37-.18.55-.18,1.1,0,1.65.18.55.64.82,1.37.82Z"/>
      <path class="cls-5" d="M69,57.54c0-2.93,1.31-5.75,3.92-8.45,2.61-2.7,5.84-4.92,9.69-6.67,9.24-3.91,19.23-5.52,29.94-4.86.11-.06.21-.13.32-.18,1.1-.27,1.15-.5.14-.69-.18-.09-.37-.14-.55-.14-11.08-.82-21.39.78-30.92,4.81-3.85,1.74-7.08,3.96-9.69,6.67-2.61,2.7-3.92,5.52-3.92,8.45,0,1.74.44,3.25,1.31,4.53.33.49.73.85,1.16,1.15-.03-.04-.06-.06-.09-.1-.87-1.28-1.31-2.79-1.31-4.53Z"/>
      <path class="cls-5" d="M22.42,123.02c5.77,4.81,12.69,7.21,20.75,7.21,4.67,0,9.12-.78,13.33-2.34s7.86-3.48,10.92-5.77c3.07-2.29,6.14-5.29,9.21-9,3.07-3.71,5.61-7.17,7.63-10.37,2.02-3.21,4.21-7.01,6.6-11.41,1.17.33,2.28.53,3.36.67.09-.3.15-.59.24-.89-1.47-.09-3.02-.37-4.67-.82-2.38,4.4-4.58,8.2-6.6,11.41-2.02,3.21-4.56,6.66-7.63,10.37-3.07,3.71-6.14,6.71-9.21,9-3.07,2.29-6.71,4.21-10.92,5.77s-8.66,2.34-13.33,2.34c-8.06,0-14.98-2.4-20.75-7.21-.45-.38-.86-.78-1.28-1.17.73.77,1.49,1.52,2.35,2.23Z"/>
      <path class="cls-5" d="M245.6,115.94c5.38,0,10.53-4.31,15.48-12.92.16-1.39.41-2.88.79-4.5-5.5,10.91-11.28,16.37-17.33,16.37-1.91,0-3.57-.6-5-1.76,1.66,1.84,3.67,2.81,6.07,2.81Z"/>
      <path class="cls-5" d="M314.37,99.49c.33-1.02.62-2.05.84-3.11-.36,0-.64-.14-.82-.41l-.27.82c-5.64,11.74-11.6,17.61-17.88,17.61-2.04,0-3.82-.6-5.32-1.8,1.72,1.87,3.84,2.85,6.39,2.85,5.98,0,11.67-5.33,17.07-15.97Z"/>
      <path class="cls-5" d="M154.74,102.5c.07-1.26.21-2.57.45-3.97-5.31,10.81-11.04,16.21-17.18,16.21-2.06,0-3.82-.58-5.28-1.73,1.65,1.83,3.76,2.78,6.35,2.78,5.56,0,10.77-4.44,15.65-13.3Z"/>
      <path class="cls-5" d="M140.28,182.56c1.15-1.01,2.31-1.51,3.5-1.51.8,0,1.49.23,2.12.61-.17-.34-.43-.65-.78-.91-.69-.5-1.49-.76-2.4-.76-1.19,0-2.36.5-3.5,1.51-1.15,1.01-1.72,2.52-1.72,4.53,0,2.51.93,4.51,2.73,6.04-1.1-1.36-1.66-3.02-1.66-4.99s.57-3.53,1.72-4.53Z"/>
      <path class="cls-5" d="M185.86,139.87c-2.38,0-4.28.8-5.7,2.4-1.42,1.6-2.13,3.69-2.13,6.25,0,1.74,1.24,6.28,3.71,13.6,2.47,7.33,3.71,13.74,3.71,19.24,0,10.17-3.87,19.35-11.61,27.55-7.74,8.2-17.25,12.3-28.51,12.3-9.54,0-17.62-3.01-24.23-9,.31.3.59.62.91.92,6.64,6.09,14.77,9.14,24.39,9.14,11.27,0,20.77-4.1,28.51-12.3,7.74-8.2,11.61-17.38,11.61-27.55,0-5.5-1.24-11.91-3.71-19.24-2.47-7.33-3.71-11.86-3.71-13.6,0-2.56.71-4.65,2.13-6.25,1.42-1.6,3.32-2.4,5.7-2.4,1.56,0,2.89.47,4.01,1.35-.2-.26-.42-.51-.68-.75-1.19-1.1-2.66-1.65-4.4-1.65Z"/>
      <path class="cls-5" d="M261.82,192.18c-.09-3.85,2.06-9.44,6.46-16.76,3.94-6.69,7.1-10.03,9.48-10.03.4,0,.76.08,1.07.23-.03-.06-.05-.13-.08-.18-.46-.73-1.15-1.1-2.06-1.1-2.38,0-5.54,3.34-9.48,10.03-4.4,7.33-6.55,12.92-6.46,16.76,0,1.39.45,2.15,1.29,2.38-.13-.36-.22-.78-.22-1.32Z"/>
      <path class="cls-5" d="M303.28,189.48c-.05.92.07,1.53.34,1.85.27.32.54.48.82.48-.08-.33-.12-.75-.09-1.28.05-.92.3-2.02.76-3.3,1.83-4.86,3.89-9.3,6.18-13.33,2.29-4.03,4.26-6.05,5.91-6.05.09,0,.17.03.25.04-.21-.72-.64-1.09-1.32-1.09-1.65,0-3.62,2.01-5.91,6.05-2.29,4.03-4.35,8.47-6.18,13.33-.46,1.28-.71,2.38-.76,3.3Z"/>
      <path class="cls-5" d="M353.85,189.48c-.05.92.07,1.53.34,1.85.27.32.54.48.82.48-.08-.33-.12-.75-.09-1.28.05-.92.3-2.02.76-3.3,1.83-4.86,3.89-9.3,6.18-13.33,2.29-4.03,4.26-6.05,5.91-6.05.09,0,.17.03.25.04-.21-.72-.64-1.09-1.32-1.09-1.65,0-3.62,2.01-5.91,6.05-2.29,4.03-4.35,8.47-6.18,13.33-.46,1.28-.71,2.38-.76,3.3Z"/>
      <path class="cls-5" d="M407.2,183.65c-.35-.84-.58-1.82-.65-2.97-.55,2.02-.82,3.76-.82,5.22,0,2.79.87,4.79,2.55,6.06-.96-1.24-1.47-2.9-1.47-5.01,0-.97.16-2.1.4-3.3Z"/>
      <path class="cls-2" d="M103.19,143.78c5.67,5.28,12.37,7.94,20.12,7.94,6.5,0,12-1.9,16.49-5.7s6.73-8.77,6.73-14.91c0-4.4-1.72-7.95-5.15-10.65s-7.03-4.05-10.79-4.05c-1.37,0-2.98.46-4.81,1.37,1.1.73,1.33,1.74.69,3.02-1.01,2.01-3.02,2.89-6.05,2.61-5.13-.37-9.07-2.98-11.82-7.83-2.75-4.86-4.12-9.99-4.12-15.39,0-3.66.5-7.15,1.51-10.44,4.95-1.37,10.28-3.92,16.01-7.63,5.73-3.71,11.08-7.67,16.08-11.89,4.99-4.21,9.96-8.31,14.91-12.3s9.94-7.31,14.98-9.96c5.04-2.66,9.67-3.99,13.88-3.99,3.79,0,6.15.78,7.09,2.33.23.37.34.8.4,1.27.02.17.06.34.06.53.16-.09.31-.19.47-.28.09-.05.17-.1.26-.16,4.36-2.59,7.35-5.1,8.96-7.53,1.69-2.56,2.54-5.54,2.54-8.93,0-4.4-1.65-7.9-4.95-10.51-3.3-2.61-7.19-3.92-11.68-3.92-6.96,0-14.06,2.31-21.3,6.94-7.24,4.63-13.9,10.24-19.99,16.83-6.09,6.6-12,13.19-17.73,19.79s-11.47,12.21-17.25,16.83c-4.14,3.32-8,5.43-11.57,6.37-.8.21-1.6.38-2.37.47-.58.07-1.16.11-1.72.11l1.24-2.2,4.05-8.11,4.88-9.76c1.28-2.57,3.09-5.68,5.43-9.34,2.34-3.66,4.56-6.64,6.67-8.93s4.6-4.44,7.49-6.46c2.89-2.02,5.84-3.3,8.86-3.85.18-.09.32-.62.41-1.58.09-.96.02-1.92-.21-2.89-.23-.96-.66-1.44-1.3-1.44-1.28-.18-3.69-.6-7.21-1.24s-6.3-1.12-8.31-1.44c-2.01-.32-4.56-.71-7.63-1.17s-6-.78-8.79-.96-5.57-.27-8.31-.27c-4.21,0-8.45.32-12.71.96-4.26.64-8.54,1.72-12.85,3.23-4.31,1.51-8.11,3.39-11.41,5.63-3.3,2.24-6,5.18-8.11,8.79-2.11,3.62-3.16,7.63-3.16,12.02,0,5.59,1.54,9.92,4.6,12.99.11.11.22.2.33.3.13.12.26.24.4.36,2.91,2.61,6.26,3.94,10.06,3.94,3.57,0,7.03-1.03,10.37-3.09,3.34-2.06,5.38-4.33,6.12-6.8-.28.09-.64.14-1.1.14-.76,0-1.44-.16-2.04-.47-.16-.08-.3-.2-.45-.3-.43-.3-.83-.67-1.16-1.15-.87-1.28-1.31-2.79-1.31-4.53,0-2.93,1.31-5.75,3.92-8.45,2.61-2.7,5.84-4.92,9.69-6.67,9.53-4.03,19.83-5.63,30.92-4.81.18,0,.37.05.55.14,1.01.18.96.41-.14.69-.11.06-.21.12-.32.18-.95.49-1.88,1.01-2.8,1.57-7.82,4.71-14.57,11.64-20.23,20.79-.92,1.47-2.54,4.15-4.88,8.04-2.34,3.89-4.01,6.62-5.02,8.18-1.01,1.56-2.59,3.83-4.74,6.8-2.15,2.98-4.01,5.15-5.57,6.53s-3.48,2.89-5.77,4.53c-2.29,1.65-4.69,2.79-7.21,3.44s-5.2.96-8.04.96c-1.4,0-2.59-.28-3.6-.81-.2-.11-.4-.22-.59-.35-.04-.03-.09-.05-.13-.08-1.15-.82-1.72-2.01-1.72-3.57,0-2.02,1.15-3.02,3.44-3.02-.92-2.11-2.56-3.8-4.95-5.08-2.38-1.28-5.08-1.92-8.11-1.92-5.68,0-10.42,2.02-14.22,6.05-3.8,4.03-5.7,8.66-5.7,13.88,0,6.55,2.2,12.07,6.58,16.56.25.26.53.5.8.74.42.39.82.8,1.28,1.17,5.77,4.81,12.69,7.21,20.75,7.21,4.67,0,9.12-.78,13.33-2.34s7.86-3.48,10.92-5.77c3.07-2.29,6.14-5.29,9.21-9,3.07-3.71,5.61-7.17,7.63-10.37,2.02-3.21,4.21-7.01,6.6-11.41,1.65.46,3.21.73,4.67.82-.09.3-.15.59-.24.89-.14.49-.25.96-.38,1.45-1.84,6.8-2.81,13.18-2.81,19.1,0,11.63,3.11,21.07,9.34,28.31.26.3.54.56.8.85.66.72,1.34,1.42,2.03,2.07Z"/>
      <path class="cls-2" d="M141.79,71.8c-3.05,3.67-5.71,7.71-7.9,12.24-3.39,7.01-5.08,13.44-5.08,19.31,0,3.48.85,6.25,2.54,8.31.41.5.85.93,1.33,1.31.02.02.04.03.06.05,1.47,1.15,3.23,1.73,5.28,1.73,6.14,0,11.86-5.4,17.18-16.21-.25,1.4-.38,2.71-.45,3.97-.08,1.32-.05,2.54.07,3.71.14,1.44.37,2.8.8,4.01,1.1,3.11,3.57,4.67,7.42,4.67,4.26,0,8.21-1.9,11.87-5.69-.76,1.33-1.51,2.61-2.27,3.91-.45.77-.9,1.57-1.35,2.33.7-.26,1.39-.48,2.09-.71,3.43-1.11,6.85-1.81,10.28-2.04,1.28-.09,2.79-.07,4.53.07,1.74.14,2.95.25,3.64.34.69.09,1.26.18,1.72.28l9.34-20.75c5.95-12.92,10.4-19.38,13.33-19.38.85,0,1.32.38,1.45,1.11.02.13.06.25.06.4,0,.39-.13.92-.32,1.53-.44,1.37-1.34,3.24-2.77,5.69-2.06,3.53-4.12,7.47-6.18,11.82-2.06,4.35-3.09,8.22-3.09,11.61,0,6.32,3.16,9.48,9.48,9.48,5.22,0,9.99-2.61,14.29-7.83,2.89-3.51,5.23-7.18,7.05-11.02-.33,1.5-.55,2.96-.69,4.4-.1,1.03-.16,2.04-.16,3.03,0,.31.05.59.06.89.15,2.73.98,5.14,2.55,7.16.47.6.97,1.11,1.5,1.55.03.03.07.04.1.07,1.44,1.15,3.1,1.76,5,1.76,6.05,0,11.83-5.46,17.33-16.37-.38,1.62-.63,3.11-.79,4.5-.16,1.44-.21,2.76-.13,3.94.37,5.37,3.23,8.07,8.62,8.07,4.86,0,9.29-2.59,13.28-7.77,1.56-2.02,2.92-4.13,4.17-6.28-.13.89-.21,1.74-.21,2.51,0,.19.03.36.04.54.04,1.04.19,2.01.45,2.94.43,1.55,1.13,2.98,2.17,4.23.37.45.78.83,1.2,1.18.08.07.15.16.24.23,1.51,1.2,3.28,1.8,5.32,1.8,6.28,0,12.24-5.87,17.88-17.61l.27-.82c.18.27.45.41.82.41-.22,1.05-.51,2.08-.84,3.11-1.57,4.9-4.35,9.44-8.37,13.62-1.26,1.31-2.6,2.45-4.01,3.45-4.05,2.86-8.74,4.47-14.07,4.81-2.86.19-7.98.1-15.31-.26-6-.34-11.47-.8-13.44-.8-5.66,0-10.27,1.34-13.81,4.03s-5.32,6.72-5.32,12.1c0,2.25.46,4.25,1.37,6.02.91,1.77,2.15,3.05,3.71,3.85-.33-.48-.28-1.08.15-1.81.42-.72,1.09-1.28,2-1.69,1.69-.8,5.03-1.4,10.01-1.81,4.22-.34,9.06-1.34,21.58-1.24l6.08.16c.15,0,.3-.02.46-.02.18,0,.35,0,.53.02,0-.01,0-.02,0-.04,8.45-.2,16.34-2.97,23.65-8.36,7.6-5.6,13.31-13.49,17.13-23.69l9.15-20.75,12.7-26.89h-18.57l-3.69,7.92-6.55,13.52c-4.1,8.45-7.06,12.97-8.92,13.65-.12.05-.25.12-.37.14h-.41c-.19,0-.33-.05-.49-.08-2.02-.39-1.38-3.75,2-10.16l6.69-12.83c3.73-7.64,4.14-13.06,1.23-16.25-2.91-3.19-7.87-3.64-14.88-1.37.55.36.82.96.82,1.78,0,2.09-1.55,6.12-4.64,12.08-3.1,5.96-6.19,12.31-9.28,19.04-1.34,2.92-2.37,5.55-3.13,7.92-1.67,1.91-3.27,2.9-4.79,3.04-.11,0-.23.05-.34.05-.34,0-.59-.07-.85-.15-1.07-.31-1.45-1.25-1.08-2.88.18-1.19,1.51-4.45,3.99-9.77l26.55-56.4c-7.15,2.75-13.07,3.16-17.75,1.24l-15.52,34.97-.64,1.45-.07.17h-.96c.18-5.69-2.29-8.53-7.43-8.53s-10.29,2.48-15.75,7.43c-5.46,4.95-9.88,10.94-13.28,17.95-1.39,2.87-2.48,5.64-3.3,8.32-2.51,3.79-4.85,5.79-7.01,6.03-.14.02-.29.05-.43.05-.27,0-.49-.05-.7-.11-.81-.24-1.23-.92-1.23-2.08,0-2.01,1.9-6.37,5.7-13.05,3.8-6.69,5.7-11.82,5.7-15.39,0-6.05-3.34-9.07-10.03-9.07-4.17,0-7.91,1.39-11.25,4.13-1.12.92-2.19,1.99-3.21,3.22-.69.83-1.37,1.71-2.03,2.68h-1.24l5.08-8.66h-17.18c-5.34,12.05-10.69,23.2-16.03,33.52-2.24,3.13-4.36,4.73-6.35,4.81-.05,0-.1.02-.15.02-.37,0-.68-.07-.95-.17-.48-.17-.83-.47-1.04-.93-.32-.73-.25-1.81.21-3.23.46-1.42.87-2.54,1.24-3.37.37-.82.92-2.02,1.65-3.57l12.78-27.07h-16.63l-2.13,5.37-.5,1.27-.53,1.33h-.55c.27-2.56-.18-4.79-1.37-6.66-1.19-1.88-3.21-2.82-6.05-2.82-2.31,0-4.67.55-7.07,1.59-2.83,1.23-5.72,3.16-8.67,5.83-1.93,1.75-3.69,3.68-5.36,5.69ZM257.47,94.53c-.55-2.84,1.05-7.8,4.82-14.86,3.48-6.42,6.24-9.63,8.25-9.63.64,0,.99.44,1.03,1.31.05.87-.18,2.06-.69,3.58-.5,1.51-.94,2.71-1.31,3.58-.37.87-.78,1.86-1.24,2.96l-2.34,4.68c-3.21,6.42-5.59,9.63-7.15,9.63-.64-.09-1.1-.5-1.38-1.24ZM150.93,94.42c-.55-2.84,1.05-7.79,4.81-14.84,3.48-6.41,6.23-9.62,8.24-9.62,1.28,0,1.3,1.79.07,5.36s-2.5,6.69-3.78,9.34c-3.76,7.33-6.41,10.99-7.97,10.99-.64-.09-1.1-.5-1.37-1.24Z"/>
      <path class="cls-3" d="M121.09,212.22c6.61,6,14.69,9,24.23,9,11.27,0,20.77-4.1,28.51-12.3,7.74-8.2,11.61-17.38,11.61-27.55,0-5.5-1.24-11.91-3.71-19.24-2.47-7.33-3.71-11.86-3.71-13.6,0-2.56.71-4.65,2.13-6.25,1.42-1.6,3.32-2.4,5.7-2.4,1.74,0,3.21.55,4.4,1.65.26.24.48.49.68.75.33.42.57.88.75,1.35.22.59.35,1.21.35,1.88,0,1.37-.44,2.7-1.3,3.99-.87,1.28-2.08,2.06-3.64,2.34,1.28.82,3.02,1.24,5.22,1.24,4.58,0,8.47-1.74,11.68-5.22s4.81-7.42,4.81-11.82c0-5.41-2.34-9.94-7.01-13.6s-10.44-5.5-17.31-5.5c-7.97,0-14.63,2.5-19.99,7.49-5.36,4.99-8.04,11.15-8.04,18.48,0,3.94,1.51,9.44,4.53,16.49,3.02,7.05,4.53,12.41,4.53,16.08,0,5.59-1.79,10.19-5.36,13.81-3.57,3.62-7.65,5.43-12.23,5.43-2.92,0-5.39-.77-7.4-2.32,0,0-.01,0-.02-.01-.11-.09-.19-.19-.29-.28-1.8-1.53-2.73-3.53-2.73-6.04,0-2.02.57-3.53,1.72-4.53,1.15-1.01,2.31-1.51,3.5-1.51.92,0,1.72.25,2.4.76.35.26.61.56.78.91.16.32.25.68.25,1.08,0,.07-.01.12-.02.18-.02.47-.1.87-.26,1.2.18.18.64.28,1.37.28,2.47,0,4.95-1.12,7.42-3.37,2.47-2.24,3.71-5.15,3.71-8.73,0-4.03-1.69-7.47-5.08-10.31-3.39-2.84-7.74-4.26-13.05-4.26-8.06,0-14.96,3.09-20.68,9.28-5.73,6.18-8.59,13.58-8.59,22.19,0,8.16,2.65,15.09,7.92,20.82.65.7,1.32,1.4,2.04,2.06.05.05.11.09.16.13Z"/>
      <path class="cls-3" d="M305.69,207.34c5.04,0,10.08-2.34,15.12-7.01,5.04-4.67,9.09-10.35,12.16-17.04s4.65-12.96,4.74-18.83c.09-3.11-.78-5.79-2.61-8.04-1.83-2.24-4.21-3.37-7.15-3.37-3.11,0-6.3,1.35-9.55,4.05-.08.07-.16.15-.24.22-2.08,1.77-3.99,3.86-5.75,6.26-.9,1.23-1.78,2.51-2.59,3.9h-1.1c2.56-5.22,5.18-9.53,7.83-12.92h-16.49l-11.88,26.54c-.71.88-1.43,1.61-2.16,2.22-.89.74-1.8,1.29-2.73,1.63-.58.21-1.18.35-1.77.39,3.76-7.33,5.63-13.88,5.63-19.65,0-3.66-.99-6.66-2.95-9s-4.6-3.5-7.9-3.5c-8.98,0-17.06,4.47-24.25,13.4-6,7.45-9.62,14.78-10.93,22-2.04,2.65-3.96,4.07-5.75,4.27-.14.02-.29.04-.43.04-.27,0-.49-.05-.7-.11-.81-.24-1.23-.92-1.23-2.08,0-2.01,1.9-6.37,5.7-13.05,3.8-6.69,5.7-11.82,5.7-15.39,0-6.05-3.34-9.07-10.03-9.07-3.96,0-7.51,1.11-10.63,3.31-1.93,1.36-3.7,3.14-5.31,5.34l-.96,1.37h-1.79l5.08-7.97,16.13-35.4c-.9-.29-1.6-.7-2.21-1.14-.11-.08-.23-.15-.33-.23-2.24-1.82-2.49-4.29-2.49-4.29,0,0-4.03,6.98-13.4,8.18-2.09,4.74-4.59,10.34-7.38,16.49-1.82,4.03-3.76,8.29-5.79,12.71-3.01,6.56-6.21,13.47-9.48,20.45-3.2,6.82-6.05,12.81-8.59,17.99-4.47,9.15-7.91,15.76-10.31,19.79.39-.15.78-.26,1.17-.39,3.73-1.3,7.47-2.1,11.2-2.35,1.28-.09,2.82-.07,4.6.07,1.79.14,3.02.25,3.71.34.69.09,1.26.18,1.72.28l8.79-19.79c5.86-13.56,10.31-20.34,13.33-20.34.85,0,1.32.38,1.45,1.11.02.13.06.25.06.4,0,.39-.13.93-.32,1.53-.44,1.37-1.34,3.24-2.77,5.69-2.06,3.53-4.12,7.47-6.18,11.82-2.06,4.35-3.09,8.22-3.09,11.61,0,6.32,3.16,9.48,9.48,9.48,5.22,0,9.98-2.61,14.29-7.83,2.5-3.03,4.59-6.19,6.28-9.47-.03.32-.08.63-.1.95-.03.75.02,1.43.05,2.13.04,1.13.14,2.21.3,3.23.43,2.68,1.24,5,2.54,6.87,2.11,3.02,5.54,4.53,10.31,4.53,6.78,0,13.51-4.21,20.2-12.64,3.34-.16,6.32-1.53,8.94-4.11-.46,1.03-.91,2.02-1.36,3.02-.47,1.03-.93,2.04-1.38,3.04-7.7,16.87-13.8,28.87-18.29,35.98,4.12-1.56,8.29-2.47,12.51-2.75,1.28-.09,2.7-.07,4.26.07,1.56.14,2.63.25,3.23.34.6.09,1.08.18,1.44.27l6.46-15.39,7.01-17.18c.21.67.46,1.29.74,1.86.33.7.72,1.32,1.15,1.88,1.65,2.16,3.99,3.27,7.04,3.27ZM260.75,191.13c-.09-3.85,2.06-9.44,6.46-16.76,3.94-6.69,7.1-10.03,9.48-10.03.92,0,1.6.37,2.06,1.1.03.05.05.12.08.18.24.43.4.94.49,1.52.4,2.55-.69,6.5-3.32,11.91-3.85.64-6.55,2.2-8.11,4.67-1.65,2.57-2.11,5.31-1.37,8.24-1.19.95-2.35,1.47-3.47,1.59-.17.02-.35.05-.52.05-.19,0-.34-.06-.5-.1-.84-.22-1.29-.99-1.29-2.38ZM310.22,172.85c2.29-4.03,4.26-6.05,5.91-6.05.68,0,1.12.37,1.32,1.09.01.05.04.09.05.14.1.49.1,1.08.06,1.71-.2,2.8-1.81,6.98-4.87,12.58-2.82,5.12-5.15,8.13-7.01,9.1-.44.23-.86.38-1.24.38,0,0,0,0,0,0-.27,0-.54-.16-.82-.48-.27-.32-.39-.94-.34-1.85.05-.92.3-2.02.76-3.3,1.83-4.86,3.89-9.3,6.18-13.33Z"/>
      <path class="cls-3" d="M356.26,207.34c5.04,0,10.08-2.34,15.12-7.01,5.04-4.67,9.09-10.35,12.16-17.04s4.65-12.96,4.74-18.83c.09-3.11-.78-5.79-2.61-8.04-1.83-2.24-4.21-3.37-7.15-3.37-3.11,0-6.3,1.35-9.55,4.05-.08.07-.16.15-.24.22-2.08,1.77-3.99,3.86-5.75,6.26-.9,1.23-1.78,2.51-2.59,3.9h-1.1c2.56-5.22,5.18-9.53,7.83-12.92h-16.49l-17.04,38.06c-9.07,20.25-16.12,34.35-21.16,42.32,4.12-1.56,8.29-2.47,12.51-2.75,1.28-.09,2.7-.07,4.26.07,1.56.14,2.63.25,3.23.34.6.09,1.08.18,1.44.27l6.46-15.39,7.01-17.18c.21.67.46,1.29.74,1.86.33.7.72,1.32,1.15,1.88,1.65,2.16,3.99,3.27,7.04,3.27ZM360.79,172.85c2.29-4.03,4.26-6.05,5.91-6.05.68,0,1.12.37,1.32,1.09.01.05.04.09.05.14.1.49.1,1.08.06,1.71-.2,2.8-1.81,6.98-4.87,12.58-2.82,5.12-5.15,8.13-7.01,9.1-.44.23-.86.38-1.24.38,0,0,0,0,0,0-.27,0-.54-.16-.82-.48-.27-.32-.39-.94-.34-1.85.05-.92.3-2.02.76-3.3,1.83-4.86,3.89-9.3,6.18-13.33Z"/>
      <path class="cls-3" d="M401.19,209.68c6.23,0,12.28-2.4,18.14-7.21s10.58-11.43,14.15-19.86v-.82c-2.47,3.57-5.63,6.44-9.48,8.59-3.85,2.15-7.1,3.23-9.76,3.23-2.37,0-4.22-.47-5.6-1.37-.13-.08-.25-.17-.38-.26-1.68-1.27-2.55-3.28-2.55-6.06,0-1.47.28-3.21.82-5.22.07,1.15.3,2.13.65,2.97.3.71.69,1.32,1.19,1.82,1.12,1.11,2.75,1.67,4.89,1.67,5.68,0,10.7-2.2,15.05-6.6,4.35-4.4,6.67-9.34,6.94-14.84.18-3.76-.8-6.8-2.95-9.14-2.15-2.34-5.34-3.5-9.55-3.5-6.41,0-12.53,2.2-18.34,6.6-5.82,4.4-10.35,9.67-13.6,15.8-3.25,6.14-4.88,11.96-4.88,17.45,0,5.13,1.26,9.21,3.78,12.23.36.44.76.83,1.18,1.2.05.04.1.08.16.13,2.47,2.13,5.84,3.2,10.14,3.2ZM409.99,175.87c-.18-.55-.18-1.1,0-1.65.18-.55.41-1.01.69-1.37,1.56-2.84,3.28-5.22,5.15-7.15,1.88-1.92,3.32-2.89,4.33-2.89s1.51.5,1.51,1.51c0,2.2-1.28,4.81-3.85,7.83-2.57,3.02-4.72,4.53-6.46,4.53-.73,0-1.19-.27-1.37-.82Z"/>
    </g>
  </g>
</svg>