<?xml version="1.0" encoding="UTF-8"?>
<svg id="Layer_1" data-name="Layer 1" xmlns="http://www.w3.org/2000/svg" viewBox="0 0 246 158">
  <defs>
    <style>
      .cls-1 {
        fill: #121212;
      }
    </style>
  </defs>
  <g>
    <path d="M191.05,66.47c-.03.18-.04.33-.08.48-.27.9-.72,1.72-1.26,2.49-.71,1.01-1.55,1.91-2.46,2.73-2.12,1.91-4.42,3.57-6.87,5.04-3.15,1.88-6.52,3.2-10.03,4.23-.28.08-.56.19-.85.24-.34.06-.56.25-.74.54-.62,1.01-1.25,2.01-1.88,3.01-1.02,1.62-2.03,3.24-3.05,4.86-.09.15-.16.31-.26.49.87.02,1.67-.2,2.44-.17.22.2.2.41.21.61.07,1.24-.14,2.45-.53,3.62-.43,1.31-1.07,2.51-1.81,3.66-.34.54-.73,1.05-1.08,1.57-.2.3-.42.4-.8.34-1.14-.18-2.3-.3-3.45-.45-.51-.07-.96,0-1.16.57-5.24,8.69-10.47,17.38-15.71,26.07-.35.58-.71,1.16-1.02,1.82.12.05.22.12.31.13.68.08,1.32-.01,1.89-.41.54-.38,1.09-.75,1.6-1.16,1.47-1.16,2.86-2.4,4.19-3.71,2.28-2.22,4.54-4.47,6.79-6.72,1.01-1.01,1.95-2.1,2.81-3.25.68-.91,1.32-1.86,1.73-2.93.03-.08.1-.15.17-.26.11.06.22.09.29.16.29.31.41.7.44,1.12.04.51-.07,1-.21,1.48-.22.79-.56,1.54-.96,2.26-.72,1.28-1.63,2.41-2.55,3.54-4.07,4.97-8.66,9.46-13.11,14.09-.33.34-.64.71-.97,1.05-.66.69-1.32,1.38-2,2.05-.44.43-.95.78-1.5,1.06-1,.5-2.05.61-3.11.21-.51-.19-1.01-.42-1.49-.68-1-.54-1.95-1.17-2.85-1.87-.88-.68-1.41-1.59-1.59-2.7-.1-.62.06-1.22.24-1.81.06-.22.15-.42.23-.63-.11-.13-.17-.03-.23.03-.12.11-.23.22-.34.34-1.49,1.51-2.98,3.01-4.45,4.53-.83.85-1.63,1.71-2.44,2.58-.65.7-1.3,1.4-2.05,2-.43.34-.87.67-1.34.93-.96.53-1.98.67-3.02.29-.53-.2-1.06-.42-1.56-.69-1.11-.59-2.13-1.32-3.1-2.1-1.36-1.11-1.78-2.53-1.37-4.21.09-.37.22-.72.39-1.24-.24.25-.36.37-.49.5-2.7,2.8-5.4,5.61-8.1,8.41-.55.57-1.11,1.14-1.77,1.6-.58.41-1.2.74-1.91.88-.5.1-.99.12-1.49-.03-.35-.1-.7-.2-1.03-.34-1.37-.59-2.63-1.34-3.77-2.3-.38-.32-.73-.68-1.06-1.06-.88-1.05-1.16-2.25-.76-3.57.14-.46.32-.9.51-1.34.14-.31.31-.61.49-.9,2.48-4.22,4.96-8.43,7.43-12.65,2.76-4.71,5.5-9.43,8.25-14.15.13-.23.31-.45.36-.75-.27-.17-.54-.12-.8-.08-.98.16-1.88.51-2.72,1.05-.24.16-.37.38-.51.62-.57.96-1.12,1.93-1.72,2.87-.73,1.13-1.56,2.19-2.54,3.11-.46.44-.96.84-1.47,1.22-1.07.8-2.29,1.19-3.61,1.31-.64.06-1.42-.09-1.92-.34-.01-.27.19-.45.32-.66.81-1.34,1.67-2.66,2.44-4.03,2.34-4.17,4.1-8.57,5.16-13.24.3-1.33.51-2.68.76-4.02.01-.07.02-.14.03-.2.02-.23.16-.38.38-.43,2.5-.61,4.98-.41,7.02,2.04.04.05.07.11.13.22-.17.76-.54,1.5-.75,2.27.15.11.22-.01.31-.07.37-.22.73-.47,1.12-.65.94-.44,1.92-.58,2.91-.16,1.16.49,2.36.81,3.54,1.22,1.36.47,2.65,1.08,3.89,1.82.33.2.65.43.92.7.52.51.66,1.15.36,1.82-.21.47-.48.93-.76,1.37-.8,1.27-1.62,2.53-2.43,3.79-5.42,8.45-10.75,16.94-16.03,25.48-.14.23-.31.44-.38.71.24.2.48.2.73.16.39-.06.76-.18,1.08-.39.51-.33,1.04-.66,1.51-1.05,1.05-.87,2.11-1.74,3.1-2.67,2.49-2.34,4.96-4.7,7.4-7.08.98-.95,1.87-1.99,2.79-3,.23-.25.4-.55.58-.84,4.53-7.73,9.06-15.47,13.59-23.2.15-.25.26-.53.5-.74.44.06.81.28,1.21.43.4.15.8.32,1.22.49.15-.22.05-.42,0-.6-.18-.87-.38-1.73-.57-2.6-.16-.73-.31-1.47-.46-2.2-.02-.11-.04-.22-.05-.34-.07-.64.14-.95.75-1.08.2-.04.4-.08.6-.11,1.66-.24,3.33-.48,4.99-.72,1.39-.21,2.79-.42,4.18-.63.67-.1,1.35-.21,2.02-.3.58-.07.81.06.98.6.67,2.1.49,4.08-.83,5.9-.09.13-.2.25-.29.38-.42.6-.98.95-1.71,1.14-1.98.53-3.93,1.13-5.9,1.7-.12.03-.23.1-.42.18.25.12.43.21.62.3.39.19.76.42,1.06.74.46.49.8,1.2.28,2.05-.3.48-.59.97-.9,1.45-3.71,5.84-7.43,11.67-11.12,17.52-2.3,3.64-4.54,7.3-6.81,10.96-.13.21-.3.4-.33.66.49.19.91.19,1.38-.04.37-.18.73-.38,1.05-.63.73-.55,1.46-1.09,2.14-1.7,1.4-1.24,2.78-2.49,4.13-3.77,1.86-1.77,3.7-3.57,5.53-5.38.71-.7,1.38-1.45,2.04-2.2.23-.25.42-.54.6-.83,2.77-4.73,5.54-9.46,8.31-14.19.1-.17.26-.32.21-.6-.15.03-.31.04-.45.09-.98.35-1.97.71-2.94,1.08-.76.29-1.52.62-2.28.92-.21.08-.41.2-.68.19,0-.12-.03-.24,0-.32.89-2.12,2.08-4.03,3.8-5.6,1.94-1.77,4.15-3.1,6.55-4.13.1-.04.21-.1.31-.13.45-.13.71-.44.93-.83,1.19-2.07,2.41-4.13,3.62-6.19.37-.63.74-1.26,1.1-1.89.05-.09.09-.19.15-.34-.29.03-.51.05-.73.08-1.26.2-2.51.42-3.77.6-1.17.18-2.34.33-3.51.48-1.26.17-2.52.33-3.79.49-.99.12-1.99.22-2.98.33-1.06.12-2.12.24-3.19.35-.54.06-1.09.12-1.63.16-1.22.11-2.45.21-3.67.31-1.34.12-2.67.24-4.01.35-.63.05-1.27.1-1.9.15-.91.06-1.82.11-2.72.18-.86.06-1.72.14-2.58.21-.7.06-1.41.11-2.11.16-.93.06-1.86.11-2.79.18-.88.06-1.77.14-2.65.21-.68.05-1.36.1-2.04.15-.93.06-1.86.12-2.79.18-.93.07-1.86.14-2.79.22-.68.05-1.36.1-2.04.15-.95.06-1.91.12-2.86.18-1.02.07-2.04.15-3.06.22-.75.05-1.5.1-2.25.15-.11,0-.22.03-.29.04-.06.03-.08.04-.1.05-.02.01-.03.03-.05.05-.14.21-.28.41-.41.63-6.22,9.99-12.27,20.07-18.23,30.21-.03.06-.06.12-.09.18,0,.02-.02.04-.02.07,0,.02,0,.05.01.11.1,0,.2.03.3,0,3.21-.74,6.42-1.49,9.63-2.22,2.86-.65,5.72-1.28,8.58-1.92.04,0,.09-.02.13-.03.25-.06.44,0,.58.23.28.45.47.93.48,1.47,0,.62-.06,1.22-.24,1.82-.25.86-.59,1.67-.98,2.47-1.09,2.19-2.46,4.2-3.88,6.18-.17.24-.38.37-.67.41-2,.32-3.99.64-5.99.98-2.76.47-5.51.96-8.26,1.45-2.06.37-4.11.75-6.17,1.12-.11.02-.22.04-.34.06-.26.05-.46.17-.59.42-.13.26-.3.51-.44.77-4.33,7.46-8.65,14.92-12.98,22.37-.16.27-.28.57-.54.81-.13-.05-.26-.08-.38-.14-1.01-.53-2-1.09-2.89-1.8-.39-.31-.77-.64-1.13-.99-1.44-1.36-1.77-3.02-1.22-4.87.14-.48.34-.94.57-1.39.37-.73.77-1.45,1.17-2.16,1.93-3.4,3.87-6.8,5.8-10.21.13-.23.32-.44.34-.79-1.51.18-2.98.46-4.46.69-1.46.22-2.9.51-4.38.7-.13-.23-.24-.39-.32-.58-.66-1.62-.56-3.16.49-4.59.25-.35.54-.68.85-.98.53-.5,1.08-.97,1.64-1.44.69-.57,1.47-.97,2.32-1.25,3.16-1.03,6.3-2.09,9.46-3.12.45-.14.73-.38.96-.78,6.09-10.75,12.2-21.49,18.3-32.23.12-.21.23-.43.37-.7-.43-.05-.78,0-1.13.05-1.19.15-2.39.32-3.58.49-1.35.19-2.7.38-4.05.6-1.9.32-3.8.67-5.7,1.03-3.78.72-7.5,1.65-11.2,2.68-2.24.62-4.45,1.3-6.65,2.05-1.71.58-3.45.99-5.24,1.19-.59.06-1.18.13-1.76.18-.36.03-.5-.08-.58-.43-.08-.37-.05-.74.14-1.06.23-.39.46-.79.77-1.12.68-.74,1.37-1.46,2.1-2.14,1.24-1.17,2.52-2.3,3.78-3.46,1.37-1.26,2.92-2.23,4.63-2.97,2.01-.87,4.09-1.51,6.21-2.05,2.58-.66,5.18-1.22,7.8-1.66,1.77-.3,3.54-.63,5.31-.9,1.8-.27,3.6-.51,5.4-.73,1.78-.23,3.56-.44,5.35-.64,1.54-.17,3.08-.3,4.61-.46,1.61-.16,3.21-.34,4.82-.5,1.2-.12,2.4-.21,3.6-.32,1.25-.11,2.49-.24,3.73-.35.7-.06,1.41-.12,2.11-.18.82-.07,1.63-.15,2.45-.22.59-.05,1.18-.11,1.77-.16,1.29-.11,2.58-.2,3.88-.32,1.27-.11,2.54-.24,3.8-.35.72-.07,1.45-.12,2.18-.18.79-.07,1.58-.14,2.38-.22.59-.05,1.18-.11,1.77-.16,1.25-.11,2.49-.2,3.74-.32,1.2-.11,2.4-.24,3.6-.35,1.2-.11,2.4-.21,3.6-.32,1.15-.11,2.31-.23,3.46-.35.54-.06,1.09-.11,1.63-.17,1.79-.18,3.57-.36,5.36-.54,1.52-.15,3.03-.29,4.55-.46,1.74-.19,3.48-.41,5.21-.63,1.51-.19,3.02-.38,4.53-.6,1.62-.23,3.24-.49,4.85-.76,1.88-.32,3.76-.64,5.64-1,4.49-.88,8.92-1.98,13.23-3.54,1.11-.4,2.2-.87,3.28-1.34,1.5-.65,3.02-1.27,4.59-1.73.22-.06.44-.12.66-.17.04,0,.08.02.21.07Z"/>
    <path d="M28.43,69.7c.04.32-.11.56-.2.82-.68,2.03-1.4,4.04-2.05,6.07-.68,2.1-1.25,4.23-1.63,6.41-.09.54-.15,1.08-.21,1.62-.11.95.07,1.86.33,2.76.27.95.67,1.17,1.62.9.81-.23,1.57-.59,2.29-1.04,1.11-.68,2.11-1.51,3.08-2.37,1.37-1.24,2.64-2.57,3.86-3.95.06-.07.12-.14.17-.21,1.03-1.48,1.97-3.01,2.62-4.7.42-1.11.72-2.25.75-3.45.03-1.46-.39-2.78-1.23-3.97-.74-1.05-1.68-1.91-2.71-2.67-1.35-.98-2.81-1.77-4.29-2.53-1.13-.58-2.26-1.18-3.35-1.83-1.4-.82-2.71-1.76-3.9-2.86-.15-.14-.3-.28-.45-.42-1.49-1.37-2.39-3.07-2.79-5.05-.33-1.62-.43-3.23-.33-4.88.2-3.18,1.12-6.16,2.46-9.03,1.47-3.15,3.39-6.02,5.58-8.71,2.73-3.37,5.8-6.41,9.06-9.26,2.49-2.17,5.07-4.22,7.83-6.05,2.51-1.66,5.11-3.15,7.91-4.28.9-.37,1.84-.66,2.76-.97.93-.31,1.88-.32,2.84-.16.92.15,1.83.35,2.74.53.09.02.17.06.26.07.57.1.76.01,1.07-.48.19-.31.39-.61.6-.91.13-.19.32-.31.56-.35.9-.13,1.8-.3,2.7-.39,2.87-.27,5.51.39,7.87,2.08.95.68,1.8,1.46,2.57,2.34.12.13.22.28.32.41-.05.29-.26.45-.42.64-1.6,1.96-3.22,3.89-4.79,5.87-1.82,2.28-3.57,4.6-5.17,7.04-.44.66-.85,1.34-1.27,2.01.15.15.23.03.31-.02,6.45-4.41,13.55-7.4,21.01-9.61,3.03-.9,6.11-1.6,9.22-2.17,2.04-.37,4.08-.67,6.14-.88,1.67-.17,3.35-.32,5.03-.41,2.64-.14,5.27-.18,7.91-.25,2.23-.06,4.46-.15,6.68-.22.14,0,.27-.01.41-.02,1.91-.06,3.82-.11,5.73-.18,1.39-.05,2.77-.14,4.16-.21,1.11-.06,2.23-.1,3.34-.17,1.23-.07,2.45-.16,3.67-.25,1.13-.09,2.27-.18,3.4-.31,3.91-.42,7.81-.96,11.6-2.04,2.11-.6,4.15-1.33,6.07-2.41.89-.5,1.84-.9,2.82-1.19.13-.04.26-.05.39-.07.18.19.17.39.15.59-.07.94-.29,1.84-.68,2.7-.3.66-.68,1.29-1.11,1.88-2.62,3.56-6.03,6.02-10.27,7.29-1.7.51-3.43.91-5.17,1.22-1.66.29-3.32.57-4.98.79-1.51.2-3.03.33-4.54.46-1.59.14-3.17.25-4.76.36-1.18.08-2.36.13-3.54.16-3.46.11-6.91.15-10.37.17-2.23.01-4.46.07-6.69.15-1.64.06-3.27.15-4.91.27-1.79.14-3.58.31-5.36.5-1.58.17-3.16.35-4.73.59-3.03.48-6.03,1.11-9,1.9-3.21.86-6.37,1.87-9.48,3.04-5.74,2.16-10.81,5.41-15.29,9.57-2.43,2.25-4.6,4.72-6.55,7.4-.51.7-1.01,1.4-1.52,2.1-.91,1.26-2.12,2.04-3.68,2.24-1.82.23-3.99-.88-4.19-3.41-.07-.86-.02-1.73.04-2.59.21-2.88.9-5.65,1.8-8.38,1.05-3.2,2.37-6.3,3.81-9.34.38-.8.78-1.59,1.16-2.39.09-.18.18-.37.23-.57.07-.29-.15-.55-.45-.54-.13,0-.27.03-.39.08-.17.07-.32.17-.48.27-6.51,4-12.42,8.75-17.62,14.36-1.46,1.57-2.76,3.27-3.84,5.13-.83,1.43-1.47,2.93-1.78,4.55-.17.87-.27,1.75-.08,2.64.18.86.51,1.65,1.04,2.35.6.79,1.32,1.44,2.14,1.99.59.39,1.19.75,1.81,1.09,2.68,1.46,5.36,2.9,8.04,4.34,1.78.96,3.58,1.89,5.33,2.9,1.93,1.12,3.21,2.77,3.56,5,.22,1.44.15,2.9-.28,4.33-.4,1.31-.97,2.55-1.65,3.74-.84,1.47-1.81,2.84-2.89,4.14-3.15,3.83-6.67,7.27-10.61,10.29-1.01.77-2.08,1.48-3.19,2.1-.84.47-1.69.84-2.67.96-1.35.17-2.7.39-4.07.35-3.34-.1-6.07-1.4-8.14-4.05-.87-1.12-1.53-2.37-2.06-3.68-.28-.71-.4-1.45-.44-2.2-.06-1.23-.09-2.45.05-3.68.23-2.07,1.03-3.9,2.25-5.56.78-1.07,1.73-1.99,2.72-2.86,1.29-1.13,2.78-1.89,4.37-2.47,1.07-.39,2.16-.69,3.28-.91.22-.04.44-.09.71.01Z"/>
    <path d="M170.48,5.72c.12.03.25.04.38.09,1.76.67,3.53,1.35,5.23,2.16.33.16.66.32.96.52.27.17.52.37.75.59.52.49.56,1.34.25,1.82-.34.54-.65,1.1-.99,1.63-2.11,3.35-4.25,6.68-6.35,10.04-2.45,3.91-4.88,7.84-7.31,11.77-.08.13-.16.27-.28.47.22-.04.3-.18.41-.27,2.96-2.74,5.93-5.45,9.05-8.01,1.34-1.1,2.72-2.13,4.1-3.17.75-.56,1.55-1.04,2.38-1.46.36-.18.66-.17,1.02.04.86.52,1.7,1.06,2.44,1.74.57.53,1.07,1.12,1.4,1.83.23.48.33.97.18,1.52-.21.75-.44,1.48-.76,2.19-.6,1.36-1.36,2.63-2.18,3.86-1.6,2.39-3.43,4.6-5.35,6.73-2.01,2.23-4.08,4.41-6.29,6.45-1.22,1.13-2.48,2.21-3.75,3.28-.38.33-.62.68-.71,1.19-.23,1.35-.49,2.68-.73,4.03-.22,1.21-.42,2.42-.64,3.63-.02.09-.02.18-.03.29.1.06.18.16.28.18.52.11,1.05.12,1.53-.14.4-.21.79-.45,1.16-.71,1.21-.85,2.33-1.82,3.43-2.81,2.97-2.66,5.79-5.47,8.54-8.35.9-.94,1.72-1.94,2.57-2.92.46-.53.86-1.12,1.2-1.74.37-.68.69-1.39,1.13-2.02.66-.96,1.21-1.97,1.8-2.97,5.39-9.21,10.76-18.43,16.14-27.64,1.64-2.81,3.3-5.61,4.95-8.41.14-.23.29-.46.45-.71.17.04.33.05.47.1,1.79.72,3.58,1.45,5.38,2.17.42.17.82.4,1.16.71.7.64.84,1.37.4,2.21-.25.48-.55.95-.84,1.4-10.26,15.86-20.02,32.02-29.65,48.26-.11.19-.22.39-.31.56.06.2.21.23.34.24.22.02.46.04.67-.02.28-.07.57-.19.81-.35.54-.34,1.06-.7,1.57-1.09,1.57-1.22,3.01-2.57,4.46-3.92.98-.92,1.94-1.85,2.91-2.78.23-.22.44-.45.58-.75,1.77-3.67,3.83-7.18,5.98-10.64.1-.15.19-.31.28-.47.02-.04.02-.09.04-.18-.13-.12-.28-.25-.42-.39-.28-.3-.58-.58-.81-.91-.46-.66-.53-1.39-.27-2.15.26-.77,1-1.68,1.77-2.16.38.32.77.67,1.17.99.39.31.79.61,1.27.83.14-.18.27-.33.39-.49,3.18-4.41,6.79-8.43,10.74-12.16.93-.88,1.9-1.7,2.93-2.45.24-.17.48-.34.73-.5,1.27-.79,1-.67,2.43-.7,1.7-.03,3.34.32,4.92.96,1.51.61,2.68,1.61,3.53,2.99.82,1.34,1.3,2.8,1.51,4.35.04.33,0,.63-.1.94-.32,1-.75,1.95-1.25,2.87-2.11,3.88-5.2,6.68-9.22,8.48-2.13.95-4.35,1.6-6.64,2.04-1.39.26-2.78.5-4.19.57-.33.02-.55.16-.73.43-.35.51-.71,1-1.06,1.51-2.14,3.06-4.08,6.25-5.62,9.66-.37.81-.68,1.64-1,2.46-.08.21-.11.43-.16.65.48.29.95.31,1.41.14.38-.14.76-.31,1.1-.54.83-.56,1.66-1.12,2.44-1.74,3.22-2.57,6.32-5.29,9.29-8.14,1.1-1.05,2.14-2.17,3.18-3.28.5-.53.95-1.11,1.37-1.7.37-.52.67-1.08,1.01-1.62.08-.13.16-.26.23-.38.27-.02.43.13.54.29.14.2.26.43.32.67.13.5.04,1-.07,1.48-.17.69-.44,1.34-.79,1.96-.64,1.14-1.45,2.15-2.3,3.13-3.07,3.52-6.44,6.74-9.8,9.98-2.18,2.1-4.38,4.18-6.56,6.28-.5.48-1.04.89-1.63,1.23-1.38.79-2.82.94-4.33.38-.84-.31-1.6-.77-2.33-1.28-.17-.12-.33-.24-.5-.36-1.49-1.07-1.96-2.56-1.74-4.31.04-.31.09-.62.14-.93-.18-.07-.24.05-.32.12-2.46,2.55-4.93,5.11-7.39,7.67-.59.61-1.24,1.14-1.97,1.57-.33.19-.69.34-1.06.46-.63.2-1.26.16-1.87-.08-1.73-.68-3.32-1.59-4.71-2.84-.23-.21-.44-.46-.63-.71-.76-.99-.97-2.09-.6-3.28.14-.45.34-.89.53-1.33.08-.19.18-.37.3-.6-.23.05-.32.2-.43.32-2.44,2.52-4.87,5.04-7.31,7.56-.74.77-1.49,1.53-2.27,2.27-.48.45-.99.88-1.54,1.24-1.38.88-3.18.86-4.47-.37-.39-.37-.77-.78-1.07-1.23-.41-.6-.77-1.24-1.09-1.89-.3-.6-.37-1.24-.25-1.92.63-3.58,1.23-7.17,1.85-10.76.14-.83.29-1.66.42-2.49.06-.39.21-.71.52-1,3.03-2.79,5.88-5.77,8.68-8.79,1.86-2,3.68-4.04,5.39-6.17.84-1.05,1.67-2.11,2.37-3.25.35-.56.64-1.15.95-1.73.07-.13.1-.29.2-.57-.22.16-.32.23-.42.31-4.6,3.66-8.99,7.55-13.06,11.79-2.1,2.18-4.15,4.4-6.06,6.75-.93,1.15-1.85,2.31-2.64,3.57-.34.54-.63,1.11-.94,1.66-.11.2-.21.4-.33.6-3.58,6.02-7.16,12.05-10.74,18.07-.18.31-.32.65-.62.91-.12-.04-.23-.06-.33-.11-1.05-.51-2.05-1.09-2.95-1.84-.33-.28-.64-.58-.94-.9-1.08-1.18-1.27-2.53-.73-4,.18-.49.42-.96.67-1.42.54-.97,1.1-1.94,1.66-2.9,9-15.37,17.99-30.75,26.99-46.12,1.39-2.38,2.78-4.75,4.17-7.13.14-.23.24-.49.5-.67ZM224.42,21.79c-.25.18-.45.3-.62.44-.91.75-1.84,1.48-2.72,2.28-3.44,3.12-6.52,6.59-9.53,10.12-.06.08-.09.18-.16.3.77.1,1.46-.07,2.15-.2,1.7-.33,3.24-1.05,4.69-1.96,1.6-1.01,3.03-2.24,4.39-3.56.92-.9,1.62-1.96,2.2-3.1.27-.53.46-1.09.54-1.68.15-1.01-.14-1.88-.94-2.63Z"/>
    <path d="M88.26,44.45c-.29.17-.6.32-.87.52-.68.5-1.36.99-2.01,1.53-3.77,3.19-7.38,6.56-10.8,10.13-1.21,1.27-2.27,2.66-3.22,4.14-4.68,7.27-9.15,14.67-13.57,22.1-.16.27-.28.58-.58.79-.14-.05-.29-.09-.42-.16-1.22-.66-2.38-1.42-3.45-2.32-.87-.73-1.32-1.67-1.43-2.78-.06-.6.07-1.18.3-1.73.24-.59.51-1.17.82-1.72.7-1.25,1.43-2.48,2.16-3.72,5.85-9.99,11.71-19.98,17.57-29.97.29-.49.58-.98.87-1.47.1-.17.22-.34.35-.53.14.03.28.03.4.08,1.66.64,3.31,1.27,4.96,1.92.44.18.87.4,1.28.63.38.21.71.5.96.86.36.52.46,1.08.19,1.68-.09.2-.18.4-.21.65.09-.08.19-.17.28-.26,2.18-2.2,4.39-4.36,6.45-6.68.74-.84,1.56-1.59,2.49-2.23.57-.39,1.18-.65,1.88-.75.49-.07.96-.01,1.41.14.71.24,1.4.53,2.1.8.34.13.68.26,1.02.4.78.31,1.58.58,2.34.93.49.22.95.54,1.4.84.3.2.55.48.73.8.24.43.29.86.06,1.3-.16.3-.32.6-.5.89-.8,1.27-1.62,2.53-2.43,3.8-5.37,8.37-10.68,16.77-15.86,25.26-.14.23-.32.44-.37.71.48.19.81.21,1.25,0,.35-.16.7-.34,1.01-.57.61-.44,1.21-.88,1.79-1.36,1.86-1.54,3.56-3.25,5.35-4.87,1.09-.99,1.95-2.13,2.69-3.4,5.37-9.22,10.77-18.42,16.16-27.63.15-.25.3-.5.46-.76.46,0,.81.24,1.18.38.38.14.76.3,1.11.44.17-.1.11-.21.08-.31-.46-1.38-.92-2.76-1.38-4.14-.09-.26-.17-.52-.23-.79-.09-.41.07-.72.45-.89.21-.09.43-.15.65-.21,3.7-.94,7.4-1.87,11.11-2.8.89-.22,1.07-.14,1.41.69.8,2.01.72,3.95-.49,5.8-.09.13-.17.27-.26.4-.32.49-.74.81-1.31,1.02-2.04.78-4.06,1.61-6.08,2.42-.1.04-.2.1-.29.14-.03.18.11.19.2.24.28.15.58.27.84.46.27.2.54.43.74.7.38.52.44,1.09.12,1.67-.24.44-.5.87-.77,1.29-1.4,2.18-2.81,4.36-4.21,6.54-4.73,7.4-9.36,14.86-13.98,22.33-.09.15-.18.31-.29.51.14.07.25.15.36.16.47.05.91-.07,1.3-.31.48-.3.96-.61,1.41-.95,1.36-1.03,2.63-2.17,3.88-3.34,1.66-1.56,3.29-3.14,4.94-4.71.29-.27.5-.58.68-.93,2.03-3.97,4.29-7.82,6.8-11.51,3.34-4.9,7.13-9.44,11.36-13.6,1.28-1.26,2.64-2.44,4.11-3.48.45-.31.92-.59,1.37-.9.41-.27.86-.39,1.35-.39,1.05-.02,2.09.14,3.11.33.27.05.53.13.8.18,1.27.23,2.35.83,3.32,1.65.31.26.62.53.91.79.25-.03.3-.22.4-.36.72-.97,1.44-1.93,2.15-2.91.23-.31.49-.51.88-.57.69-.12,1.37-.32,2.07-.41,1.82-.25,3.48.17,4.91,1.35.07.06.14.12.2.19.03.03.05.08.08.12.02.24-.19.35-.32.49-.99,1.01-2.01,1.98-2.96,3.02-3.85,4.2-6.92,8.9-9.06,14.19-.08.21-.18.42-.28.65-.14,0-.28.05-.4.02-.42-.1-.84-.21-1.24-.36-1.21-.43-1.83-1.36-2.07-2.58-.13-.66-.07-1.32.06-1.97.25-1.21.69-2.36,1.23-3.47.31-.63.63-1.26.99-1.87.21-.36.21-.68.04-1.03-.25-.51-.53-1-.97-1.37-.29.02-.46.22-.65.37-1.27,1-2.46,2.09-3.62,3.22-3.39,3.29-6.46,6.85-9.24,10.67-2.31,3.16-4.49,6.41-6.38,9.84-1.26,2.3-2.39,4.65-3.29,7.12-.08.23-.22.45-.18.73.48.22.96.26,1.45.07.36-.14.73-.28,1.05-.49.78-.51,1.57-1.02,2.28-1.61,2.01-1.67,4.01-3.36,5.98-5.08,2.09-1.83,4.13-3.71,6.02-5.75.66-.72,1.29-1.47,1.9-2.24.49-.6.9-1.26,1.17-2,.04-.1.11-.19.18-.29.42.11.62.41.77.74.19.4.21.83.14,1.27-.11.63-.29,1.24-.56,1.82-.5,1.08-1.21,2.03-1.95,2.95-2.24,2.8-4.78,5.31-7.34,7.8-3.19,3.09-6.4,6.14-9.61,9.21-.58.55-1.23,1.01-1.93,1.4-.67.38-1.4.55-2.15.58-.38.02-.77-.05-1.15-.14-1.23-.31-2.35-.87-3.38-1.59-.73-.51-1.3-1.21-1.73-2-.34-.62-.38-1.31-.31-1.99.06-.63.18-1.26.27-1.89.01-.08.01-.17.03-.35-.16.12-.25.18-.32.26-2.03,2.06-4.06,4.12-6.08,6.18-.35.36-.67.75-1,1.12-.68.74-1.38,1.45-2.18,2.06-.4.3-.82.58-1.26.81-.84.43-1.74.52-2.65.22-.56-.18-1.11-.41-1.63-.68-1.18-.6-2.25-1.38-3.27-2.22-.71-.58-1.18-1.31-1.37-2.22-.02-.08-.05-.17-.07-.23-.17-.07-.24.03-.32.11-1.34,1.39-2.69,2.78-4.02,4.19-.75.79-1.49,1.6-2.33,2.3-.42.35-.85.68-1.32.97-1.02.63-2.12.8-3.26.36-.51-.19-1.01-.41-1.5-.66-1.05-.54-2.03-1.22-2.96-1.95-.9-.7-1.46-1.6-1.63-2.75-.11-.74-.02-1.46.28-2.14.29-.66.62-1.32.98-1.95.74-1.31,1.51-2.6,2.26-3.89,4.23-7.23,8.46-14.45,12.69-21.68.1-.17.19-.35.28-.53-.03-.04-.07-.07-.1-.11Z"/>
    <path d="M195.58,84.29c.17.33.11.58.07.82-.19,1.46-.81,2.74-1.75,3.86-.8.97-1.74,1.79-2.76,2.53-.18.13-.36.27-.58.43.06.13.11.25.18.36.3.5.25,1-.01,1.49-.11.2-.24.39-.38.56-.23.28-.46.56-.71.83-6.69,7.15-13.02,14.6-18.98,22.36-1.5,1.95-3.01,3.88-4.52,5.82-.15.19-.29.39-.48.66.16,0,.24.03.32.01,1.38-.27,2.76-.55,4.15-.81,2.04-.38,4.08-.66,6.16-.68,1.07,0,2.14.03,3.18.34.37.11.74.24,1.08.41.92.46,1.47,1.2,1.59,2.23.08.69-.04,1.35-.23,2.01-.3.12-.57.04-.83,0-.75-.12-1.49-.1-2.24-.01-3.84.43-7.51,1.55-11.13,2.86-3.4,1.23-6.71,2.69-9.99,4.21-.25.11-.5.23-.76.35-.12-.05-.25-.09-.37-.15-1.34-.73-2.67-1.46-4.01-2.2-.5-.27-.98-.58-1.36-1.01-.54-.61-.63-1.29-.31-2.03.11-.25.25-.49.41-.71.29-.41.59-.81.91-1.19,1.88-2.28,3.75-4.57,5.65-6.84,6.38-7.62,12.77-15.24,19.15-22.86.14-.17.27-.35.48-.62-.3.06-.48.08-.65.12-2.31.59-4.66,1.03-7.01,1.42-.11.02-.23.03-.34.04-.25.04-.43-.06-.58-.27-.52-.72-.79-1.53-.85-2.41-.07-.94.08-1.86.34-2.76.25-.86.61-1.66.99-2.46.18-.38.44-.55.84-.55.16,0,.32-.03.48-.03,1.02-.06,2.04-.1,3.06-.18,1.15-.1,2.31-.24,3.46-.35,1.58-.16,3.15-.42,4.71-.73,3.65-.7,7.22-1.65,10.6-3.24.84-.4,1.65-.87,2.47-1.31.17-.09.35-.19.57-.3Z"/>
  </g>
  <g>
    <path class="cls-1" d="M113.33,150.02s.07.14.15.21c.27.25.29.6.37.92-.03.38-.13.74-.46.98-.15.11-.33.17-.5.24-.17.07-.35.1-.54.14-.38.06-.77.05-1.16.07-.06,0-.11.02-.17.03-.09,0-.19.04-.28.02-.2-.07-.39-.04-.59-.06-.08,0-.16,0-.25,0-.16,0-.27-.07-.34-.21-.06-.12-.1-.23-.1-.37,0-.59,0-1.18,0-1.76,0-.09.01-.18.03-.28.03-.15.01-.3.01-.45,0-.01-.01-.02-.01-.03-.06-.51-.04-1.03-.03-1.55,0-.08.03-.16.07-.23.08-.16.23-.23.39-.26.08-.01.16,0,.25,0,.49,0,.99,0,1.48,0,.26,0,.51.07.75.14.21.06.4.19.58.32.21.15.33.36.42.6.13.37.12.73-.05,1.09-.06.13-.13.25-.05.45ZM110.67,151.06h0c0,.07,0,.14,0,.21,0,.09.06.16.13.2.12.07.27.1.4.08.13-.02.25-.02.38-.03.16,0,.33,0,.49-.01.2-.02.39-.08.51-.26.07-.11.08-.23.02-.33-.09-.17-.25-.28-.44-.31-.27-.04-.55-.12-.83-.01-.06.02-.14,0-.21,0-.07,0-.14,0-.21,0-.13.01-.24.12-.25.25,0,.07,0,.14,0,.21ZM110.7,149.65c.41.08.76-.04,1.12-.07.25-.02.4-.22.47-.46,0-.03.01-.07,0-.1-.07-.19-.15-.37-.39-.4-.08-.01-.16-.05-.24-.06-.26-.01-.52,0-.77-.01-.11,0-.18.04-.21.15-.02.07-.05.13-.05.2,0,.18,0,.35,0,.53,0,.08.05.15.08.23Z"/>
    <path class="cls-1" d="M97.54,147.41c.15,0,.31,0,.48,0,.15,0,.27.05.4.12.05.03.1.06.13.12.06.12.14.24.21.37.12.23.25.45.42.65.12.14.22.3.29.48.1.24.23.46.41.65.08.09.14.19.2.28.03.05.06.11.09.15.06.06.11.19.22.14.08-.04.05-.15.05-.23,0-.19.02-.37.05-.56.03-.19.05-.4-.04-.59-.01-.03,0-.07,0-.1,0-.33,0-.66-.01-.99,0-.26.19-.49.49-.48.12,0,.24,0,.35,0,.14,0,.23.08.28.19.07.15.13.31.07.47-.07.2-.04.4-.05.59,0,.2-.03.4.05.59,0,.39.06.77-.03,1.16-.04.15-.03.3,0,.45.06.24.05.48,0,.73-.02.12,0,.25-.01.38.1.14,0,.27-.03.4-.02.07-.1.15-.16.17-.11.04-.21.1-.33.09-.16-.02-.32-.04-.48-.08-.04,0-.08-.04-.12-.07-.08-.08-.18-.16-.24-.25-.22-.33-.47-.64-.65-.99-.09-.17-.18-.33-.29-.48-.19-.27-.35-.55-.52-.83-.05-.09-.11-.18-.17-.27-.04-.06-.1-.04-.13.02-.06.1-.07.2-.05.3.06.22.03.43,0,.65-.04.3-.04.6.02.91.04.21.04.44-.03.66-.04.12-.1.21-.18.29-.05.05-.12.08-.19.08-.12,0-.24,0-.35,0-.25-.03-.47-.15-.49-.5-.02-.41,0-.82,0-1.23,0-.12.07-.25.04-.38-.09-.39-.05-.79-.05-1.19,0-.39,0-.78,0-1.16,0-.1,0-.21.03-.31.04-.17.16-.28.33-.37Z"/>
    <path class="cls-1" d="M95.35,147.69c0,.14,0,.3,0,.45,0,.39,0,.78,0,1.16,0,.12,0,.23.04.35.03.12.04.27,0,.38-.06.2-.05.39-.05.59,0,.47,0,.94,0,1.41,0,.06,0,.12,0,.18,0,.15-.08.26-.21.33-.13.06-.26.11-.4.09-.14-.02-.28-.04-.41-.08-.11-.04-.21-.1-.28-.2-.26-.39-.56-.75-.77-1.17-.07-.14-.15-.26-.24-.39-.2-.29-.38-.59-.54-.9-.05-.1-.1-.21-.23-.27-.03.03-.07.07-.08.11-.01.07-.01.14-.01.21,0,.61,0,1.22,0,1.83,0,.12,0,.24,0,.35,0,.11-.05.21-.1.29-.07.1-.16.17-.29.16-.13,0-.26,0-.39,0-.12,0-.23-.06-.31-.14-.06-.06-.11-.12-.11-.21,0-.12,0-.24,0-.35,0-1,0-2,0-3,0-.15,0-.3-.04-.45-.03-.13,0-.28.01-.42,0-.06.03-.11.03-.17,0-.1.03-.18.1-.25.08-.08.17-.14.27-.15.22-.02.44-.02.66.03.18.05.29.15.38.29.04.07.07.15.11.22.12.27.28.51.47.74.1.12.18.25.24.39.11.22.22.43.38.63.12.15.25.31.33.49.02.05.08.09.12.13.05.05.15.02.17-.05.01-.03.02-.07.02-.1,0-.48,0-.96,0-1.45-.07-.22-.06-.44-.06-.66,0-.11.03-.21.05-.31.03-.16.13-.24.25-.33.03-.02.06-.03.1-.03.08,0,.16-.01.25-.01.28,0,.33-.06.56.29Z"/>
    <path class="cls-1" d="M135.96,149.35c0-.45,0-.89,0-1.34,0-.14.04-.25.07-.38.04-.15.16-.23.31-.23.13,0,.26,0,.39,0,.12,0,.23.06.32.13.08.06.12.14.12.24,0,.24,0,.47,0,.71,0,.09.03.18.04.28,0,.07.02.14.02.21,0,.36.01.73,0,1.09-.02.48-.08.95-.27,1.4-.16.37-.4.69-.77.88-.15.07-.29.16-.44.22-.26.1-.53.2-.81.08-.33-.03-.64-.14-.93-.29-.13-.07-.26-.15-.39-.23-.06-.04-.11-.09-.15-.14-.22-.3-.42-.62-.48-1-.07-.11-.06-.23-.06-.34,0-.18,0-.35,0-.53,0-.12-.01-.23-.04-.35-.03-.16-.03-.33,0-.49.02-.12.04-.23.04-.35,0-.34,0-.68,0-1.02,0-.32.04-.37.36-.47.16-.05.33-.04.49-.02.19.02.35.18.36.38.01.19.01.38-.01.56-.05.31-.06.56,0,.83.04.2.05.4,0,.59-.07.28-.05.56-.03.84.02.21.11.41.23.58.12.17.31.24.5.3.33.1.59-.04.84-.22.04-.03.07-.06.1-.1.15-.13.22-.3.21-.5,0-.22,0-.45,0-.67,0-.22,0-.45,0-.67,0,0,0,0,0,0Z"/>
    <path class="cls-1" d="M118.59,151.86c.07-.2.17-.35.28-.51.01-.02.02-.04.04-.06.12-.09.23-.19.41-.1.12.05.24.08.35.16.19.14.41.22.65.22.04,0,.08,0,.1,0,.14.1.27,0,.41-.02.11-.01.22-.09.31-.15.04-.03.07-.09.1-.14.04-.07.03-.14-.02-.2-.1-.13-.22-.24-.38-.31-.29-.13-.57-.26-.87-.38-.25-.1-.49-.22-.73-.35-.14-.07-.24-.18-.32-.31-.14-.21-.21-.44-.27-.68-.06-.26.07-.67.25-.88.24-.28.52-.5.84-.69.13-.08.28-.13.43-.13.26,0,.52-.02.78,0,.37.04.73.17,1.05.36.1.06.17.16.22.27.05.13.04.24-.02.37-.1.19-.25.3-.44.38-.09.04-.18.04-.27,0-.13-.06-.25-.12-.38-.18-.19-.09-.39-.15-.61-.14-.23,0-.4.11-.54.29-.05.07-.05.2,0,.27.11.15.25.28.43.35.39.15.78.31,1.18.44.36.11.64.33.79.69.1.24.2.47.19.74-.01.23-.08.43-.2.63-.14.24-.33.42-.56.57-.5.32-1.03.43-1.61.3-.05-.01-.09-.02-.14-.02-.36-.01-.69-.12-.98-.32-.05-.03-.1-.06-.15-.08-.16-.07-.26-.2-.32-.37Z"/>
    <path class="cls-1" d="M130.91,148.17c-.06.13-.12.29-.24.4-.21.2-.41.25-.67.11-.17-.1-.35-.18-.54-.24-.22-.07-.44-.04-.65.05-.28.12-.28.5-.06.64.16.1.32.19.5.25.34.13.67.27,1.01.38.41.13.68.44.83.85,0,.01,0,.02,0,.03q.17.5,0,.97c-.05.13-.12.25-.21.36-.29.34-.66.55-1.08.68-.1.03-.2.06-.31.06-.24,0-.49.03-.73-.06-.04-.02-.09-.01-.14,0-.2,0-.39-.06-.57-.14-.21-.1-.42-.19-.61-.34-.18-.14-.23-.33-.11-.52.06-.1.13-.19.2-.28.06-.08.14-.12.23-.16.08-.04.15-.04.23,0,.17.09.34.16.5.25.15.08.29.14.47.14.09,0,.18.04.27.04.08,0,.16-.03.24-.04.12-.02.22-.07.31-.15.14-.12.16-.34.01-.46-.08-.07-.17-.12-.26-.17-.35-.19-.72-.33-1.09-.48-.27-.12-.54-.22-.74-.45-.22-.25-.37-.54-.37-.88,0-.08,0-.16,0-.25-.01-.23.1-.41.22-.58.07-.09.16-.18.25-.25.19-.16.38-.32.6-.43.17-.09.34-.14.54-.14.2,0,.4-.02.6,0,.36.04.71.13,1.02.32.19.12.33.26.36.5Z"/>
    <path class="cls-1" d="M139.05,150.9c0-.32,0-.64,0-.95,0-.16.02-.33-.05-.49-.02-.05,0-.12,0-.17,0-.27-.01-.54,0-.81,0-.21.04-.42.07-.62.03-.21.2-.35.42-.36.08,0,.16,0,.25,0,.23,0,.47.03.7-.06.29,0,.58-.05.87.04.08.02.16.01.25.02.35.02.66.15.91.39.19.18.34.39.46.62.26.52.23,1.03-.04,1.54-.01.02-.02.04-.04.06-.24.28-.49.54-.82.71-.06.03-.13.07-.2.07-.34,0-.67.1-1.01.07-.1-.01-.21,0-.32,0-.16,0-.24.08-.24.23,0,.26,0,.52,0,.78,0,.12-.03.23-.05.34-.05.22-.21.3-.4.34-.17.04-.33-.01-.48-.07-.17-.06-.23-.22-.26-.39-.01-.07,0-.14,0-.21,0-.35,0-.71,0-1.06,0,0,0,0-.01,0ZM140.2,149.3h0c0,.15,0,.3,0,.46,0,.15.11.26.27.26.19,0,.38.01.56,0,.13,0,.26-.02.37-.08.18-.08.35-.19.41-.4.01-.06.04-.11.05-.17,0-.06,0-.11,0-.17-.01-.07-.04-.13-.06-.2-.05-.16-.17-.25-.32-.3-.11-.04-.22-.07-.34-.07-.25-.01-.49-.01-.74-.01-.13,0-.2.07-.2.19,0,.16,0,.33,0,.49Z"/>
    <path class="cls-1" d="M145.97,150.94c-.1.12-.13.22-.13.33,0,.22,0,.45,0,.67,0,.07,0,.14,0,.21-.01.29-.13.43-.41.48-.19.03-.37,0-.55-.08-.12-.05-.15-.17-.18-.29-.01-.07,0-.14,0-.21,0-.27,0-.54,0-.81,0-.14.02-.28-.05-.42-.02-.05-.01-.12-.01-.17,0-.81,0-1.62,0-2.43,0-.13.01-.25.06-.38.08-.22.21-.34.42-.35.11,0,.21,0,.32,0,.21,0,.42.03.62-.06.29,0,.58-.05.87.04.08.02.16.01.24.02.44.02.82.23,1.08.61.15.21.31.41.37.67.04.15.06.29.09.44-.06.28-.08.58-.24.83-.2.31-.47.55-.79.73-.14.08-.27.12-.43.12-.22,0-.43.08-.66.06-.21-.02-.42,0-.63,0ZM145.88,149.94c.06.02.14.07.21.07.27,0,.53.02.8-.05.39-.1.59-.35.57-.76-.01-.2-.1-.36-.28-.45-.15-.07-.3-.13-.46-.13-.21,0-.42-.01-.63-.01-.17,0-.19.03-.26.18-.03.07-.04.13-.04.2,0,.14,0,.28,0,.42-.01.18.01.35.1.53Z"/>
    <path class="cls-1" d="M107.32,152.57s-.07,0-.11,0c-.23,0-.41-.09-.5-.31-.04-.09-.08-.17-.12-.25-.07-.14-.17-.22-.33-.21-.46,0-.92,0-1.38,0-.16,0-.29.09-.38.21-.06.08-.11.15-.15.24-.06.12-.14.21-.27.25-.17.05-.34.09-.51.03-.04-.01-.09-.03-.13-.04-.17-.06-.26-.26-.19-.43.16-.35.31-.7.49-1.05.15-.3.29-.61.38-.94.07-.25.17-.48.29-.71.25-.48.46-.97.64-1.47.02-.04.05-.08.06-.13.06-.21.23-.28.41-.35.02,0,.05,0,.07,0,.19.05.39.09.46.32,0,.02.03.04.03.06.1.39.32.72.47,1.09.15.38.36.73.5,1.12.06.16.13.33.17.49.09.33.23.63.37.94.08.18.16.36.23.55.03.06.04.13.05.2.01.21-.08.33-.29.37-.08.01-.16,0-.25,0,0,0,0,0,0,0ZM105.02,150.6c.09.13.17.2.31.19.15,0,.3,0,.46,0,.05,0,.09,0,.14,0,.09-.01.17-.12.14-.21-.01-.03-.03-.06-.04-.1-.13-.26-.25-.52-.38-.79,0-.02-.03-.04-.04-.06-.03-.05-.12-.05-.15,0-.03.04-.06.08-.07.12-.12.28-.24.55-.36.84Z"/>
    <path class="cls-1" d="M88.51,152.57c-.17-.09-.27-.21-.34-.37-.02-.05-.05-.1-.07-.16-.07-.18-.21-.25-.39-.25-.45,0-.89,0-1.34,0-.13,0-.25.06-.34.16-.07.08-.12.17-.18.26-.16.27-.47.4-.78.33-.05-.01-.09-.04-.13-.04-.17-.03-.21-.17-.25-.31,0-.03,0-.07.02-.1.13-.29.25-.58.39-.86.22-.43.41-.86.55-1.32.07-.24.17-.46.29-.67.1-.16.15-.34.23-.51.1-.23.21-.47.31-.7.05-.12.09-.24.14-.35.11-.22.32-.28.55-.23.16.04.26.11.31.26.16.46.43.88.6,1.34.08.22.19.43.29.64.14.31.25.63.35.95.09.26.19.53.31.78.11.22.19.45.27.68.02.06.03.14.02.21-.02.14-.17.26-.32.27-.18,0-.35,0-.51,0ZM87.57,150.61c-.15-.31-.3-.63-.45-.94-.04-.08-.15-.08-.2,0-.02.03-.03.06-.05.09-.12.21-.2.44-.28.67-.02.05-.04.11-.06.16-.01.05,0,.09.05.12.07.04.14.08.23.08.16,0,.33,0,.49,0,.12,0,.2-.05.28-.19Z"/>
    <path class="cls-1" d="M78.83,149.96s0-.09,0-.14c-.03-.39.09-.74.29-1.06.19-.3.39-.58.64-.83.15-.15.33-.27.52-.35.36-.14.74-.21,1.11-.3.04-.01.1-.01.14,0,.43.09.87.16,1.26.38.19.11.26.27.17.47-.06.15-.14.3-.27.41-.14.12-.29.19-.48.12-.36-.14-.73-.12-1.11-.11-.07,0-.14.02-.2.06-.17.1-.35.19-.46.37-.06.1-.15.18-.21.28-.2.33-.26.71-.16,1.11.06.23.15.44.29.63.2.27.49.43.83.45.08,0,.16.03.24.03.07,0,.14-.03.2-.02.25.02.46-.08.66-.19.11-.06.23-.11.36-.11.16,0,.3.05.42.15.07.06.14.13.2.2.15.19.11.45-.06.59-.17.14-.37.25-.57.34-.47.2-1.06.29-1.58.21-.26-.04-.53-.08-.77-.2-.21-.1-.41-.22-.58-.39-.21-.22-.43-.43-.57-.71-.21-.4-.37-.81-.33-1.27,0-.04,0-.07,0-.11Z"/>
    <path class="cls-1" d="M168.21,147.98c-.04.17-.12.33-.22.47-.16.22-.36.29-.61.19-.38-.14-.76-.11-1.15-.09-.12,0-.22.07-.31.15-.18.16-.36.34-.48.55-.1.18-.18.38-.18.6,0,.08,0,.16,0,.25,0,.42.15.77.46,1.06.19.17.4.29.66.29.07,0,.14,0,.21.03.06.02.11.02.17,0,.04-.02.09-.03.14-.03.22,0,.42-.07.6-.17.19-.11.39-.15.61-.11.07.05.15.1.23.15.1.07.17.16.22.27.07.16.05.3-.06.42-.1.1-.21.19-.33.26-.31.17-.63.3-.98.36-.17.03-.35.02-.53.02-.32.01-.62-.06-.93-.15-.36-.1-.66-.3-.91-.57-.26-.27-.48-.57-.62-.93-.08-.21-.15-.42-.14-.64,0-.24,0-.47,0-.71-.02-.34.1-.64.28-.92.13-.2.28-.37.41-.57.22-.34.55-.53.93-.65.28-.08.56-.16.84-.23.09-.02.19-.03.28,0,.36.07.73.15,1.07.3.18.08.32.19.36.4Z"/>
    <path class="cls-1" d="M157.56,152.57h-.65s-.09-.07-.14-.11c-.1-.08-.13-.19-.13-.31,0-.41,0-.82,0-1.24,0-.13,0-.26,0-.39.02-.29-.08-.55-.22-.8-.06-.1-.13-.2-.2-.28-.23-.24-.38-.53-.56-.8-.13-.21-.28-.4-.42-.61-.03-.05-.07-.1-.08-.15-.03-.14,0-.26.13-.34.1-.07.2-.13.32-.12.09,0,.19,0,.28,0,.12,0,.24.04.32.11.14.12.28.25.37.42.09.19.19.38.28.56.07.15.16.29.31.37.1,0,.16-.06.19-.13.12-.24.3-.45.45-.67.08-.11.15-.23.22-.36.11-.21.28-.31.51-.31.09,0,.19,0,.28,0,.12,0,.23.05.32.13.09.08.13.2.09.32,0,.02-.02.04-.03.06-.19.36-.4.71-.63,1.05-.19.28-.42.53-.57.84-.11.23-.18.48-.18.74,0,.51,0,1.01,0,1.52,0,.2-.05.34-.21.45-.02.01-.04.02-.08.05Z"/>
    <path class="cls-1" d="M153.12,152.64c-.12-.01-.25,0-.39-.04-.14-.04-.3-.04-.45,0-.17.05-.34.04-.52,0-.25-.05-.51-.06-.77,0-.18.05-.33,0-.47-.08-.14-.07-.21-.22-.23-.38-.02-.13-.01-.25-.06-.38-.02-.06-.02-.15,0-.21.07-.16.05-.32.05-.49,0-1.02,0-2.04,0-3.07,0-.06,0-.12,0-.18-.02-.14.05-.25.15-.34.06-.06.13-.09.22-.09.13,0,.26,0,.39,0,.11,0,.2.05.29.1.03.02.06.05.07.08.01.12.12.23.04.37-.02.03-.01.09-.01.14,0,.46,0,.92,0,1.37,0,.1.04.18.05.27.01.27.03.53-.02.8-.04.24-.02.49-.02.74,0,.04.04.1.07.11.13.04.25.14.4.08.08-.03.16-.04.24-.04.41,0,.82,0,1.23,0,.21,0,.35.13.38.33.01.09,0,.19.05.28.02.05.02.12.01.17-.04.29-.17.38-.39.42-.09.02-.19,0-.3,0Z"/>
    <path class="cls-1" d="M115.62,151.78c0-.1-.01-.25.05-.4.03-.06.01-.14.01-.21,0-.38,0-.75,0-1.13,0-.05,0-.1,0-.14-.09-.24-.05-.49-.05-.73,0-.36,0-.73,0-1.09,0-.11.01-.21.05-.31.07-.21.2-.34.42-.36.1,0,.21-.02.32,0,.17.03.31.08.35.28.02.1.05.2.05.31,0,.2,0,.4,0,.6,0,.14-.02.28.05.41,0,.22.04.44-.02.66-.02.08-.02.16-.02.24,0,.63,0,1.27,0,1.9,0,.1.03.21.03.31,0,.06-.02.11-.03.17-.03.17-.2.32-.36.33-.11,0-.21,0-.32,0-.12,0-.23-.01-.32-.1-.11-.11-.2-.23-.2-.39,0-.11,0-.21,0-.37Z"/>
    <path class="cls-1" d="M169.91,149.32c-.03-.51.17-.9.45-1.26.28-.35.66-.55,1.09-.66.12-.03.25-.06.38-.07.3-.02.58.07.85.19.08.04.17.09.23.15.16.15.32.31.47.47.16.17.25.38.3.62.04.23.06.46.06.7,0,.27-.07.53-.16.78-.07.21-.21.38-.39.53-.27.23-.55.38-.89.46-.29.07-.63.08-.93.01-.15-.03-.29-.08-.43-.15-.31-.14-.54-.37-.7-.66-.06-.11-.14-.21-.19-.33-.1-.27-.16-.54-.14-.79ZM171.6,148.55s-.08.06-.12.08c-.22.12-.32.32-.4.55-.02.05-.03.12-.02.17.03.14.06.27.11.4.05.14.14.24.28.29.1.04.19.09.29.1.17.03.35.03.5-.09.23-.18.39-.4.36-.72,0-.06,0-.12,0-.18-.03-.17-.1-.34-.24-.45-.15-.11-.32-.2-.52-.17-.08,0-.16,0-.24.01Z"/>
  </g>
</svg>